<?xml version="1.0" encoding="UTF-8"?>
<!DOCTYPE svg PUBLIC "-//W3C//DTD SVG 1.1//EN" "http://www.w3.org/Graphics/SVG/1.1/DTD/svg11.dtd">
<!-- Creator: CorelDRAW 2021 (64 Bit) -->
<svg xmlns="http://www.w3.org/2000/svg" xml:space="preserve" width="50.0001mm" height="47.0993mm" version="1.1" style="shape-rendering:geometricPrecision; text-rendering:geometricPrecision; image-rendering:optimizeQuality; fill-rule:evenodd; clip-rule:evenodd"
viewBox="0 0 174.43 164.31"
 xmlns:xlink="http://www.w3.org/1999/xlink"
 xmlns:xodm="http://www.corel.com/coreldraw/odm/2003">
 <defs>
  <style type="text/css">
   <![CDATA[
    .fil0 {fill:#111122}
    .fil3 {fill:#1E416C}
    .fil7 {fill:#3D5C92}
    .fil6 {fill:#4798BA}
    .fil1 {fill:#593136}
    .fil13 {fill:#87B8CB}
    .fil5 {fill:#A45D53}
    .fil15 {fill:#D3B6B0}
    .fil8 {fill:#E97B55}
    .fil14 {fill:#EC8529}
    .fil10 {fill:#F29272}
    .fil9 {fill:#F29272}
    .fil2 {fill:#FAB585}
    .fil12 {fill:#FAB585}
    .fil11 {fill:#FBD5B9}
    .fil4 {fill:#FEFEFE}
   ]]>
  </style>
 </defs>
 <g id="Camada_x0020_1">
  <metadata id="CorelCorpID_0Corel-Layer"/>
  <g id="_2175943450624">
   <path class="fil0" d="M55.2 144.81c-0.04,1.19 -1.9,5.69 -2.4,7.07l-0.55 1.17c-0.58,-0.18 -1.35,-0.57 -2.02,-0.85l-1.72 -0.75c-0.32,-0.22 -0.08,-0.03 -0.21,-0.24 -0.68,-0.08 -6.84,-3.67 -7.16,-4.02 0.12,-0.65 3.12,-4.75 3.75,-5.48 0.21,-0.24 0.35,-0.31 0.54,-0.56 0.62,-0.81 2.68,-2.87 3.25,-2.93 0.16,-0.28 0.07,-0.17 0.3,-0.4 0.01,-0.01 0.04,-0.03 0.05,-0.05l1.11 -0.87c0.55,-0.44 1.03,-0.77 1.61,-1.18 0.58,-0.41 3.01,-1.58 3.8,-1.68 0.01,0.02 0.04,0.02 0.04,0.05 0.01,0.07 0.12,0.03 0.23,0.45 0.27,1.09 1.23,4.43 1.19,4.95l-1.8 5.29zm47.89 -5.09c1.95,1.74 1.68,1.65 3.14,3.29 0.35,0.4 2.51,3.36 2.61,3.88 0.39,0.33 1.06,1.69 1.23,2.11 -0.46,0.94 -5.35,4.05 -6.22,4.6 -1.16,0.73 -2.24,1.38 -3.48,2 -0.82,0.41 -3.05,1.63 -3.94,1.64l0.08 -2.17c0.03,-0.66 0.03,-0.44 0.11,-0.55l0.17 -4.62c-0.01,-1.31 0.06,-2.64 0.08,-3.98 0.03,-2 -1.1,-10.55 -0.79,-10.92 0.32,-0.37 1.68,0.58 1.98,0.77 0.99,0.63 2.56,1.78 3.38,2.59 0.23,0.23 0.49,0.5 0.79,0.72l0.86 0.66zm-44.37 -5.07c-0.18,-0.4 -0.17,-0.45 -0.24,-1 -0.32,-2.53 0.44,-1.89 1.53,-1.68 -0.03,0.62 -0.26,1.01 -0.46,1.49 -0.43,1.07 -0.26,1.04 -0.84,1.19zm31.51 -2.36c-0.05,0.09 -0.11,0.27 -0.14,0.31 -0.42,0.77 -1.1,1.09 -1.24,1.22 -0.12,0.12 -0.06,0.1 -0.21,0.28l-0.27 0.27c0.7,0.06 0.75,0.21 1.2,0.3 0.12,0.02 0.42,0.04 0.43,0.05 0.63,0.12 -0.29,0.22 1.13,0.22 0.19,0 0.01,-0.01 0.16,0.02 0.02,0 0.12,0.04 0.2,0.05 0.29,-0.13 0.51,-0.43 0.85,-0.58 0.35,-0.16 0.86,-0.25 1.22,-0.26l0.01 3.77c0.29,0.16 0.17,0.4 0.22,1.2 0.03,0.47 0.07,0.83 0.01,1.29 0.14,0.13 -0.2,0.1 0.29,0.05 0.22,0.63 0.39,0.51 0.48,0.87 0.03,0.13 0.06,0.54 0.06,0.68l0.04 0.56c0.28,1.04 0.17,4.51 -0.02,5.64 -0.15,0.93 -0.43,1.69 -0.54,2.46 -0.03,0.2 -0.02,0.45 -0.06,0.63 -0.09,0.4 -0.46,1.49 -0.88,1.88l-0.1 0.1c-0.15,0.14 0.07,0.11 -0.48,0.3 -0.39,0.13 -0.85,0.22 -1.16,0.34l-0.89 0.4c-0.03,0.01 -0.11,0.05 -0.14,0.06 -0.31,0.1 -0.28,0 -0.64,0.16 -0.02,0.01 -0.04,0.02 -0.07,0.03l-0.39 0.2c-0.26,0.12 -0.48,0.14 -0.64,0.47 -0.06,0.12 -0.04,0.14 -0.06,0.23l-0.48 0.71c-0.13,0.11 -0.06,-0.1 -0.23,0.24 -0.01,0.01 -0.01,0.04 -0.01,0.05 -0.1,0.23 -0.18,0.24 -0.46,0.5 -0.65,0.61 -0.35,0.15 -0.77,0.42 -0.17,0.1 -0.18,0.26 -0.3,0.4l-0.62 0.48c-0.2,0.18 -0.19,0.3 -0.38,0.4l-2.95 1.14c-0.61,0.13 0.15,0.11 -1.18,0.31 -0.12,0.02 -0.48,0.11 -0.66,0.14 -1.35,0.26 -5.22,-0.07 -7,-0.41 -0.43,-0.08 -0.8,-0.15 -1.27,-0.24 -1.95,-0.39 -0.48,-0.57 -2.31,-0.63l0.39 -0.18c-0.29,0.03 -0.64,0.09 -0.91,0.1 -0.36,0.01 -0.65,-0.04 -0.91,-0.22 -1.91,-0.15 -8.16,-2.2 -10.26,-3.03 -0.69,-0.27 -2.67,-1 -3.14,-1.33l1.72 -5.14c0.19,-1.04 0.63,-2.3 0.93,-3.33 0.32,-1.13 0.68,-2.2 1,-3.29 0.51,-1.69 2.55,-7.77 3.35,-9.29 0.26,-0.49 0.48,-0.82 0.73,-1.36 1.15,-2.49 2.94,-3.96 5.19,-5.47 1.76,-1.19 3.6,-1.8 5.86,-2.61 2.41,-0.86 4.75,-0.81 7.16,-0.03 3.68,1.19 4.64,2.49 6.7,3.86 0.66,0.44 2.34,2.75 2.5,3.88 0.14,0.28 0,0.49 -0.05,0.71zm26.93 -24.99c0.02,-0.02 0.04,-0.05 0.06,-0.06l0.8 -0.51c0.82,-0.42 1.93,-1.31 2.49,-1.57 0.11,-0.14 0.63,-0.55 0.81,-0.71 0.33,-0.29 0.51,-0.5 0.86,-0.81l1.34 -1.42c0.11,1.75 -0.77,5.04 -1.16,6.66 -1.01,4.19 -2.4,6.02 -4.88,8.95 -0.81,0.96 -4.44,4.24 -5.19,4.42 -0.3,0.39 -1.35,1.03 -1.95,1.38l-4.17 2.3c-0.6,0.32 -1.55,0.88 -2.15,1.05 -0.6,0.55 -5.33,2.2 -6.53,2.63 -0.27,-0 -1.71,0.46 -2.11,0.56 -0.63,0.16 -1.66,0.43 -2.3,0.48 -0.58,-0.71 -1.08,-3.5 -5.78,-6.67 -2.45,-1.65 -5.19,-3.29 -9.06,-3.33 -4.07,-0.04 -6.89,0.9 -9.89,2.5 -3.08,1.65 -4.74,3.35 -6.61,5.7 -0.14,0.31 -0.22,0.39 -0.41,0.59 -1.31,0.01 -6.48,-1.99 -7.82,-2.55 -2.52,-1.05 -4.73,-2.08 -6.95,-3.4 -3.54,-2.11 -6.01,-3.9 -8.92,-6.62 -0.52,-0.49 -2.23,-2.17 -2.55,-2.69 -0.37,-0.46 -0.73,-0.78 -1.14,-1.3 -0.7,-0.89 -1.44,-1.95 -2.23,-2.75 -0.56,-0.57 -0.51,-0.8 -0.98,-1.41 -0.45,0.1 -0.4,0.31 -0.97,0.92 -2.42,2.58 -5.24,4.11 -9.09,3.97 -4.79,-0.18 -7.71,-1.96 -10.81,-5.03 -2.04,-2.02 -4.17,-6.37 -4.76,-9.15 -1.13,-5.27 -0.15,-10.82 3.68,-14.06 4.24,-3.57 9.49,-1.54 11.85,3.07 0.97,1.89 3.26,9.95 4.47,10.37 0.66,0.23 2.64,-0.41 2.93,-0.75 0.35,-0.41 0.54,-2.32 0.64,-3 0.23,-1.52 0.78,-13.8 0.89,-13.94 0.16,-0.22 -0.09,-0.08 0.22,-0.21l2.25 -0.19c0.26,5.61 1.07,9.44 3.66,14.28 0.79,1.47 1.45,2.45 2.33,3.64 0.2,0.27 0.48,0.59 0.69,0.81 0.68,0.75 1.38,1.66 2.14,2.34 3.1,2.75 7.6,5.36 12.08,5.74 3.79,0.32 7.16,-0.06 10.29,-1.47 1.63,-0.74 2.39,-1.11 3.9,-2.06 1.14,-0.72 2.5,-1.85 3.28,-2.69 0.89,-0.96 1.87,-1.97 2.67,-3.3 3.19,-5.27 3.8,-7.38 4.36,-13.48 3.55,-2.09 6.92,-1.86 10.42,0.32 0.23,2.54 -0.14,3.4 0.56,6.51 0.85,3.81 2.18,6.67 4.28,9.77 1.12,1.66 0.87,1.08 1.56,1.92 1.16,1.4 4.37,3.73 6.08,4.47 3.94,1.71 7.28,2.44 11.67,1.56 1,-0.2 1.9,-0.44 2.76,-0.75 0.74,-0.26 1.81,-0.92 2.38,-1.07zm7.52 4.03c0.23,-0.98 0.61,-1.94 0.84,-2.96 0.46,-2.05 0.73,-4.52 0.94,-6.62 0.38,-3.75 -0.36,-2.75 1.27,-6.42 0.76,-1.7 1.43,-3.93 1.82,-5.76l0.56 -3.21c0.82,-0.09 1.32,0.35 1.78,0.71 1.43,1.11 1.93,3.13 2.17,5 0.64,5.11 -1.26,10.98 -4.15,15 -0.72,1 -1.09,1.22 -1.68,1.91 -0.71,0.82 -2.47,2.36 -3.56,2.35zm-67.75 -40.95c3.43,0.33 9.26,2.66 12.03,4.75 1.28,0.97 3.07,2.75 3.78,4.6 2.16,5.62 0.09,11.59 -2.87,16.38 -0.28,0.46 -0.56,0.78 -0.88,1.21 -1.35,1.8 -3.51,3.58 -5.76,4.69 -1.49,0.73 -4.71,2.11 -6.43,1.93 -0.34,0.26 -1.79,0.12 -2.2,0.08 -1.9,-0.18 -3.84,-0.71 -5.54,-1.4 -1.63,-0.66 -4.72,-2.5 -5.6,-3.68 -0.45,-0.43 -1.04,-0.98 -1.4,-1.42 -0.23,-0.32 -0.53,-0.56 -0.8,-0.94 -0.89,-1.28 -1.17,-1.54 -2.06,-3.12 -2.57,-4.56 -4.11,-12.36 -2.54,-17.02 2.36,-7.02 14.22,-7.27 20.29,-6.05zm62.27 30.84c-0.41,0.56 -2.19,1.88 -2.94,2.34 -3.81,2.35 -8.27,2.96 -12.67,1.54 -2.69,-0.87 -4.84,-2.32 -6.3,-4.14 -0.78,-0.97 -1.53,-1.8 -2.21,-2.97 -2.12,-3.66 -3.62,-7.95 -3.24,-12.43l0.28 -1.94c0.52,-3.2 1.79,-4.83 4.23,-6.63 4.12,-3.03 8.52,-4.2 13.82,-4.37 2.07,-0.03 3.74,0.05 5.69,0.42 3.17,0.6 6.38,1.53 8.35,3.99 0.74,0.92 0.75,0.81 0.69,2.37 -0.07,1.66 -0.57,13.52 -0.8,14.49 -0.51,2.12 -3.36,6.24 -4.91,7.34zm-109.97 -32.66c0.2,-0.12 0.04,0.04 0.22,-0.21 0.02,-0.02 0.09,-0.17 0.1,-0.2 0.07,-0.14 0.15,-0.32 0.22,-0.47 0.14,-0.3 0.25,-0.6 0.38,-0.92 0.74,-1.8 0.85,-1.24 1.37,-3.81 0.51,-2.48 1.07,-3.66 1.94,-5.92 0.25,-0.64 0.82,-2.19 1.19,-2.68 0.17,-0.22 0.38,-0.57 0.54,-0.72 0.11,0.06 0.26,0.15 0.37,0.21l0.57 0.32c0.09,0.06 0.08,0.05 0.19,0.11l1.8 0.98c0.47,0.29 1.13,0.43 1.64,0.65 0.53,0.23 1.14,0.42 1.69,0.6 0.32,0.11 0.59,0.12 0.95,0.25 2.05,0.76 4.38,1.29 6.58,1.16l-1.26 8.23 -0.63 8.96c-0.48,0.28 -0.53,0.17 -1.04,0.38 -1.07,0.43 -7.6,2.48 -7.96,2.49l-0.94 -2.52c-0.17,-0.46 -0.31,-0.79 -0.48,-1.3l-1.18 -3.99c-0.2,-0.87 -0.43,-1.84 -0.69,-2.71 -0.32,-0.01 -0.29,-0.04 -0.61,0.17 -0.71,0.49 -0.57,-0.06 -2.28,0.61 -0.5,0.2 -2.16,0.84 -2.5,1.18 -0.22,0.22 -0.13,0.27 -0.33,0.47 -0.14,0.14 0.01,0 -0.11,0.09 -0.15,0.11 -0.39,0.24 -0.55,0.35 -0.35,0.23 -0.76,0.44 -1.16,0.62 -1.27,0.59 -1.2,0.76 -2.59,0.79 -0.1,-0.67 -0.38,-1.41 -0.5,-2.15 -0.15,-0.88 -0.23,-1.45 -0.43,-2.28 -0.35,-1.52 -0.46,-3.19 -0.43,-4.92 0.03,-1.51 0.35,-3.27 0.72,-4.63 0.19,-0.69 0.94,-3.39 1.62,-3.6 1.15,0.05 1.95,1.27 2.27,2.27 0.38,1.16 0.38,2.62 0.49,3.97 0.07,0.78 0.07,1.42 0.11,2.19 0.04,0.6 0.14,1.39 0.17,1.99 0.1,2.59 0.09,1.36 0.37,3.04 0.06,0.37 -0.01,0.67 0.18,0.97zm44.31 -64.81c2.6,0.24 8.54,-0.27 12.3,0.05 3.74,0.32 7.6,0.4 11.41,0.9 7.12,0.95 14,2.14 20.15,4.64 3.16,1.28 5.37,2.49 8.2,4.25 5.31,3.3 9.37,7.9 10.74,14.05 0.83,3.74 0.72,7.51 0.23,11.26 -0.04,0.36 -0.18,0.58 -0.22,0.87 -0.04,0.31 -0.02,0.62 -0.08,0.94 -0.1,0.54 -0.17,1.13 -0.28,1.72l-0.75 2.23c-0.07,0.37 -0.09,0.54 -0.13,0.85 0.51,-0.16 0.14,0.1 0.43,-0.3 1.55,-2.15 1.83,-2.28 3.03,-5.22 0.48,-1.17 0.73,-2.18 1.11,-3.37 0.48,-1.48 0.37,-2.11 1.25,-3.14 0.69,-0.79 1.36,-1.72 2,-2.48l2 -2.39c0.13,-0.17 3.68,-4.65 3.98,-4.85 0.12,-0.19 -0.02,-0.06 0.21,-0.15 0.66,2.85 0.41,5.94 -0.19,8.69 -0.65,2.94 -2.83,6.11 -2.65,6.79 2.86,0.09 4.99,0.56 7.29,1.69 1.69,0.83 3.25,1.93 4.54,3.22 0.91,0.9 1.89,1.87 2.65,2.93 1.55,2.16 3.85,7.05 3.94,9.38 0.32,0.37 0.31,1.03 0.26,1.5 -0.33,-0.13 -0.22,-0.05 -0.42,-0.36l-0.13 0.09c-0.87,-0.28 -1.65,-1.17 -2.34,-1.68l-2.27 -1.6c-0.87,-0.58 -1.54,-1.04 -2.42,-1.57 -0.36,-0.22 -2.16,-1.45 -2.41,-1.49 0.15,0.51 0.87,1.62 1.15,2.34 1,2.52 1.93,5.33 2.26,8.1 0.25,2.14 0.15,4.5 -0.08,6.58l-0.68 3.25c-0.28,0.65 -0.44,1.45 -0.74,2.1 -0.33,-0.5 -0.35,-1.21 -0.72,-1.73 -0.22,-0.31 -0.13,-0.49 -0.33,-0.86l-0.2 -0.39c-0.27,-0.61 -0.33,-1.75 -0.56,-2.42l-1.13 -3.66c-0.24,-0.58 -0.49,-1.08 -0.75,-1.64l-0.85 -1.54c-0.4,-0.81 -0.81,-1.55 -1.36,-2.23 -0.25,-0.31 -0.25,-0.44 -0.49,-0.7 -0.02,-0.02 -0.08,-0.08 -0.1,-0.1l-0.94 -1.25c-0.2,-0.23 -0.38,-0.41 -0.55,-0.64l-4.6 -4.37c-0.39,-0.33 -2.07,-1.4 -2.54,-1.36 -0.53,0.04 0.02,-0.09 -0.16,0.08 -0.05,-0.08 -0.04,-0.12 -0.09,-0.19 -0.15,-0.19 -0.23,-0.14 -0.53,-0.3 -0.25,-0.13 0.08,-0.02 -0.17,-0.11l-0.5 0.02c-0,-0.13 0,-0.12 -0.03,-0.25 -0,-0.02 -0.03,-0.04 -0.03,-0.08 -0,-0.04 -0.03,-0.05 -0.04,-0.08l-0.15 0.02c-0.3,-0.01 -0.69,-0.62 -1.24,-0.66 -0.34,-0.02 -0.06,-0.01 -0.36,-0.04 -0.35,-0.04 -0.56,0.08 -0.73,0.15 -0.51,-0.33 -0.98,-0.46 -1.56,-0.65 -0.61,-0.21 -0.9,-0.39 -1.56,-0.55 -0.13,-0.03 -0.32,-0.08 -0.45,-0.13l-0.27 -0.12c-0.45,-0.17 -0.86,-0.21 -1.26,-0.42 -0.34,-0.18 -0.8,-0.17 -1.21,-0.3 -0.23,-0.08 -0.19,-0.06 -0.5,-0.12l-2.35 -0.6c-0.84,-0.12 -2.96,-0.42 -3.54,-0.72 0.05,-0.39 0.58,-1.36 0.75,-1.83l0.66 -1.93c0.08,-0.29 0.1,-0.22 0.17,-0.52 0.82,-3.41 1.03,-4.77 0.84,-8.66 -0.05,-1 -0.25,-3.45 -0.95,-4.29 -0.25,0.26 -0.21,0.82 -0.31,1.22 -0.09,0.39 -0.14,0.83 -0.2,1.19 -0.53,2.96 -1.57,5.47 -3.19,7.95l-1.16 1.62c-0.45,0.55 -2,2.65 -2.69,2.83 -0.27,-0.49 -0.14,-1.3 -0.25,-2.01 -0.21,-1.31 -0.35,-2.49 -0.68,-3.69l-0.85 -2.74c-0.04,-0.1 -0.01,-0.01 -0.09,-0.2 -0.63,-1.67 -1.65,-4.24 -2.55,-5.73 -0.15,-0.25 -0.25,-0.39 -0.41,-0.67l-1.72 -2.66c-0.17,-0.23 -0.26,-0.38 -0.45,-0.65 -0.16,-0.23 -0.31,-0.41 -0.47,-0.63 -0.21,-0.3 -0.3,-0.33 -0.49,-0.6 -0.17,-0.25 -0.28,-0.36 -0.47,-0.63 -0.5,-0.71 -1.09,-1.3 -1.65,-1.95l-1.63 -1.44c0.06,0.59 0.15,0.39 0.39,0.78 0.4,0.65 0.62,1.42 0.98,2.11l1 2.81c0.17,0.56 0.48,1.04 0.61,1.62l0.43 1.68c0.21,1.12 0.59,2.14 0.79,3.42 0.51,3.19 0.72,8.73 0.47,12.13 -0.04,0.58 -0.14,1.23 -0.15,1.88 -0.01,0.64 -0.17,1.26 -0.16,1.84 0.68,-0.04 1.42,-0.22 2.06,-0.08 0.69,0.17 2.71,0.01 3.57,0.01 2.36,-0 4.4,0.11 6.73,0.49 0.92,0.15 1.96,0.46 2.87,0.57 2.99,0.64 5.63,1.38 8.24,2.43 2.29,0.92 5,2.28 6.34,4.31 2.39,3.61 4.11,12.96 4.01,17.33 -0.28,-0.09 -0.63,-0.28 -0.81,-0.52 -0.53,-0.2 -1.36,-0.75 -2.04,-1.06 -2.26,-1.04 -4.51,-1.8 -7.01,-2.13 -8.03,-1.04 -17.79,0.6 -23.47,6.42 -1.92,1.97 -1.48,1.85 -2.41,2.96 -0.13,0.16 -0.2,0.21 -0.32,0.36 -2.16,-0.1 -4.35,-2.02 -9.76,-1.05 -0.84,0.15 -2.33,0.57 -3.1,0.56 -0.7,-1.12 -0.68,-1.37 -1.64,-2.61 -1.2,-1.56 -2.6,-3.05 -4.25,-4.13 -0.78,-0.51 -1.71,-1.13 -2.62,-1.57l-2.85 -1.33c-0.98,-0.45 -1.96,-0.76 -3.1,-1.09 -2.33,-0.68 -4.34,-1.11 -6.91,-1.46 -5.97,-0.8 -14.81,-0.2 -19.41,4.18 -1,0.95 -1.45,1.7 -2.31,2.87 -0.47,0.64 -2.34,0.72 -3.3,0.88l0.24 -3.31c0.2,-2.55 0.45,-5.17 0.74,-7.66 0.11,-0.97 0.74,-6.56 1.48,-6.87 3.56,-0.29 6.46,-0.54 9.54,-1.62 1.45,-0.51 2.71,-0.95 4.02,-1.56 0.72,-0.33 1.19,-0.6 1.82,-0.97 0.38,-0.22 1.34,-0.89 1.65,-0.98 -0.01,0.58 -0.17,1.58 -0.21,2.36 -0.04,0.79 -0.03,1.52 -0.03,2.31l0.13 1.56c0.62,0.96 -0.25,0.11 0.25,1.4 0.17,0.44 0.21,0.55 0.21,1.1 0.2,0.05 0.01,-0.36 0.18,0.1 -0.01,0.6 0.05,0.72 0.26,1.14 0.21,0.4 0.38,0.5 0.57,0.8 1.64,-0.03 1,-1.05 2.14,-1.55 0.51,-0.22 2.33,-2.08 2.75,-2.62 0.04,-0.05 0.11,-0.15 0.13,-0.17 0.13,-0.15 0.01,-0.05 0.18,-0.17l1.58 -1.46c0.47,-0.43 1.11,-0.92 1.65,-1.34 3.42,-2.69 6.57,-5.34 10.75,-7.18 4.54,-2.01 10.91,-1.23 15.94,-0.3 1.19,0.22 3.92,0.98 5,0.9 0.28,-0.8 -1.12,-2.33 -1.69,-2.92l-0.93 -1.33c-0.28,-0.54 -0.62,-0.89 -0.97,-1.34l-1.13 -1.85c-0.27,-0.45 -0.53,-1 -0.88,-1.41l-1.38 -1.49c-1.63,-1.59 -1.54,-1.44 -3.65,-2.15 -0.63,-0.21 -1.33,-0.24 -2.04,-0.21 -1.56,0.05 -3.86,1.01 -5.02,1.83 -1.14,0.8 -3.36,1.87 -4.33,2.65l-6.15 5.31c-0.46,0.49 -0.76,0.71 -1.17,1.11l-3.37 3.61c-0.19,0.22 -0.37,0.39 -0.57,0.62l-1 1.29c-0.92,0.99 -1.69,2.18 -2.53,3.15 -0.37,0.43 -0.67,0.84 -1.01,1.28l-0.81 0.99c-0.01,0.01 -0.03,0.04 -0.04,0.05l-0.15 0.15c-0.23,-0.21 -0.22,-0.46 -0.25,-0.77 -0.27,-3.08 0.29,-6.87 1.46,-9.68 0.35,-0.84 1.04,-2.07 1.26,-2.87 -0.62,0.09 -2.58,1.6 -3.2,2.02 -1.1,0.73 -2.01,1.34 -3.1,1.97 -5.32,3.1 -9.89,4.16 -16.33,4.13 -5.61,-0.03 -10.81,-1.69 -15.68,-4.19 -0.2,-0.1 -0.2,-0.09 -0.38,-0.21 -0.31,-0.19 -0.48,-0.28 -0.8,-0.49 -0.79,-0.54 -1.62,-0.92 -2.39,-1.49 -2.46,-1.81 -4.82,-3.75 -6.64,-6.19 -0.56,-0.74 -0.91,-1.65 -1.41,-2.38l-0.47 -0.92c-0.01,-0.02 -0.03,-0.04 -0.04,-0.06l-0.18 -0.3c-0.79,-1.63 -1.52,-3.2 -1.94,-4.99 0.6,0.07 1.28,0.25 1.89,0.36 1.92,0.36 4.37,0.11 6.22,-0.28 0.56,-0.12 1.21,-0.35 1.75,-0.54l3.34 -1.15c0.6,-0.24 0.95,-0.39 1.57,-0.63 2.14,-0.84 3.88,-2.1 6.04,-3.03 1.17,-0.51 5.06,-2.39 5.94,-3.02 -0.21,-0.32 -0.33,-0.27 -0.86,-0.33 -2.5,-0.29 -3.82,-0.53 -6.05,-1.92 -1.54,-0.96 -3.78,-2.81 -3.99,-5.29 0.87,0.09 3.17,1.07 5.02,1.29 3.31,0.39 7.8,0.21 11,-0.7 1.52,-0.43 2.91,-1.09 4.53,-1.62 0.24,0.01 2.4,-0.76 2.9,-0.91 5.5,-1.61 10.72,-2.46 16.54,-2.36 2.75,0.05 4.15,0.3 6.72,0.77 1.75,0.32 3.76,0.93 5.3,1.4 4.1,1.25 7.36,3.39 10.65,6 0.54,0.43 1.44,1.31 1.93,1.38 -0.2,-0.69 -0.96,-1.45 -1.45,-1.97 -2.13,-2.24 -7.24,-5.76 -9.84,-7.11 -0.37,-0.2 -0.7,-0.38 -1.09,-0.59 -0.38,-0.21 -0.76,-0.32 -1.16,-0.53l-0.63 -0.28c-1.88,-0.77 -2.15,-0.95 -4.29,-1.49 -0.98,-0.25 -1.78,-0.42 -2.84,-0.57 -1.37,-0.2 -6.46,-0.53 -7.96,-0.32 -1.15,0.16 -2.03,0.14 -3,-0.52l-1.12 -0.78c-0.99,-0.63 -1.78,-1.41 -2.54,-2.03 -0.21,-0.17 -0.68,-0.49 -0.8,-0.71 1.14,0 2.59,0.02 3.72,0.13 1.28,0.12 2.62,-0.04 3.9,0.06zm-5.95 4.94c-0.03,0.01 -4.48,0.85 -5.83,1.26 -1.81,0.54 -3.47,1.24 -5.25,1.82 -5.85,1.9 -11.96,3.11 -17.91,0.79 -2.5,-0.98 -3.48,-1.41 -3.11,2.4 0.29,3 1.51,5.25 3.56,7.1 0.42,0.37 1.79,1.3 1.99,1.57l-0.45 0.32c-1.55,0.79 -1.87,1.02 -3.79,1.89 -1.57,0.71 -2.98,1.24 -4.65,1.82 -6.12,2.12 -10.61,0.33 -11.52,0.74 -1.94,0.87 1,8.52 1.66,9.93 1.02,2.16 2.19,4.21 3.78,5.98l1.64 1.63c-0.17,0.35 -0.47,0.51 -0.7,0.78 -0.73,0.86 -1.56,1.62 -2.26,2.52 -0.9,1.17 -1.74,2.63 -2.35,4.02 -2.97,6.74 -2.41,14.46 -0.07,21.36 0.79,2.33 1.76,4.58 2.76,6.81 0.96,2.13 1.11,2.07 0.45,2.85 -5.19,6.12 -4.83,15.44 -1.29,22.09 0.41,0.78 0.92,1.62 1.39,2.3 0.27,0.38 0.51,0.75 0.74,1.05 0.3,0.39 0.54,0.68 0.83,1.06 1.11,1.46 2.49,2.5 4.02,3.45 2.36,1.47 5.38,2.6 8.34,2.85 1.32,0.11 2.52,-0.08 3.78,-0.06 0.25,0.27 0.39,0.57 0.59,0.83 0.96,1.29 2.03,2.4 3.16,3.51 0.15,0.15 0.22,0.27 0.38,0.42l1.14 1.05c1.14,1.01 2.54,2.08 3.86,2.82 3.12,1.74 2.6,-1.59 2.73,-1.92l3.5 3.36 1.45 0.94c2.68,1.69 2.73,1.71 6.08,3.18 0.77,0.34 1.39,0.62 2.22,0.87 0.57,0.18 2.05,0.49 2.47,0.7 -0.14,0.23 -1.46,0.67 -1.77,0.81 -1.17,0.55 -2.22,1.25 -3.2,1.98 -0.33,0.25 -0.36,0.26 -0.71,0.58l-3.37 3.31c-0.22,0.3 -0.38,0.4 -0.6,0.7 -1.24,1.68 -2.79,3.66 -3.53,5.63 -1.25,3.36 1,4.26 3.85,5.97l3.3 1.98c8.29,4.69 20.41,9.37 31.61,10.39 13.29,1.21 24.08,-3.2 32.43,-9.18 0.53,-0.38 1,-0.69 1.53,-1.06 0.5,-0.35 0.97,-0.75 1.47,-1.12 0.91,-0.69 2.12,-1.63 1.97,-3.37 -0.19,-2.2 -3.61,-7.25 -5.27,-9.21l-1.93 -2.06c-0.89,-0.79 -1.84,-1.69 -2.88,-2.39 -1.06,-0.72 -2.13,-1.45 -3.31,-1.98 -0.47,-0.21 -1.45,-0.6 -1.77,-0.89 0.39,-0.22 1.52,-0.52 2.04,-0.72 2.89,-1.08 7.01,-2.94 9.62,-4.51 0.62,-0.37 1.15,-0.67 1.72,-1.07 2.54,-1.74 5.72,-4.11 7.74,-6.5 0.85,-1.01 1.61,-2.09 2.38,-3.3 1.46,-2.28 0.64,-1.54 3.27,-2.4 2.72,-0.89 5.07,-3.14 6.4,-4.86 1.72,-2.23 2.94,-4.67 3.9,-7.45 1.62,-4.68 2.1,-11.82 -0.93,-16.22 -0.3,-0.44 -0.55,-0.84 -0.92,-1.18l-0.34 -0.51c0.04,-0.05 0.11,-0.11 0.15,-0.16l0.82 -0.77c2.46,-3.18 3.97,-5.18 5.37,-9.37 1.19,-3.57 1.81,-6.9 1.73,-10.78 -0.03,-1.46 -0.33,-2.56 -0.43,-3.9 0.28,0.12 0.07,0.01 0.25,0.12 0.08,0.05 0.16,0.11 0.24,0.17 0.19,0.14 0.26,0.18 0.48,0.32 0.36,0.23 0.61,0.41 0.98,0.62 3.3,1.92 4.72,1.76 4.31,-2.8 -0.59,-6.55 -3.53,-12.74 -8.38,-16.74 -1.93,-1.6 -5.03,-3.85 -8.06,-4.59 0.08,-0.51 0.4,-1.22 0.53,-1.81 0.16,-0.7 0.28,-1.31 0.4,-1.99 0.24,-1.36 0.36,-3.05 0.32,-4.45 -0.05,-1.99 -0.91,-6.48 -1.97,-7.57 -0.47,-0.48 -1.23,-0.43 -1.81,-0.01 -1.23,0.88 -2.26,2.68 -3.44,3.74 -0.71,0.64 -3.18,3.46 -3.96,4.4 -0.2,0.24 -0.34,0.48 -0.55,0.73l-0.18 -0.7c-0.04,-0.27 -0.1,-0.55 -0.15,-0.83 -0.68,-3.52 -1.96,-6.5 -4.08,-9.28l-1.75 -2.03c-0.57,-0.63 -1.24,-1.36 -1.92,-1.86l-2.09 -1.69c-5.27,-3.89 -11.68,-6.7 -18.12,-8.66 -13.03,-3.99 -34.49,-5.39 -48.26,-3.21 -1.08,0.17 -2.34,0.33 -2.1,1.69 0.19,1.04 3.98,4.67 5.1,5.47 0.26,0.19 0.33,0.21 0.49,0.52z"/>
   <path class="fil1" d="M119.31 47.01c4,0.23 6.7,1.07 9.5,3.82l1.32 1.37c0.56,0.59 1.72,1.92 2.02,2.7 0.07,0.19 0.11,-0.27 0.04,0.21 -0.04,0.3 0.01,0.13 -0.15,0.15 -0.08,0.01 -0.85,-0.28 -0.94,-0.33 -0.25,-0.14 -0.43,-0.4 -0.66,-0.65 -1.08,-1.18 -3.95,-3.18 -5.41,-4.03l-0.45 -0.37c-0.01,-0.01 -0.03,-0.03 -0.05,-0.04 -0.02,-0.01 -0.04,-0.03 -0.05,-0.04l-2.31 -1.18c-0.02,-0.01 -0.05,-0.03 -0.07,-0.04l-1.49 -0.7c-0.17,-0.11 -0.17,-0.12 -0.45,-0.22l-0.76 -0.48c-0.02,-0.02 -0.04,-0.06 -0.05,-0.07 -0.02,-0.02 -0.03,-0.05 -0.05,-0.08zm-53.95 -18.1c-0.31,1.49 -1.25,2.64 -2.22,3.53 -1.96,1.79 -6.67,2.65 -9.1,1.25 -1.81,-1.04 -3.06,-3.55 -1.03,-5.62 0.67,-0.68 0.68,-0.71 1.77,-1.12 1.41,-0.53 2.91,-1.12 4.27,-1.58 1.6,-0.53 2.86,-1.16 4.63,-0.41 1.42,0.6 2.1,1.93 1.68,3.95zm-0.61 -17.23c0.02,0.02 0.05,0.03 0.07,0.04l1.31 0.81c-0.23,0.2 0.06,0.04 -0.24,0.12 -0.03,0.01 -0.05,0.01 -0.08,0.02l-1.39 -0.12c-1.84,-0.21 -3.55,-0.28 -5.41,-0.28 -3.7,-0.01 -10.64,0.39 -14.18,0.97l-5.93 1.15c-0.38,-0.09 -0.15,0.24 -0.31,-0.21 -1.62,0.53 -3,1.18 -4.53,1.62 -3.2,0.91 -7.69,1.1 -11,0.7 -1.85,-0.22 -4.15,-1.2 -5.02,-1.29 0.21,2.48 2.44,4.33 3.99,5.29 2.22,1.38 3.55,1.63 6.05,1.92 0.54,0.06 0.65,0.02 0.86,0.33 -0.88,0.63 -4.77,2.51 -5.94,3.02 -2.16,0.94 -3.9,2.19 -6.04,3.03 -0.61,0.24 -0.97,0.39 -1.57,0.63l-3.34 1.15c-0.53,0.19 -1.19,0.42 -1.75,0.54 -1.85,0.39 -4.3,0.64 -6.22,0.28 -0.62,-0.12 -1.3,-0.29 -1.89,-0.36 0.42,1.79 1.15,3.36 1.94,4.99l0.18 0.3c0.01,0.02 0.03,0.04 0.04,0.06l0.47 0.92c0.5,0.73 0.86,1.64 1.41,2.38 1.82,2.44 4.17,4.38 6.64,6.19 0.78,0.57 1.6,0.96 2.39,1.49 0.32,0.22 0.49,0.31 0.8,0.49 0.18,0.11 0.18,0.1 0.38,0.21 4.87,2.5 10.07,4.16 15.68,4.19 6.44,0.03 11.01,-1.03 16.33,-4.13 1.09,-0.64 2,-1.24 3.1,-1.97 0.63,-0.42 2.59,-1.93 3.2,-2.02 -0.22,0.8 -0.91,2.03 -1.26,2.87 -1.17,2.82 -1.73,6.6 -1.46,9.68 0.03,0.31 0.02,0.56 0.25,0.77l0.15 -0.15c0.01,-0.01 0.03,-0.04 0.04,-0.05l0.81 -0.99c0.35,-0.44 0.64,-0.85 1.01,-1.28 0.84,-0.97 1.61,-2.16 2.53,-3.15l1 -1.29c0.2,-0.23 0.38,-0.4 0.57,-0.62l3.37 -3.61c0.4,-0.41 0.71,-0.62 1.17,-1.11l6.15 -5.31c0.97,-0.78 3.19,-1.85 4.33,-2.65 1.16,-0.81 3.46,-1.77 5.02,-1.83 0.71,-0.03 1.42,0 2.04,0.21 2.11,0.71 2.02,0.56 3.65,2.15l1.38 1.49c0.35,0.42 0.61,0.96 0.88,1.41l1.13 1.85c0.35,0.46 0.69,0.8 0.97,1.34l0.93 1.33c0.57,0.58 1.97,2.12 1.69,2.92 0.37,-0.1 0.8,-0.15 1.26,-0.18l1.31 -0.14c-0.65,-0.15 -1.39,0.03 -2.06,0.08 -0.01,-0.58 0.14,-1.2 0.16,-1.84 0.01,-0.65 0.11,-1.29 0.15,-1.88 0.25,-3.41 0.04,-8.95 -0.47,-12.13 -0.21,-1.28 -0.59,-2.3 -0.79,-3.42l-0.43 -1.68c-0.13,-0.58 -0.44,-1.05 -0.61,-1.62l-1 -2.81c-0.36,-0.69 -0.58,-1.46 -0.98,-2.11 -0.24,-0.39 -0.33,-0.19 -0.39,-0.78l1.63 1.44c0.56,0.64 1.15,1.24 1.65,1.95 0.19,0.27 0.3,0.38 0.47,0.63 0.18,0.27 0.27,0.3 0.49,0.6 0.16,0.22 0.31,0.4 0.47,0.63 0.18,0.26 0.28,0.41 0.45,0.65l1.72 2.66c0.16,0.28 0.26,0.42 0.41,0.67 0.91,1.49 1.92,4.05 2.55,5.73 0.07,0.2 0.04,0.11 0.09,0.2l0.85 2.74c0.34,1.2 0.47,2.39 0.68,3.69 0.12,0.72 -0.02,1.53 0.25,2.01 0.69,-0.18 2.24,-2.27 2.69,-2.83l1.16 -1.62c1.62,-2.48 2.65,-4.99 3.19,-7.95 0.06,-0.36 0.12,-0.8 0.2,-1.19 0.09,-0.4 0.06,-0.96 0.31,-1.22 0.69,0.84 0.9,3.29 0.95,4.29 0.19,3.89 -0.02,5.24 -0.84,8.66 -0.07,0.31 -0.08,0.23 -0.17,0.52l-0.66 1.93c-0.17,0.47 -0.71,1.44 -0.75,1.83 0.58,0.3 2.69,0.6 3.54,0.72l2.35 0.6c0.3,0.06 0.27,0.05 0.5,0.12 0.41,0.14 0.86,0.12 1.21,0.3 0.4,0.21 0.81,0.25 1.26,0.42l0.27 0.12c0.13,0.05 0.32,0.09 0.45,0.13 0.66,0.16 0.95,0.34 1.56,0.55 0.58,0.2 1.05,0.32 1.56,0.65 0.17,-0.07 0.37,-0.18 0.73,-0.15 0.3,0.03 0.02,0.02 0.36,0.04 0.55,0.04 0.95,0.65 1.24,0.66l0.15 -0.02c0.01,0.03 0.04,0.03 0.04,0.08 0,0.04 0.03,0.06 0.03,0.08 0.03,0.13 0.02,0.12 0.03,0.25l0.5 -0.02c0.25,0.09 -0.08,-0.02 0.17,0.11 0.3,0.15 0.38,0.1 0.53,0.3 0.05,0.07 0.04,0.11 0.09,0.19 0.18,-0.17 -0.37,-0.03 0.16,-0.08 0.46,-0.04 2.15,1.04 2.54,1.36l4.6 4.37c0.18,0.23 0.35,0.41 0.55,0.64l0.94 1.25c0.02,0.02 0.08,0.08 0.1,0.1 0.24,0.27 0.24,0.39 0.49,0.7 0.55,0.68 0.96,1.42 1.36,2.23l0.85 1.54c0.26,0.56 0.51,1.06 0.75,1.64l1.13 3.66c0.24,0.67 0.3,1.81 0.56,2.42l0.2 0.39c0.19,0.37 0.11,0.56 0.33,0.86 0.36,0.52 0.39,1.23 0.72,1.73 0.3,-0.65 0.46,-1.45 0.74,-2.1l0.68 -3.25c0.23,-2.09 0.34,-4.44 0.08,-6.58 -0.33,-2.77 -1.26,-5.58 -2.26,-8.1 -0.28,-0.72 -1,-1.83 -1.15,-2.34 0.24,0.04 2.05,1.27 2.41,1.49 0.88,0.53 1.55,0.99 2.42,1.57l2.27 1.6c0.69,0.51 1.47,1.4 2.34,1.68l0.13 -0.09c0.2,0.31 0.09,0.23 0.42,0.36 0.05,-0.47 0.06,-1.13 -0.26,-1.5 0.04,0.19 0.11,0.44 0.13,0.63 0.04,0.45 -0.04,0.48 -0.15,0.6 -0.09,-0.37 -2.16,-3.73 -2.62,-4.24 -0.41,-0.46 -0.79,-0.75 -1.2,-1.2 -1.09,-1.21 -2.2,-2.58 -3.44,-3.54 -2.48,-1.93 -4.27,-3.09 -7.12,-4.52 -2.59,-1.29 -3.86,-1.94 -7.36,-2.02l0.99 -1.95c0.33,-0.74 0.63,-1.32 0.96,-2.03 0.67,-1.47 1.32,-2.64 1.85,-4.24 0.5,-1.5 1.63,-5.54 1.89,-7.17 0.15,-0.93 0.12,-1.91 0.26,-2.86 -0.3,0.2 -3.85,4.68 -3.98,4.85l-2 2.39c-0.64,0.76 -1.32,1.68 -2,2.48 -0.89,1.03 -0.78,1.66 -1.25,3.14 -0.38,1.19 -0.64,2.2 -1.11,3.37 -1.2,2.93 -1.48,3.07 -3.03,5.22 -0.29,0.4 0.09,0.14 -0.43,0.3 0.04,-0.31 0.06,-0.48 0.13,-0.85l0.75 -2.23c0.11,-0.6 0.18,-1.18 0.28,-1.72 0.06,-0.32 0.04,-0.62 0.08,-0.94 0.04,-0.29 0.17,-0.51 0.22,-0.87 -0.16,0.04 -0.41,-1.88 -0.53,-2.43 -0.56,-2.49 -2.09,-6.08 -3.39,-8.3l-2.77 -4.21c-0.39,-0.5 -0.98,-1.25 -1.44,-1.76 -1.08,-1.21 -3.57,-3.39 -4.93,-4.34l-1.86 -1.33c-2.1,-1.42 -5.9,-3.17 -8.41,-4.04 -6.12,-2.12 -14.13,-3.34 -20.77,-4.13 -2.41,-0.29 -8.21,-1.32 -10.52,-1.93 -1.74,-0.46 -3.06,-1.07 -4.62,-1.63 -1.76,-0.62 -3.5,-0.39 -5.3,-0.89l1.53 -0.16c-1.29,-0.1 -2.62,0.07 -3.9,-0.06 -1.13,-0.11 -2.58,-0.13 -3.72,-0.13 0.12,0.22 0.59,0.54 0.8,0.71 0.77,0.62 1.56,1.4 2.54,2.03l1.12 0.78c0.97,0.66 1.85,0.68 3,0.52 1.5,-0.21 6.6,0.12 7.96,0.32 1.06,0.15 1.86,0.33 2.84,0.57 2.13,0.54 2.4,0.71 4.29,1.49l0.63 0.28c0.41,0.21 0.78,0.32 1.16,0.53 0.39,0.21 0.71,0.4 1.09,0.59 2.6,1.36 7.71,4.87 9.84,7.11 0.49,0.51 1.25,1.27 1.45,1.97 -0.49,-0.07 -1.4,-0.96 -1.93,-1.38 -3.29,-2.61 -6.55,-4.75 -10.65,-6 -1.54,-0.47 -3.55,-1.07 -5.3,-1.4z"/>
   <path class="fil2" d="M94.35 111.25c0.18,0.11 0.2,-0.15 0.12,0.2 -0.26,0.13 -0.4,0.27 -0.63,0.47 -0.66,0.56 -0.43,1.29 -3.62,2.35 -0.61,0.2 -1.27,0.29 -1.92,0.49 -1.09,0.33 -0.19,0.22 -1.86,0.53 -0.73,0.13 -1.38,0.19 -2.22,0.2 -1.45,0.01 -5.74,-0.18 -7.14,-0.86 -0.47,-0.23 0.01,0.08 -0.6,-0.1 -0.45,-0.13 -0.13,-0.1 -0.39,-0.2 -0.37,-0.14 -1.05,-0.22 -1.77,-0.64l-0.94 -0.48c-0.02,-0.01 -0.09,-0.03 -0.12,-0.05 -0.14,-0.07 -0.26,-0.16 -0.37,-0.23l-1.55 -0.84c-0.64,-0.34 -1.42,-1.08 -1.79,-1.51l-0.1 -0.11c-0.02,-0.02 -0.04,-0.04 -0.05,-0.05 -0.58,-0.64 0.41,-0.05 -1.08,-1.1 -0.71,-0.5 -0.54,-0.33 -0.53,-0.67 -0.11,-0.34 -0.66,-0.7 0.46,-1.53 1.4,-1.03 1.81,0.4 4.8,1.94 5.07,2.61 10.58,3.46 16.28,1.73 2.69,-0.82 4.06,-2.8 5.16,-1.36 0.56,0.74 0.21,1.32 -0.14,1.81zm-55.41 -10.53c0.61,-0.02 0.94,0.38 1.6,1.04 0.23,0.23 0.43,0.42 0.67,0.62 0.02,0.01 0.04,0.03 0.05,0.05 0.02,0.01 0.04,0.03 0.05,0.05l3.9 2.79c0.31,0.17 0.49,0.32 0.82,0.46l5.07 1.81c0.65,0.18 1.64,0.43 2.32,0.45 -0.83,0.72 -0.88,0.78 -2.04,1.3 -1.7,0.77 -3.79,1.3 -5.67,0.81 -3.13,-0.81 -3.31,-0.79 -5.44,-3.01 -0.42,-0.44 -0.7,-0.97 -1.02,-1.47 -0.38,-0.6 -0.56,-1.16 -0.67,-1.89 -0.2,-1.28 0.15,-2.05 0.35,-3.01zm44.4 -2.41c-0.56,-1.52 2.73,-0.9 4.36,-0.93 1.25,-0.02 1.7,-0.26 2.3,0.52 1.17,1.55 -1.15,2.73 -1.72,3.17 -0.28,0.22 -0.45,0.48 -1.02,0.27 -0.27,-0.1 -0.6,-0.42 -0.82,-0.58l-2.49 -1.7c-0.21,-0.17 -0.51,-0.51 -0.61,-0.76zm-74.8 -3.39c-0.44,-0.85 0.72,-2.85 1.1,-3.28 0.75,-0.86 1.82,-1.38 3.39,-1.29 2.51,0.14 4.94,1.95 6.08,3.17 0.17,0.18 0.36,0.41 0.5,0.6l1.29 2.19c0.22,0.64 0.19,2.89 0.39,4.29 0.22,1.54 0.83,2 1.83,2.75 0.79,0.59 2.41,1.37 1.48,2.65 -0.51,0.7 -2.13,1.27 -3.41,1.19 -1.08,-0.07 -2.77,-0.6 -3.67,-1.02 -1.86,-0.88 -3.44,-3.1 -3.49,-5.76 -0.05,-2.66 1.24,-3.92 1.51,-4.71 0.29,-0.85 -0.16,-1.26 -0.9,-1.77l-1.46 -0.83c-1.35,-0.49 -2.36,-0.27 -3.42,0.65 -0.78,0.68 -0.68,1.11 -1.2,1.18zm26.55 19.3l0.08 -0.41c-0.37,-0.1 -0.1,0.04 -0.35,-0.26l-1.11 -1.37c-0.09,-0.16 -0.14,-0.25 -0.23,-0.38 -0.09,-0.12 -0.17,-0.18 -0.24,-0.33 -0.07,-0.14 -0.05,-0.16 -0.05,-0.17l-0.15 -0.15c-0.27,-0.19 -0.33,-0.37 -0.77,-0.84 -0.63,-0.67 -0.68,-0.7 -1.1,-1.49l-0.3 -0.37c0.59,-0.66 0.92,-1.96 1.25,-2.14 0.53,0.21 0.9,1 1.19,1.44l0.2 0.3c0.11,0.15 0.24,0.29 0.35,0.44l2.98 3.9c0.33,0.37 0.59,0.5 0.96,1.01l1.57 1.62c0.02,0.02 0.07,0.09 0.09,0.11l1.62 1.48c0.32,0.32 0.55,0.45 0.84,0.74 0.93,0.93 2.09,1.7 3.15,2.45 0.02,0.01 0.04,0.03 0.06,0.04 0.22,0.15 0.23,0.16 0.46,0.33 1.13,0.87 1.74,1.21 2.92,1.97l2.12 1.27c0.03,0.02 0.1,0.06 0.13,0.07l3.98 2.1c0.8,0.37 1.51,0.73 2.28,1.02 1.2,0.45 3.66,1.41 4.84,1.64 -0.06,0.08 -0.07,0.1 -0.13,0.17 -0.02,0.02 -0.07,0.09 -0.09,0.11l-0.09 0.11c0.02,0.47 -0.03,0.06 0.17,0.23 1.87,-2.35 3.54,-4.06 6.61,-5.7 3,-1.6 5.82,-2.54 9.89,-2.5 3.87,0.04 6.61,1.67 9.06,3.33 4.7,3.17 5.2,5.96 5.78,6.67 0.65,-0.05 1.68,-0.32 2.3,-0.48 0.4,-0.1 1.84,-0.57 2.11,-0.56 0.01,-0.02 0.02,-0.08 0.01,-0.06l-0.07 -0.14c-0.01,-0.02 -0.05,-0.05 -0.08,-0.07 -0.61,0.06 -2.17,0.76 -3.78,1.03l-0.22 -0.35c-0.11,-0.32 0.32,0 -0.16,-0.32 0.39,-0.04 0.86,-0.22 1.22,-0.37 1.91,-0.84 5.79,-1.8 8.41,-2.83 1.6,-0.63 5.09,-2.29 6.53,-3.15 0.65,-0.39 1.35,-0.85 2.11,-1.13l-0.13 0.23c-0.4,0.6 -0.72,0.8 -1.41,1.16l-4.01 2.16c-0.31,0.19 -0.6,0.37 -0.95,0.54l-0.81 0.39c-0.21,0.21 -0.1,-0.07 -0.14,0.27 0.61,-0.17 1.55,-0.73 2.15,-1.05l4.17 -2.3c0.6,-0.35 1.65,-1 1.95,-1.38l1.74 -1.59c0.58,-0.58 1.35,-1 1.51,-1.54 0,-0.01 0.01,-0.04 0.01,-0.06 0.14,-0.55 -0.12,0.25 0.02,-0.14 0.49,-0.13 0.62,-0.33 1.04,-0.66 0.67,-0.51 -0.12,-0.23 0.88,-1.21l0.22 -0.27c0.36,-0.44 0.54,-0.41 0.77,-0.82 0.01,-0.02 0.03,-0.05 0.04,-0.07 0,-0 0.08,-0.2 0.09,-0.21 0.13,-0.38 -0.03,-0.54 0.18,-0.81 0.1,-0.13 0.47,-0.18 0.55,-0.96 0.01,-0.15 -0.05,-0.2 0.04,-0.53l0.29 -0.52c0.35,-0.59 0,-0.3 0.39,-0.61l0.92 -1.17c0.04,-0.07 0.08,-0.12 0.15,-0.24 0.31,-0.61 0.26,-0.89 0.59,-1.16 0.26,-0.21 0.8,-1.71 0.8,-2.13 0,-0.21 0,-0.14 0.02,-0.31 0.06,-0.49 0.13,-0.94 0.22,-1.36 0.09,-0.44 0.07,-0.99 0.2,-1.39 0.21,-0.65 0.11,-0.67 0.16,-1.35 -0.56,0.17 -0.1,-0.02 -0.52,0.32 -0.18,0.14 -0.14,0.15 -0.43,0.18 -0.35,0.31 -0.53,0.52 -0.86,0.81 -0.18,0.16 -0.7,0.57 -0.81,0.71 -0,0.03 -0,0.05 -0,0.09 -0,0.04 -0,0.07 -0,0.09 -0.05,0.63 0.11,-0.47 -0.01,0.15l-0.03 0.12c-0.01,0.02 -0.11,0.15 -0.12,0.16l0.38 0.31c-0.05,0.42 -0.21,0.38 -0,0.77 -0.33,0.09 -0.15,0.04 -0.35,0.23 -0.38,0.34 -0.47,-0.03 -0.95,0.65 -0.35,0.5 -0.67,0.96 -1.09,1.41l-1.4 1.09c-0.67,0.38 -1.47,0.96 -2.5,1.18 -0.42,0.09 -0.68,0.19 -1.06,0.21 -1.03,0.07 -1.24,0.01 -2.19,-0.1 -0.54,-0.06 -2.95,-0.95 -3.08,-1.16 -0.13,-0.22 -0.08,0.06 0.02,-0.1 0.01,-0.02 0.07,-0.08 0.08,-0.1l-0.6 -0.25c0.02,0 0.05,-0.03 0.06,-0.01 0.01,0.03 0.09,-0.04 0.14,-0.05l6.33 -0.78 3.01 -1.79c-0.57,0.14 -1.64,0.8 -2.38,1.07 -0.87,0.31 -1.76,0.55 -2.76,0.75 -4.39,0.88 -7.72,0.14 -11.67,-1.56 -1.71,-0.74 -4.92,-3.07 -6.08,-4.47 -0.7,-0.84 -0.44,-0.26 -1.56,-1.92 -2.1,-3.11 -3.43,-5.96 -4.28,-9.77 -0.7,-3.11 -0.33,-3.96 -0.56,-6.51 -3.5,-2.18 -6.87,-2.4 -10.42,-0.32 -0.56,6.1 -1.17,8.21 -4.36,13.48 -0.8,1.33 -1.78,2.34 -2.67,3.3 -0.78,0.84 -2.14,1.98 -3.28,2.69 -1.52,0.95 -2.27,1.32 -3.9,2.06 -3.13,1.42 -6.51,1.8 -10.29,1.47 -4.48,-0.38 -8.99,-2.99 -12.08,-5.74 -0.76,-0.68 -1.46,-1.58 -2.14,-2.34 -0.2,-0.23 -0.49,-0.54 -0.69,-0.81 -0.88,-1.19 -1.55,-2.18 -2.33,-3.64 -2.59,-4.84 -3.4,-8.66 -3.66,-14.28l-2.25 0.19c-0.3,0.12 -0.06,-0.02 -0.22,0.21 -0.11,0.14 -0.66,12.42 -0.89,13.94 -0.1,0.68 -0.3,2.6 -0.64,3 -0.29,0.35 -2.28,0.98 -2.93,0.75 -1.21,-0.42 -3.5,-8.48 -4.47,-10.37 -2.36,-4.61 -7.62,-6.65 -11.85,-3.07 -3.83,3.24 -4.81,8.78 -3.68,14.06 0.59,2.78 2.72,7.13 4.76,9.15 3.1,3.07 6.02,4.86 10.81,5.03 3.84,0.14 6.67,-1.39 9.09,-3.97 0.57,-0.61 0.52,-0.82 0.97,-0.92 0.47,0.6 0.42,0.84 0.98,1.41 0.79,0.8 1.53,1.86 2.23,2.75 0.41,0.52 0.77,0.84 1.14,1.3z"/>
   <path class="fil2" d="M104.14 61.14c2.58,-0.34 5.28,-0.01 7.53,0.74 1.32,0.44 3.13,1.27 4.21,2.08 0.42,0.32 0.78,0.54 1.16,0.93 0.22,0.22 0.28,0.37 0.49,0.6 1.34,1.47 1.71,3.52 0.64,3.46 -0.5,-0.03 -2.22,-2.24 -7.62,-2.87 -7.73,-0.9 -12.25,2.76 -14.61,1.38 -0.77,-0.45 -1.63,-1.62 -0.96,-2.88 1.17,-2.19 6.83,-3.14 9.15,-3.44zm-13.03 -13.02c-0.15,0.09 -0.75,0.1 -1.11,0.21 -1.08,0.34 -2.53,0.32 -3.7,0.33 -3.91,0.03 -6.35,0.11 -10.25,0.51 -4.33,0.45 -11.33,3.94 -14.88,6.59l-2.94 2.35c2.14,0.69 2.74,0.77 4.99,1.63 1.68,0.64 3.24,1.22 4.45,2.13 2.37,1.78 0.45,5.83 -3.25,3.85l-4.77 -1.91c-2.22,-0.69 -6.37,-1.3 -8.61,-1.2 -6.82,0.31 -10.69,4.6 -10.49,1.95 0.11,-1.44 1.33,-2.12 2.18,-3.04 2.06,-2.23 5.74,-2.84 6.84,-3.64l-0.07 -0.41 -0.13 -1.56 -0.1 -2.13c-0.89,0.55 -2.03,1.31 -3.13,1.8 -2.88,1.29 -7.39,3.18 -10.37,4.16 -0.88,0.29 -1,0.38 -1.21,1.28 -0.18,0.74 -0.36,1.18 -0.52,1.86 -0.16,0.67 -0.38,1.19 -0.56,1.84 -0.17,0.63 -0.28,1.25 -0.46,1.93l-1.33 5.94c-0.22,1.14 -0,1.1 -1.17,1.22 -0.01,-0.5 0.05,-1 0.06,-1.5 0.01,-0.31 0.06,-0.91 -0.03,-1.18 -0.13,-0.35 0.24,-0.05 -0.16,-0.23l-0.24 3.31c0.96,-0.16 2.83,-0.24 3.3,-0.88 0.86,-1.16 1.31,-1.92 2.31,-2.87 4.6,-4.38 13.44,-4.98 19.41,-4.18 2.56,0.34 4.58,0.77 6.91,1.46 1.14,0.33 2.12,0.64 3.1,1.09l2.85 1.33c0.91,0.44 1.84,1.05 2.62,1.57 1.65,1.09 3.05,2.57 4.25,4.13 0.96,1.24 0.94,1.49 1.64,2.61 0.77,0.01 2.26,-0.41 3.1,-0.56 5.41,-0.96 7.6,0.95 9.76,1.05 0.12,-0.15 0.19,-0.2 0.32,-0.36 0.93,-1.12 0.48,-0.99 2.41,-2.96 5.67,-5.82 15.43,-7.46 23.47,-6.42 2.51,0.32 4.76,1.09 7.01,2.13 0.68,0.31 1.52,0.86 2.04,1.06 -0.03,-0.75 -0.42,-0.05 -0.65,-1.03 -0.09,-0.39 -0.19,-1.02 -0.26,-1.47 -0.15,-0.91 -0.48,-1.68 -0.72,-2.66 -0.33,-1.36 -1.21,-3.58 -1.76,-4.9 -0.33,-0.78 -1.48,-3.24 -1.98,-3.91 -0.6,-0.8 -1.35,-1.49 -1.99,-2.19 -0.3,-0.33 -0.57,-0.51 -0.89,-0.8 -0.78,-0.71 -0.49,-0.65 -0.89,-0.5 -0.01,-0.5 -0.15,-0.5 -0.46,-0.74 -0.71,-0.57 -0.64,-0.65 -1.79,-1.49 -1.55,-1.13 -2.65,-1.69 -4.16,-2.61 -0.33,-0.2 -0.37,-0.38 -0.63,-0.5 -0.47,-0.22 -0.86,-0.01 -1.41,-0.28 -0.02,-0.01 -0.04,-0.02 -0.06,-0.03l-0.13 -0.07c-0.06,-0.03 -2.53,-0.66 -2.76,-0.52 0.6,0 0.88,0.11 1.37,0.21 0.2,0.04 0.43,0.1 0.66,0.14 0.79,0.14 0.67,-0.1 0.72,-0.22 -0.92,-0.11 -1.96,-0.42 -2.87,-0.57 -2.34,-0.38 -4.38,-0.49 -6.73,-0.49 -0.86,0 -2.88,0.17 -3.57,-0.01l-1.31 0.14c-0.46,0.03 -0.89,0.08 -1.26,0.18z"/>
   <path class="fil3" d="M132.17 150.79c-0.07,0.24 0.05,0.21 -0.41,0.16 -0.56,-0.06 -2.06,-1.27 -2.5,-2.19 -0.3,-0.63 -0.43,-1.32 -0.39,-2.17 0.05,-0.98 0.57,-2.16 0.91,-3.05 0.11,-0.29 0.33,-0.47 0.53,-0.73 0.9,-1.17 1.43,-1.39 3.36,-0.07 0.77,0.53 1.34,0.71 1.39,1.3 -0.11,0.26 -0.83,0.96 -1.08,1.25 -0.36,0.43 -0.73,0.97 -0.98,1.5 -0.42,0.87 -0.85,2.82 -0.84,3.99zm14.77 -17.52l0.02 0.17c0,0.01 0,0.04 0,0.05 -0,0.01 -0,0.04 -0,0.04 -0.01,0.04 -0.08,0.13 -0.11,0.19 0.34,-0.13 0.16,-0.05 0.27,0.03l-0.17 0.27 0.56 -0.28c0.22,-0.15 0.32,-0.21 0.55,-0.34 0.44,-0.25 0.74,-0.42 1.19,-0.7 3.09,-1.93 9.22,-4.36 12.76,-5.67 1.73,-0.64 3.64,-1.47 5.35,-2.02 -0.63,1.9 -0.46,3.87 0.77,5.08l-7.52 3.22c-2.53,1.1 -5.06,2.15 -7.61,3.24 -2.51,1.07 -5,2.21 -7.49,3.26 -1.27,0.53 -2.41,1.09 -3.72,1.66l-3.8 1.56c-0.4,-0.2 -0.42,-0.3 -0.69,-0.51l-1.82 -1.27c-0.89,-0.54 -1.66,-1.06 -2.57,-1.62 -0.9,-0.56 -1.69,-1.06 -2.54,-1.64 -2.57,-1.72 -5.05,-3.21 -7.71,-4.84l-3.84 -2.44c-0.42,-0.27 -0.79,-0.48 -1.24,-0.82 0.23,-0.76 2.05,-1.91 2.82,-2.42 3.97,-2.59 6.5,-2.05 10.34,-3.91 0.44,-0.21 0.4,-0.29 0.77,-0.53 0.42,-0.79 2.64,-2.76 3.42,-3.44 2.61,-2.29 5.55,-3.75 8.92,-4.91 1.08,-0.37 4.71,-1.3 5.85,-0.9 1.46,0.51 3.18,1.53 4.65,2.23 0.93,0.44 12.86,6.66 13.67,7.22 -0.26,0.19 -4.58,1.47 -5.79,1.96 -4.93,1.99 -5.92,2.31 -10.65,4.97 -0.85,0.48 -4.34,2.66 -4.64,3.14zm-9.61 20.38c0.18,0.94 0.77,4.32 1.93,2.89 0.31,-0.38 0.55,-0.64 0.84,-1.05 0.7,-1.01 0.63,-1.6 2.32,-1.19 0.85,0.21 2.32,0.79 3.11,0.75 0.06,-1.07 -1.87,-4.16 -2.33,-4.77 0.22,-0.34 5.87,-2.74 6.75,-3.16 0.74,-0.35 1.54,-0.65 2.29,-1 2.98,-1.4 6.07,-2.74 9.06,-4.08 3.06,-1.36 6.07,-2.75 9.12,-4.03 1.72,-0.72 3.09,-1.23 3.72,-2.87 0.81,-2.11 -0.24,-4.05 -1.33,-4.97 -1.19,-1.01 -3.35,-1.94 -2.77,-3.61 0.34,-0.98 1.07,-1.06 1.59,-1.69 0.55,-0.67 0.81,-1.65 0.19,-2.48 -1.05,-1.42 -14.44,-8.39 -16.83,-9.46 -4.36,-1.94 -4.56,-3.05 -10.34,-1.71 -5.3,1.23 -9.98,4.14 -13.5,7.83 -0.24,0.25 -0.58,0.52 -0.84,0.85 -2.38,3.13 -2.65,2.02 -6.58,3.26 -2.08,0.65 -5.08,1.85 -6.53,3.34 -1.31,1.35 -4.74,1.26 -6.24,3.72 -0.84,1.39 -0.69,3.99 -0.74,5.8 -0.14,4.67 0.07,4.35 3.3,6.53 1.3,0.88 2.92,1.7 4.09,2.48 1.93,1.29 3.97,2.38 6.08,3.78 1.28,0.86 2.73,1.68 4.07,2.5 1.38,0.85 2.67,1.73 4.04,2.53 0.8,0.47 1.7,0.6 2.79,0.58 1.49,-0.03 1.73,-0.29 2.73,-0.8z"/>
   <path class="fil2" d="M71.29 144.68c-0.89,-0.82 0.48,-1.51 1.05,-1.77 0.76,-0.35 1.69,-0.66 2.08,0.21 -0.28,0.64 -2.22,1.59 -3.14,1.56zm1.43 -5.87l-2.07 1.08c-0.39,0.19 -2.48,0.98 -1.53,-0.31 0.64,-0.87 1.92,-1.85 3.11,-1.6 0.21,0.04 0.43,0.15 0.52,0.28 0.11,0.17 0.13,0.38 -0.03,0.56zm-15.84 10.4l-1.72 5.14c0.47,0.33 2.45,1.06 3.14,1.33 2.11,0.83 8.35,2.88 10.26,3.03 0.94,0.06 1.81,0.03 2.6,-0.28 0.52,-0.21 1.51,-0.68 1.8,-1.03 -0.17,-0.1 -1.01,0.53 -1.28,0.67 -1.34,0.65 -2.4,0.55 -3.8,0.29 -0.39,-0.07 -1.6,-0.33 -1.87,-0.45 0.65,-0.18 1.07,0.36 1.48,0.14l-0.43 -0.18c-0.19,-0.09 0.14,0.07 -0.14,-0.07 -0.03,-0.02 -0.12,-0.07 -0.2,-0.11l-0.31 -0.09c-0.23,-0.03 -0.15,0.06 -0.4,-0.05 0.34,-0.12 0.15,-0.16 0.56,-0.29 0.54,-0.18 1.07,-0.18 2.35,-0.65 2.89,-1.07 4.02,-2.11 6.56,-3.4 0.83,-0.42 0.97,-0.38 1.4,-0.11l-0.21 0.19c-0.01,0.01 -0.03,0.04 -0.05,0.05l-0.49 0.62c-0.32,0.43 -0.56,0.85 -0.99,1.19 0.12,0.17 -0.03,0.05 0.2,0.1 0.37,-0.51 1.47,-1.82 2.01,-2.27 1.64,-1.38 2.57,-0.33 3.26,-0.11 -0.16,0.44 0.11,0.2 -0.42,0.5 -0.36,0.2 -0.68,0.22 -1.35,0.71 -0.16,0.39 -0.1,0.1 0.15,0.23 0.09,-0.1 0.08,-0.11 0.25,-0.21l0.95 -0.46c-0.16,0.32 -0.15,0.13 -0.27,0.21 -0.39,0.25 -0.19,-0.11 -0.32,0.36 1.12,0.41 4.15,0.53 5.51,0.28 0.16,-0.03 0.14,-0.05 0.28,-0.04l0.33 0.14c0.29,-0.74 1.07,-1.44 0.88,-3.6 -0.22,-2.41 -1.4,-4.45 -2.8,-6.16 -0.35,-0.43 -1.41,-1.28 -1.38,-2.01 0.01,-0.3 0.2,-0.62 0.41,-0.81 1.57,0.11 3.98,2.4 4.83,3.55 1.36,1.84 1.84,3.85 1.86,6.58 1.87,-0.26 2.84,-2.65 3.24,-4.24 0.57,-2.27 -0.14,-4.43 -1.15,-6 -1.36,-2.09 -4.33,-3.56 -6.65,-4.69 -0.53,-0.26 -1.7,-0.78 -2.09,-1.22 -0.02,-0.02 -0.03,-0.04 -0.05,-0.06l-0.15 -0.23 -0.04 0.28c-0.67,-0.37 -1.39,0.4 -1.49,0.4 -0.2,-0.07 -0.18,-0.08 -0.38,-0.18 -0.03,-0.01 -0.18,-0.09 -0.21,-0.1l-0.8 -0.37c-0.56,-0.3 -0.57,-0.03 -1.26,-0.44 -0.34,-0.21 -0.58,-0.25 -0.98,-0.42 -0.81,-0.36 -1.18,-0.63 -2.22,-1.07 -0.84,-0.35 -0.11,-0.2 -0.73,-0.52l-0.35 -0.22 -0.01 -0.6 0.45 -0.49c-0.02,0.55 -0.11,0.25 0.19,0.43 -0.17,-0.9 1.26,-1.24 1.98,-1.34 0.39,-0.26 1.06,-0.18 1.52,-0.31l-0.83 -0.25c-0.16,-0.04 -0.05,0.04 -0.14,-0.03 0.57,-0.33 0.49,-0.51 1.35,-0.53 1.82,-0.04 3.04,-0.52 5.22,0.49 0.99,0.46 1.68,0.84 2.69,1.29 1.06,0.47 1.86,-0.2 2.39,0.31 0.22,0.21 -0.1,0.08 0.46,0.4 0.57,-0.45 0.28,-0.53 0.56,-0.59 -0.11,-0.48 -0.58,-0.76 -0.94,-1.09 -0.92,-0.87 -2.43,-2.49 -3.21,-2.95 -0.46,-0.27 -0.84,-0.46 -1.25,-0.74 -1.66,-1.14 -1.35,-1.29 -4.09,-2.17 -1.33,-0.43 -2.05,-0.47 -3.61,-0.44 -1.71,0.03 -4.91,0.89 -6.36,1.86 -1.69,1.12 -3.19,1.63 -3.4,1.78 -0.76,0.53 -0.93,0.86 -1.49,1.58 -1.72,2.21 -1.96,1.78 -3.01,5.27 -0.31,1.04 -0.69,2.07 -1.03,3.13 -0.79,2.45 -1.16,3.7 -2.11,6.17 -0.41,1.08 -0.69,2.01 -1.09,2.98l-0.99 2.13c-0.24,0.4 -0.46,0.53 -0.31,-0.08l-0.27 -0.05z"/>
   <path class="fil4" d="M155.09 120.66c1.19,-0.22 2.21,0.72 0.78,1.31 -0.82,0.34 -1.63,0.59 -2.42,0.97 -2.81,1.35 -4.08,1.95 -6.73,3.52 -0.64,0.38 -1.4,0.89 -2.04,1.35 -0.66,0.48 -1.23,0.98 -1.88,1.5 -0.65,0.5 -1.18,1.06 -1.87,1.52 -1.19,0.78 -1.74,-0.44 -0.86,-1.37 3.25,-3.42 10.49,-7.98 15.03,-8.81zm-4.45 -2.76c0.41,-0.11 1,-0.24 1.45,-0.07 0.47,0.17 0.54,0.68 0.21,0.98 -0.27,0.25 -1.78,0.62 -2.28,0.82 -0.69,0.28 -1.44,0.67 -2.08,1 -0.72,0.39 -1.33,0.69 -2,1.09l-3.91 2.36c-0.64,0.38 -1.21,0.76 -1.88,1.2 -0.64,0.42 -1.26,0.79 -1.89,1.2 -1.52,0.98 -1.78,-0.17 -1.46,-0.66 0.14,-0.21 1.39,-1.1 1.72,-1.37 3.23,-2.65 7.9,-5.4 12.11,-6.55zm-19.11 5.12l-0.05 0.41c1.74,1.17 3.78,6.87 4.28,8.77 0.44,1.66 2.27,9.53 2.23,10.8l3.8 -1.56c1.31,-0.57 2.45,-1.13 3.72,-1.66 2.5,-1.04 4.98,-2.19 7.49,-3.26 2.56,-1.09 5.08,-2.14 7.61,-3.24l7.52 -3.22c-1.23,-1.21 -1.39,-3.18 -0.77,-5.08 -1.72,0.55 -3.62,1.38 -5.35,2.02 -3.54,1.31 -9.67,3.74 -12.76,5.67 -0.44,0.28 -0.75,0.45 -1.19,0.7 -0.23,0.13 -0.33,0.19 -0.55,0.34l-0.56 0.28c-0.1,0.14 -0.01,0.08 -0.22,0.23 -0.01,0.01 -0.25,0.12 -0.29,0.14 -0.71,0.61 -1.82,1.25 -2.89,2.25l-2.73 2.5c0.35,-0.89 2.55,-3.05 3.37,-3.75 0.39,-0.34 0.84,-0.85 1.27,-0.98 0.18,-0.39 0.31,-0.36 0.68,-0.65 0.35,-0.27 0.35,-0.32 0.78,-0.5 0.31,-0.47 3.8,-2.66 4.64,-3.14 4.73,-2.67 5.72,-2.98 10.65,-4.97 1.21,-0.49 5.53,-1.76 5.79,-1.96 -0.81,-0.55 -12.75,-6.78 -13.67,-7.22 -1.47,-0.69 -3.19,-1.71 -4.65,-2.23 -1.14,-0.4 -4.77,0.53 -5.85,0.9 -3.37,1.16 -6.31,2.62 -8.92,4.91 -0.78,0.68 -3,2.65 -3.42,3.44z"/>
   <path class="fil0" d="M59.68 77.91c1.28,-0.4 2.32,0.61 2.59,1.61 0.35,1.31 -0.67,2.57 -1.62,2.78 -2.62,0.57 -4.04,-3.43 -0.97,-4.39zm-15.97 2.98c0.8,-0.88 5.74,-3.8 7.23,-4 -0.58,1.06 -0.89,2.53 -1.13,2.77 -0.02,1.14 -0.72,1.94 -0.61,5.21 0.15,4.47 2.53,9.53 6.55,11.35 3.44,1.56 6.71,0.34 8.8,-1.75 2.01,-2.01 3.28,-4.59 3.66,-8.21 0.11,-3.16 -0.05,-2.69 -0.52,-5.3 0.23,0.13 2.35,2.58 2.54,3.44 0.46,-0.27 -0.07,0.46 0.15,-0.24 0.09,-0.3 -0.01,-0.89 -0.06,-1.19 -0.46,-2.45 -2.48,-5.71 -4.08,-7.29 -1.15,-1.12 -2.05,-1.91 -3.75,-2.71 -1.55,-0.73 -3.04,-1.3 -5,-1.5 -4.45,-0.45 -9.3,1.3 -12.17,3.84 -0.87,0.77 -4.47,4.2 -4.79,4.99 1.01,0.45 1.84,0.92 3.2,0.59z"/>
   <path class="fil3" d="M155.5 88.25c1.29,-0.1 4.95,0.64 6.45,0.83 2.03,0.26 4.32,0.58 6.29,0.98l-1.57 11.46c-1.13,0.03 -1.92,-0.54 -4.14,0.11 -1.26,0.37 -2.2,1.02 -2.95,1.73 -0.73,0.69 -1.47,1.9 -1.3,3.41 0.33,2.87 5.15,4.97 9.38,2.29 2.46,-1.56 2.3,-4.05 2.67,-6.78 0.37,-2.77 0.76,-5.48 1.12,-8.25 0.35,-2.69 0.89,-5.6 1.15,-8.31 0.16,-1.62 -0.47,-2.45 -1.88,-2.75 -1.27,-0.26 -2.73,-0.39 -4.04,-0.61 -1.29,-0.22 -11.4,-1.9 -12.26,-1.86 -0.67,0.03 -1.18,0.44 -1.46,0.81 -0.64,0.84 -1.53,8.8 -1.7,10.12 -0.18,1.38 -0.47,2.76 -0.61,4.08 -0.03,0.32 -0.04,0.72 -0.09,1.03 -0.03,0.2 -0.08,0.82 -0.27,0.93 -0.12,0.07 -1.88,-0.14 -2.25,-0.13 -6.27,0.16 -8.9,7.75 -2.46,9.01 2.81,0.55 5.82,-0.8 6.91,-2.31 0.93,-1.28 1,-1.58 1.23,-3.45 0.37,-3.01 1.29,-9.87 1.78,-12.36z"/>
   <path class="fil0" d="M107.26 79.99c2.85,-0.62 3.5,3.95 0.81,4.42 -1.29,0.23 -2.44,-0.74 -2.64,-1.75 -0.31,-1.5 0.69,-2.42 1.83,-2.67zm-12.36 5.73c0.36,-1.6 2.94,-4.15 3.01,-4.38 -0.52,1.94 -1,1.83 -1.05,4.92 -0.17,10.43 9.26,16.51 15.01,9.63 2.24,-2.68 2.81,-4.56 3.29,-8.9l-0.05 -2.59 -0.15 -0.3c-0.03,-0.08 -0.07,-0.3 -0.09,-0.41l-0.6 -2.31c0.6,0.18 1.38,0.99 1.75,1.36 0.58,0.58 1.05,1.01 1.64,1.52l0.36 0.2c0.76,-0.01 1.16,0.06 1.91,-0.19l0.53 -0.29c-0.08,-0.75 -1.67,-3.18 -2.13,-3.75 -0.96,-1.22 -1.72,-2.12 -2.87,-3.11 -0.85,-0.74 -2.63,-1.75 -3.75,-2.22 -3.69,-1.55 -8.68,-1.13 -11.84,1.36 -3.55,2.8 -5.76,9.04 -4.99,9.48z"/>
   <path class="fil1" d="M9.24 68.56c-0.19,-0.3 -0.12,-0.6 -0.18,-0.97 -0.28,-1.69 -0.26,-0.45 -0.37,-3.04 -0.02,-0.6 -0.13,-1.39 -0.17,-1.99 -0.05,-0.78 -0.05,-1.42 -0.11,-2.19 -0.12,-1.35 -0.12,-2.81 -0.49,-3.97 -0.32,-1 -1.12,-2.22 -2.27,-2.27 -0.68,0.22 -1.43,2.92 -1.62,3.6 -0.37,1.36 -0.69,3.11 -0.72,4.63 -0.03,1.74 0.07,3.4 0.43,4.92 0.19,0.83 0.28,1.4 0.43,2.28 0.12,0.74 0.41,1.48 0.5,2.15 1.39,-0.03 1.32,-0.2 2.59,-0.79 0.4,-0.19 0.81,-0.39 1.16,-0.62 0.16,-0.11 0.4,-0.24 0.55,-0.35 0.12,-0.09 -0.03,0.05 0.11,-0.09 0.2,-0.2 0.11,-0.25 0.33,-0.47 0.35,-0.34 2,-0.98 2.5,-1.18 1.71,-0.67 1.57,-0.12 2.28,-0.61 0.32,-0.22 0.29,-0.18 0.61,-0.17 0.26,0.87 0.48,1.84 0.69,2.71l1.18 3.99c0.18,0.52 0.31,0.84 0.48,1.3l0.94 2.52c0.36,-0.01 6.89,-2.06 7.96,-2.49 0.51,-0.2 0.56,-0.1 1.04,-0.38l0.63 -8.96 1.26 -8.23c-2.19,0.13 -4.53,-0.4 -6.58,-1.16 -0.36,-0.13 -0.63,-0.14 -0.95,-0.25 -0.55,-0.19 -1.16,-0.37 -1.69,-0.6 -0.52,-0.23 -1.17,-0.36 -1.64,-0.65l-1.8 -0.98c-0.11,-0.07 -0.1,-0.05 -0.19,-0.11l-0.57 -0.32c-0.11,-0.06 -0.26,-0.15 -0.37,-0.21 -0.16,0.16 -0.37,0.5 -0.54,0.72 -0.38,0.49 -0.94,2.04 -1.19,2.68 -0.88,2.26 -1.44,3.44 -1.94,5.92 -0.52,2.56 -0.64,2.01 -1.37,3.81 -0.13,0.32 -0.24,0.62 -0.38,0.92 -0.07,0.15 -0.15,0.33 -0.22,0.47 -0.01,0.03 -0.09,0.17 -0.1,0.2 -0.18,0.25 -0.02,0.09 -0.22,0.21z"/>
   <path class="fil2" d="M70.22 84.4c-0.04,0.95 0.16,1.76 0.04,2.84 -0.18,1.61 -0.61,2.97 -1.05,4.48l-0.69 1.33c-0.4,0.54 -0.58,0.97 -0.95,1.35 -1.46,1.51 -4.65,3.39 -6.39,3.45 -0.32,-0.04 -1.17,0.16 -1.58,0.2 -2.75,0.27 -5.69,-0.06 -8.06,-1.3 -3.37,-1.76 -6.07,-4.34 -6.89,-8.22 -0.38,-1.78 -0.23,-2.36 -0.39,-3.26 -0.22,-0.23 -0.2,-0.69 -0.2,-1.1 0.01,-0.44 0.07,-0.6 0.11,-1 0.09,-0.76 0.27,-1.24 0.32,-1.99 -0.07,-0.03 -0.04,0.12 -0.21,-0.19l-0.57 -0.1c-1.36,0.34 -2.19,-0.14 -3.2,-0.59 0.32,-0.79 3.91,-4.21 4.79,-4.99 2.87,-2.54 7.72,-4.29 12.17,-3.84 1.96,0.2 3.45,0.77 5,1.5 1.71,0.8 2.61,1.58 3.75,2.71 1.6,1.57 3.62,4.83 4.08,7.29 0.06,0.3 0.15,0.89 0.06,1.19 -0.21,0.7 0.32,-0.03 -0.15,0.24zm-28.17 13.12c0.36,0.44 0.95,0.99 1.4,1.42 0.21,-0.21 0.15,-0.01 -0.02,-0.26l-0.83 -0.96c-0.22,-0.32 -0.14,-0.35 -0.26,-0.64l2.06 -0.74c0.74,-0.24 1.44,-0.28 2.38,-0.29 1.92,-0.02 2.81,0.51 4.13,1.23 0.95,0.52 2.21,1.75 2.76,2.68 0.42,0.7 1.49,3.06 1.27,3.97 0.73,0.1 1.42,-0.08 1.85,-0.01 1.72,0.19 4.94,-1.19 6.43,-1.93 2.26,-1.11 4.42,-2.89 5.76,-4.69 0.32,-0.43 0.6,-0.75 0.88,-1.21 2.96,-4.78 5.03,-10.76 2.87,-16.38 -0.71,-1.85 -2.5,-3.63 -3.78,-4.6 -2.77,-2.08 -8.59,-4.41 -12.03,-4.75 -0.2,0.16 0.2,0.08 -0.39,0.12l-2.69 -0.13c0.01,0.03 -0.18,0.15 0.05,0.01 0.01,-0 0.03,-0.03 0.04,-0.03 0.14,-0.24 0.14,0.17 0.01,-0.14 -0.67,-0.05 -1.6,-0.26 -2.21,-0.01 -0.69,0.28 -0.94,0.39 -1.77,0.48 -1.4,0.15 -2.81,0.33 -4.14,0.57 -2.21,0.41 -1.97,0.67 -3.24,1.24 -1.25,0.56 -1.76,1.22 -2.72,1.97 -2.69,2.06 -1.73,6.7 -2.61,8.75l-0.13 0.27c-0.45,0.95 -0.49,2.66 -0.11,3.2 0.07,0.1 -0.01,0.01 0.15,0.14 0.44,0.36 0.72,0.22 0.77,1.73 0.38,0.22 0.02,0.02 0.17,0.01 0.43,-0.01 -0.27,-0.16 0.11,-0.01 0.16,0.38 -0.09,0.03 0.18,0.42 0.35,0.5 0.57,1.72 1.76,3.4l0.12 0.39c0.05,0.15 0.06,0.17 0.12,0.28 0.1,0.21 0.2,0.34 0.28,0.52 0.81,1.67 1.34,1.72 1.6,2.96 -0.08,0.08 -0.11,0.12 -0.19,0.19l-0.17 0.14c-0.01,-0.02 -0.04,0.03 -0.06,0.05l0.2 0.63z"/>
   <path class="fil5" d="M116.57 38.9c0.49,-3.75 0.6,-7.53 -0.23,-11.26 -1.37,-6.15 -5.43,-10.75 -10.74,-14.05 -2.83,-1.75 -5.04,-2.97 -8.2,-4.25 -6.15,-2.49 -13.03,-3.69 -20.15,-4.64 -3.81,-0.51 -7.67,-0.59 -11.41,-0.9 -3.77,-0.32 -9.7,0.19 -12.3,-0.05l-1.53 0.16c1.8,0.51 3.55,0.27 5.3,0.89 1.56,0.55 2.89,1.17 4.62,1.63 2.31,0.61 8.11,1.64 10.52,1.93 6.64,0.79 14.65,2.01 20.77,4.13 2.51,0.87 6.31,2.62 8.41,4.04l1.86 1.33c1.36,0.95 3.85,3.12 4.93,4.34 0.45,0.51 1.05,1.25 1.44,1.76l2.77 4.21c1.3,2.21 2.83,5.8 3.39,8.3 0.12,0.56 0.37,2.47 0.53,2.43z"/>
   <path class="fil2" d="M106.16 105.25c-0.05,-1.52 1.09,-3.75 2.02,-4.89 0.17,-0.21 0.11,-0.18 0.32,-0.37l0.28 -0.21c0.02,-0.01 0.04,-0.03 0.06,-0.04 0.17,-0.12 0.26,-0.19 0.41,-0.29 1.66,-1.19 2.67,-1.5 4.84,-1.5 1.79,0 2.87,0.43 4.1,1.05 1.14,0.58 0.85,1.37 0.07,2.29 -0.59,0.69 -0.67,0.36 -1.03,0.86 -0.31,0.42 -0.11,0.66 -1.1,1.28l-0.13 0.08c-1.84,1.08 -2.87,1.42 -5.25,1.8 -1.17,0.19 -3.68,0.43 -4.59,-0.05zm11.87 -20.81c-0.34,0.1 -0.21,-0.11 -0.26,0.21 0.51,0.04 0.99,0.09 1.5,0.05 0.87,-0.06 0.88,-0.19 1.17,-0.3 -0.09,0.29 -0.31,0.32 -0.68,0.35l0.11 0.21c0.18,0.5 -0.27,0.11 -0.64,0.28 -0.16,0.07 -0.07,0.04 -0.11,0.09l-0.04 0.08c-0,-0.01 -0.01,0.03 -0.02,0.04 -0.56,-0.17 0.08,-0.04 -0.2,-0.18 -0,-0 -0.02,-0.01 -0.03,-0.01l-1.25 -0.2c0.18,0.45 0.01,-0.03 -0.03,0.26 -0.07,0.43 0.01,0.48 -0.28,0.9 -0.23,-0.55 0.23,-1.18 -0.33,-1.19 0.02,0.29 0.13,0.76 0.03,1.08 0.03,0.47 0.13,2.71 -0.26,3.13 0.04,1.07 -0.92,3.2 -1.48,4.32 -2.44,4.87 -8.55,7.41 -13.72,5.16 -1.17,-0.51 -2.55,-1.5 -3.43,-2.34 -1.42,-1.35 -2.56,-3.79 -2.98,-5.65 -0.98,-4.24 -0.23,-3.44 -0.2,-5.02 -0.77,-0.44 1.44,-6.68 4.99,-9.48 3.15,-2.49 8.15,-2.92 11.84,-1.36 1.12,0.47 2.89,1.49 3.75,2.22 1.15,1 1.9,1.9 2.87,3.11 0.46,0.57 2.05,3 2.13,3.75l-0.53 0.29c-0.75,0.25 -1.15,0.17 -1.91,0.19zm-2.47 -9.81c0.14,-0.15 0.03,-0.03 0.11,-0.19 0.01,-0.02 0.01,-0.07 0.02,-0.1 0.75,0.25 0.62,-0.18 1.52,0.04 0.29,0.07 -0.1,-0.01 0.12,0.04 0.85,0.17 0.81,-0.05 1.77,0.4l0.13 0.06c0.13,0.07 0.41,0.22 0.45,0.3 0.2,0.42 -0.46,0.13 0.27,0.74 -0.29,0.09 -0.03,-0.17 -0.22,0.08 -0.22,0.3 0.11,-0.07 -0.06,0.25 -0.12,0.23 0.02,0.05 -0.19,0.03l-0.21 0.11c0.02,0.02 0.09,0.07 0.12,0.09 0.14,0.09 0.14,0.08 0.26,0.15l0.02 0.58c0.21,-0.2 0.15,-0.25 0.29,-0.49 0.42,0.32 0.36,0.1 0.77,0.3 0.1,0.44 -0.15,0.22 0.04,0.46 0.01,0.01 0.13,0.08 0.16,0.09 -0.67,0 -0.28,-0.09 -0.4,0.22 0.28,0.17 0.95,0.17 0.98,0.2 0.23,0.2 -0.18,0.59 0.25,0.66 0.42,0.06 0.04,-0.46 0.71,-0.36 0.01,0 0.03,0.01 0.04,0.01 0.01,0 0.03,0 0.04,0.01l0.22 0.02c0.07,0.01 0.07,-0.14 0.34,0.2l0.15 0.25c0.08,0.2 0.06,0.07 0.07,0.34 0.23,-0.1 0.05,-0.05 0.27,-0.11 0.26,-0.07 -0.05,-0.07 0.12,-0 -0.06,0.11 -0.12,0.27 -0.2,0.35 -0.01,0.01 -0.03,0.03 -0.04,0.03l-0.09 0.05c-0.01,0.01 -0.04,0.02 -0.05,0.03l-0.53 0.78c0.61,0.41 -0.31,0.26 -0.49,0.25 0,0 -0.02,0.31 -0.02,0.32 0,0.02 0,0.05 0.01,0.06l0.06 0.39c-0.02,0.15 0.01,0.02 -0.05,0.17 -0.16,0.42 -0.03,0.36 -0.14,0.53 -0.04,0.07 -0.09,0.08 -0.14,0.12 -0.06,-0.5 -0.04,-0.17 -0.17,-0.49l-0.05 -0.11c-0.63,1.45 -0.1,0.48 -0.11,1.31l-0.97 0.62c-0.1,0.17 0.01,0.13 -0.1,0.33 -0.17,-0.3 0.18,0.43 -0.04,-0.21 -0.12,-0.38 -0.32,-0.58 -0.52,-0.87 -0.62,-0.9 -1.06,-2.01 -1.72,-2.86 -0.72,-0.92 -1.59,-1.66 -2.4,-2.49 -0.36,-0.37 -0.7,-0.61 -1.02,-0.88 -0.37,-0.3 -0.74,-0.54 -1.14,-0.76 0.01,-0.14 0.28,-1.12 0.92,-1.15l0.25 0.03c0.52,0.01 0.2,-0.24 0.57,0.1zm3.65 26.59c-0.2,-0.19 -0.23,0.24 -0.16,-0.24 0.37,-0.27 0.46,-0.5 0.55,-0.74l0.24 -0.54c0.34,-0.85 0.67,-0.97 0.91,-1.38l0.4 -0.81c0.69,-1.18 0.36,-0.36 1.14,-2.15 1.41,-3.23 0.94,-3.78 1.35,-5.56 0.11,-0.49 0.18,-0.3 0.42,-0.65l0.16 -0.44c0.19,-1.35 0.39,-7.96 0.19,-9.26 -0.45,-3.03 -3.11,-2.7 -3.63,-4.46 -0.09,-0.31 0.14,-0.09 -0.09,-0.22 -0.44,-0.3 -1.95,-0.75 -2.55,-0.9 -0.86,-0.21 -1.79,-0.26 -2.59,-0.43 -0.62,-0.13 0.16,-0.08 -0.46,-0.19l-0.78 -0.05c-0.5,-0.04 -1.03,-0.18 -1.46,-0.25 -0.85,-0.13 -2.44,-0.06 -3.39,-0.12l0.75 -0.22c-5.3,0.17 -9.7,1.34 -13.82,4.37 -2.44,1.8 -3.71,3.43 -4.23,6.63l-0.28 1.94c-0.38,4.48 1.12,8.78 3.24,12.43 0.68,1.17 1.43,2 2.21,2.97 1.46,1.82 3.61,3.28 6.3,4.14 4.41,1.42 8.86,0.81 12.67,-1.54 0.75,-0.46 2.53,-1.78 2.94,-2.34z"/>
   <path class="fil1" d="M76.83 131.06c-0.72,0.1 -2.15,0.44 -1.98,1.34 0.48,0.51 4.14,1.13 5.98,2.05 0.6,0.3 1.22,0.65 1.8,0.89l0.02 0.36 0.15 0.23c0.01,0.02 0.03,0.04 0.05,0.06 0.39,0.44 1.56,0.96 2.09,1.22 2.32,1.13 5.3,2.6 6.65,4.69 1.01,1.56 1.73,3.73 1.15,6 -0.4,1.59 -1.37,3.98 -3.24,4.24 -0.03,-2.73 -0.5,-4.73 -1.86,-6.58 -0.85,-1.15 -3.27,-3.44 -4.83,-3.55 -0.21,0.19 -0.4,0.51 -0.41,0.81 -0.02,0.72 1.03,1.58 1.38,2.01 1.4,1.71 2.58,3.75 2.8,6.16 0.2,2.16 -0.58,2.87 -0.88,3.6 -2.23,3.31 -7.94,2.82 -9.01,1.93 0.04,-0.4 0.53,-0.83 0.88,-1.3l1.26 -1.13c0.67,-0.49 0.98,-0.51 1.35,-0.71 0.53,-0.29 0.25,-0.06 0.42,-0.5 -0.68,-0.22 -1.62,-1.27 -3.26,0.11 -0.53,0.45 -1.63,1.75 -2.01,2.27 -0.31,0.51 -1.78,1.93 -2.4,2.15 -0.29,0.34 -1.27,0.82 -1.8,1.03 -0.79,0.31 -1.66,0.34 -2.6,0.28 0.26,0.18 0.55,0.23 0.91,0.22 0.28,-0.01 0.62,-0.07 0.91,-0.1l-0.39 0.18c1.83,0.06 0.37,0.24 2.31,0.63 0.47,0.09 0.84,0.16 1.27,0.24 1.79,0.34 5.66,0.67 7,0.41 0.18,-0.03 0.54,-0.12 0.66,-0.14 1.32,-0.2 0.57,-0.18 1.18,-0.31l2.95 -1.14c0.2,-0.1 0.18,-0.23 0.38,-0.4l0.62 -0.48c0.12,-0.13 0.14,-0.29 0.3,-0.4 0.42,-0.27 0.12,0.19 0.77,-0.42 0.28,-0.26 0.36,-0.27 0.46,-0.5 0,-0.01 0.01,-0.04 0.01,-0.05 0.17,-0.34 0.1,-0.13 0.23,-0.24l0.48 -0.71c0.02,-0.09 0.01,-0.12 0.06,-0.23 0.16,-0.32 0.38,-0.34 0.64,-0.47l0.39 -0.2c0.02,-0.01 0.04,-0.03 0.07,-0.03 0.36,-0.16 0.33,-0.06 0.64,-0.16 0.03,-0.01 0.11,-0.05 0.14,-0.06l0.89 -0.4c0.31,-0.12 0.77,-0.21 1.16,-0.34 0.56,-0.19 0.34,-0.16 0.48,-0.3l0.1 -0.1c0.42,-0.39 0.79,-1.48 0.88,-1.88 0.04,-0.18 0.03,-0.43 0.06,-0.63 0.11,-0.77 0.38,-1.53 0.54,-2.46 0.19,-1.13 0.3,-4.6 0.02,-5.64l-0.04 -0.56c-0,-0.14 -0.03,-0.55 -0.06,-0.68 -0.09,-0.35 -0.26,-0.23 -0.48,-0.87 -0.49,0.05 -0.16,0.08 -0.29,-0.05 0.06,-0.47 0.01,-0.83 -0.01,-1.29 -0.05,-0.8 0.07,-1.03 -0.22,-1.2l0.06 2.46c-0.81,-1.93 -3.31,-3.11 -4.43,-4.04 0.58,-0.3 1.95,-0.79 2.29,-1.34 -0.08,-0.01 -0.18,-0.05 -0.2,-0.05 -0.16,-0.03 0.03,-0.02 -0.16,-0.02 -1.41,-0 -0.49,-0.1 -1.13,-0.22 -0.02,-0 -0.32,-0.02 -0.43,-0.05 -0.45,-0.1 -0.51,-0.25 -1.2,-0.3l0.27 -0.27c0.16,-0.18 0.09,-0.16 0.21,-0.28 0.13,-0.14 0.82,-0.46 1.24,-1.22 0.02,-0.05 0.09,-0.22 0.14,-0.31 -0.45,0.2 -1.24,1.72 -2.83,1.71 -0.59,-0 -2.79,-0.96 -3.3,-1.23 -2.1,-1.11 -4.39,-2.17 -7.27,-1.71z"/>
   <path class="fil6" d="M137.99 143.01c0.04,-1.28 -1.79,-9.15 -2.23,-10.8 -0.5,-1.9 -2.54,-7.6 -4.28,-8.77l0.05 -0.41c-0.36,0.24 -0.33,0.32 -0.77,0.53 -3.84,1.85 -6.37,1.31 -10.34,3.91 -0.78,0.51 -2.59,1.66 -2.82,2.42 0.45,0.34 0.82,0.55 1.24,0.82l3.84 2.44c2.66,1.62 5.14,3.11 7.71,4.84 0.85,0.57 1.64,1.08 2.54,1.64 0.9,0.56 1.68,1.08 2.57,1.62l1.82 1.27c0.27,0.21 0.29,0.31 0.69,0.51z"/>
   <path class="fil7" d="M96.79 149.89l-0.17 4.62 0.12 1.39c0.32,0.37 0.21,0.13 0.72,0.07 0.01,-0.01 0.01,-0.04 0.01,-0.05l0.01 -0.09c0.01,-0.6 -0.19,0.27 -0.01,-0.15 0.74,-0.08 -0.03,-0.09 0.51,-0.16 0.33,-0.04 0.03,0.12 0.51,-0.02 0.33,-0.1 0.19,-0.12 0.45,-0.25 0.19,-0.09 0.23,-0.07 0.43,-0.17 0.18,-0.09 0.05,-0.05 0.24,-0.15l2.78 -1.39c0.17,-0.1 0,0.01 0.18,-0.12 0.63,-0.46 1.47,-0.72 1.93,-1.06l0.55 -0.43c0.02,-0.01 0.05,-0.02 0.07,-0.04l2.08 -1.31c0.02,-0.01 0.04,-0.03 0.06,-0.04l0.44 -0.26c0.46,-0.25 0.19,-0.19 0.66,-0.84 0.28,-0.39 0.7,-0.63 0.74,-1.26 0.02,-0.41 0.04,-0 -0.07,-0.38 -0.22,-0.79 0.01,-0.31 -0.18,-0.89 -0.1,-0.52 -2.26,-3.48 -2.61,-3.88 -1.46,-1.64 -1.19,-1.55 -3.14,-3.29 -0.67,-0 -0.63,-0.09 -1.49,0.03 -1.36,0.18 -0.85,0.31 -1.4,0.5 -0.11,0.04 -0.14,0.03 -0.24,0.06l-1.5 1.23c-0.19,0.31 -0.11,0.3 -0.14,0.56 -0.05,0.42 -0.24,-0.01 -0.35,0.75l-0.62 1.56c-0.64,1.63 -0.32,4.61 -0.49,5.27 -0.01,0.03 -0.03,0.11 -0.04,0.1 -0.01,-0.01 -0.02,0.07 -0.04,0.1z"/>
   <path class="fil7" d="M48.67 138.24c-0.57,0.06 -2.63,2.12 -3.25,2.93 -0.19,0.25 -0.33,0.32 -0.54,0.56 -0.64,0.73 -3.63,4.82 -3.75,5.48 0.31,0.35 6.48,3.94 7.16,4.02 0.38,0.12 0.26,0.04 0.45,0.08l1.52 0.47c0.81,0.21 1.82,0.14 2.53,0.11 0.5,-1.38 2.36,-5.88 2.4,-7.07 0.07,-0.45 0.08,-1.15 0.24,-1.79 0.15,-0.58 0.33,-1.06 0.39,-1.7 -0.73,-0.53 -1.11,-0.98 -2.38,-1.79 -0.27,-0.17 -0.48,-0.36 -0.83,-0.55 -3.42,-1.94 -2.51,-1.21 -3.95,-0.75z"/>
   <path class="fil8" d="M124.69 111.33c1.08,0.01 2.85,-1.53 3.56,-2.35 0.59,-0.69 0.96,-0.91 1.68,-1.91 2.89,-4.01 4.78,-9.89 4.15,-15 -0.23,-1.88 -0.74,-3.89 -2.17,-5 -0.46,-0.36 -0.96,-0.8 -1.78,-0.71l-0.56 3.21c-0.39,1.83 -1.06,4.06 -1.82,5.76 -1.63,3.66 -0.89,2.67 -1.27,6.42 -0.21,2.1 -0.48,4.57 -0.94,6.62 -0.23,1.02 -0.62,1.98 -0.84,2.96z"/>
   <path class="fil1" d="M58.24 58.11c-0.42,-0.08 -0.77,-0.15 -1.18,-0.24 -0.14,-0.03 -0.43,-0.08 -0.57,-0.13 -0.31,-0.1 -0.34,0.03 -0.28,-0.23 -0.17,0.13 -0.06,0.02 -0.18,0.17 -0.02,0.02 -0.09,0.13 -0.13,0.17 -0.42,0.54 -2.24,2.4 -2.75,2.62 -1.14,0.5 -0.5,1.52 -2.14,1.55 -0.19,-0.31 -0.36,-0.4 -0.57,-0.8 -0.21,-0.42 -0.26,-0.54 -0.26,-1.14 -0.17,-0.46 0.02,-0.05 -0.18,-0.1 -0,-0.55 -0.04,-0.66 -0.21,-1.1 -0.5,-1.29 0.37,-0.45 -0.25,-1.4l0.07 0.41c-1.1,0.81 -4.78,1.41 -6.84,3.64 -0.85,0.92 -2.07,1.6 -2.18,3.04 -0.2,2.65 3.67,-1.64 10.49,-1.95 2.24,-0.1 6.39,0.51 8.61,1.2l4.77 1.91c3.7,1.98 5.61,-2.07 3.25,-3.85 -1.21,-0.91 -2.78,-1.48 -4.45,-2.13 -2.25,-0.86 -2.85,-0.94 -4.99,-1.63z"/>
   <path class="fil8" d="M8.54 94.92c0.52,-0.07 0.42,-0.51 1.2,-1.18 1.06,-0.92 2.07,-1.13 3.42,-0.65l1.46 0.83c0.74,0.51 1.19,0.92 0.9,1.77 -0.27,0.79 -1.56,2.05 -1.51,4.71 0.05,2.66 1.64,4.88 3.49,5.76 0.9,0.43 2.6,0.96 3.67,1.02 1.29,0.08 2.91,-0.49 3.41,-1.19 0.92,-1.28 -0.69,-2.06 -1.48,-2.65 -1.01,-0.75 -1.61,-1.21 -1.83,-2.75 -0.2,-1.4 -0.17,-3.65 -0.39,-4.29l-1.29 -2.19c-0.14,-0.2 -0.33,-0.42 -0.5,-0.6 -1.13,-1.22 -3.57,-3.03 -6.08,-3.17 -1.57,-0.09 -2.64,0.43 -3.39,1.29 -0.37,0.43 -1.53,2.43 -1.1,3.28z"/>
   <path class="fil5" d="M128.92 23.76c-0.15,0.96 -0.11,1.94 -0.26,2.86 -0.27,1.63 -1.39,5.67 -1.89,7.17 -0.54,1.6 -1.18,2.76 -1.85,4.24 -0.32,0.71 -0.63,1.29 -0.96,2.03l-0.99 1.95c3.49,0.09 4.77,0.73 7.36,2.02 2.85,1.43 4.64,2.59 7.12,4.52 1.24,0.96 2.34,2.33 3.44,3.54 0.4,0.45 0.78,0.74 1.2,1.2 0.46,0.51 2.53,3.87 2.62,4.24 0.11,-0.13 0.19,-0.15 0.15,-0.6 -0.02,-0.18 -0.09,-0.44 -0.13,-0.63 -0.1,-2.32 -2.39,-7.22 -3.94,-9.38 -0.76,-1.05 -1.75,-2.03 -2.65,-2.93 -1.3,-1.29 -2.86,-2.39 -4.54,-3.22 -2.3,-1.13 -4.43,-1.6 -7.29,-1.69 -0.18,-0.68 2,-3.86 2.65,-6.79 0.61,-2.75 0.85,-5.83 0.19,-8.69 -0.23,0.09 -0.09,-0.04 -0.21,0.15z"/>
   <path class="fil4" d="M44.25 85.27c0.16,0.9 0.01,1.48 0.39,3.26 0.82,3.88 3.52,6.46 6.89,8.22 2.37,1.24 5.31,1.57 8.06,1.3 0.41,-0.04 1.26,-0.23 1.58,-0.2 0.16,-0.16 0.1,-0.16 0.59,-0.3 0.26,-0.07 0.37,-0.1 0.61,-0.19 0.45,-0.16 0.77,-0.29 1.14,-0.45 1.65,-0.72 1.56,-0.91 2.39,-1.48 1.35,-0.92 1.14,-1.07 1.62,-1.58 0.86,-0.91 0.26,-0.38 0.98,-1.31 0.79,-1.01 0.76,-2.7 1.3,-4.29 0.21,-0.6 0.32,-1.92 0.04,-2.74 -0.18,-0.54 -0.08,-0.29 -0.41,-0.69 -0.55,-0.68 -0.62,-0.96 -0.84,-1.87 -0.01,0.02 -0.03,0.05 -0.03,0.07l-0.14 0.26c-0.26,0.59 0.26,2.19 -0.2,2.97 -0.38,3.62 -1.65,6.2 -3.66,8.21 -2.09,2.09 -5.36,3.31 -8.8,1.75 -4.01,-1.82 -6.39,-6.88 -6.55,-11.35 -0.11,-3.27 0.6,-4.07 0.61,-5.21l-0.04 -0.14c-0.26,0.47 -0.16,0.31 -0.3,0.94 -0.11,0.52 -0.2,0.63 -0.45,0.77 -1.04,0.59 -4.07,1.82 -4.83,2.53l0.07 1.5z"/>
   <path class="fil1" d="M104.14 61.14c-2.32,0.3 -7.98,1.25 -9.15,3.44 -0.67,1.26 0.19,2.43 0.96,2.88 2.36,1.38 6.88,-2.28 14.61,-1.38 5.4,0.63 7.11,2.84 7.62,2.87 1.07,0.06 0.7,-1.99 -0.64,-3.46 -0.22,-0.24 -0.28,-0.39 -0.49,-0.6 -0.39,-0.38 -0.74,-0.61 -1.16,-0.93 -1.08,-0.81 -2.89,-1.64 -4.21,-2.08 -2.25,-0.75 -4.95,-1.08 -7.53,-0.74z"/>
   <path class="fil5" d="M65.36 28.91c0.41,-2.02 -0.27,-3.34 -1.68,-3.95 -1.77,-0.76 -3.03,-0.13 -4.63,0.41 -1.36,0.46 -2.86,1.05 -4.27,1.58 -1.09,0.41 -1.1,0.43 -1.77,1.12 -2.03,2.07 -0.77,4.58 1.03,5.62 2.44,1.4 7.14,0.54 9.1,-1.25 0.97,-0.88 1.91,-2.04 2.22,-3.53z"/>
   <path class="fil8" d="M30.4 70.91c0.4,0.18 0.03,-0.12 0.16,0.23 0.1,0.27 0.05,0.88 0.03,1.18 -0.02,0.5 -0.07,1 -0.06,1.5 1.17,-0.12 0.95,-0.08 1.17,-1.22l1.33 -5.94c0.18,-0.68 0.28,-1.3 0.46,-1.93 0.18,-0.65 0.41,-1.17 0.56,-1.84 0.16,-0.68 0.35,-1.12 0.52,-1.86 0.21,-0.9 0.34,-0.99 1.21,-1.28 2.98,-0.99 7.5,-2.88 10.37,-4.16 1.1,-0.49 2.24,-1.25 3.13,-1.8l0.1 2.13c-0,-0.79 -0.01,-1.52 0.03,-2.31 0.04,-0.78 0.2,-1.78 0.21,-2.36 -0.31,0.09 -1.27,0.76 -1.65,0.98 -0.63,0.37 -1.1,0.64 -1.82,0.97 -1.31,0.61 -2.56,1.04 -4.02,1.56 -3.08,1.08 -5.98,1.33 -9.54,1.62 -0.74,0.31 -1.37,5.9 -1.48,6.87 -0.28,2.5 -0.53,5.12 -0.74,7.66z"/>
   <path class="fil8" d="M35.09 114.22c0.32,0.52 2.02,2.2 2.55,2.69 2.91,2.71 5.39,4.51 8.92,6.62 2.22,1.32 4.43,2.35 6.95,3.4 1.34,0.55 6.51,2.56 7.82,2.55 0.19,-0.21 0.27,-0.28 0.41,-0.59 -0.2,-0.18 -0.15,0.24 -0.17,-0.23l0.09 -0.11c0.02,-0.02 0.07,-0.09 0.09,-0.11 0.06,-0.08 0.08,-0.1 0.13,-0.17 -1.18,-0.23 -3.64,-1.19 -4.84,-1.64 -0.77,-0.29 -1.48,-0.65 -2.28,-1.02l-3.98 -2.1c-0.03,-0.02 -0.1,-0.06 -0.13,-0.07l-2.12 -1.27c-1.18,-0.76 -1.79,-1.1 -2.92,-1.97 -0.22,-0.17 -0.24,-0.18 -0.46,-0.33 -0.02,-0.01 -0.04,-0.03 -0.06,-0.04 -1.06,-0.75 -2.22,-1.52 -3.15,-2.45 -0.29,-0.29 -0.52,-0.42 -0.84,-0.74l-1.62 -1.48c-0.02,-0.02 -0.07,-0.09 -0.09,-0.11l-1.57 -1.62c-0.37,-0.51 -0.64,-0.64 -0.96,-1.01l-2.98 -3.9c-0.11,-0.15 -0.25,-0.29 -0.35,-0.44l-0.2 -0.3c-0.29,-0.44 -0.66,-1.23 -1.19,-1.44 -0.33,0.18 -0.66,1.48 -1.25,2.14l0.3 0.37c0.41,0.79 0.47,0.82 1.1,1.49 0.44,0.47 0.5,0.65 0.77,0.84l0.15 0.15c0,0.01 -0.02,0.03 0.05,0.17 0.07,0.15 0.15,0.21 0.24,0.33 0.09,0.13 0.14,0.23 0.23,0.38l1.11 1.37c0.26,0.3 -0.02,0.16 0.35,0.26l-0.08 0.41z"/>
   <path class="fil8" d="M56.2 57.51c-0.06,0.26 -0.03,0.13 0.28,0.23 0.14,0.05 0.44,0.1 0.57,0.13 0.42,0.09 0.76,0.17 1.18,0.24l2.94 -2.35c3.55,-2.65 10.55,-6.15 14.88,-6.59 3.9,-0.4 6.34,-0.48 10.25,-0.51 1.17,-0.01 2.62,0.01 3.7,-0.33 0.36,-0.11 0.96,-0.12 1.11,-0.21 -1.08,0.08 -3.81,-0.68 -5,-0.9 -5.03,-0.93 -11.4,-1.71 -15.94,0.3 -4.18,1.85 -7.33,4.49 -10.75,7.18 -0.53,0.42 -1.18,0.91 -1.65,1.34l-1.58 1.46z"/>
   <path class="fil0" d="M67.78 108.66c0.37,0.19 2.72,2.21 5.32,3.45 5.4,2.59 12.73,3.19 18.34,0.69 0.51,-0.23 0.98,-0.46 1.49,-0.7 0.6,-0.29 0.95,-0.56 1.43,-0.85 0.35,-0.49 0.7,-1.07 0.14,-1.81 -1.09,-1.44 -2.46,0.54 -5.16,1.36 -5.7,1.73 -11.22,0.88 -16.28,-1.73 -2.99,-1.54 -3.41,-2.97 -4.8,-1.94 -1.13,0.83 -0.57,1.19 -0.46,1.53z"/>
   <path class="fil8" d="M124.65 72.42c0.18,0.24 0.52,0.43 0.81,0.52 0.1,-4.37 -1.62,-13.72 -4.01,-17.33 -1.35,-2.04 -4.06,-3.39 -6.34,-4.31 -2.61,-1.05 -5.25,-1.8 -8.24,-2.43 -0.05,0.12 0.07,0.35 -0.72,0.22 -0.24,-0.04 -0.46,-0.1 -0.66,-0.14 -0.49,-0.1 -0.77,-0.21 -1.37,-0.21 0.23,-0.15 2.7,0.49 2.76,0.52l0.13 0.07c0.02,0.01 0.04,0.03 0.06,0.03 0.55,0.26 0.94,0.05 1.41,0.28 0.26,0.12 0.3,0.3 0.63,0.5 1.51,0.92 2.61,1.49 4.16,2.61 1.16,0.84 1.08,0.92 1.79,1.49 0.31,0.25 0.45,0.25 0.46,0.74 0.4,-0.15 0.11,-0.21 0.89,0.5 0.32,0.29 0.6,0.47 0.89,0.8 0.63,0.7 1.39,1.39 1.99,2.19 0.5,0.67 1.65,3.13 1.98,3.91 0.55,1.32 1.43,3.54 1.76,4.9 0.24,0.98 0.57,1.74 0.72,2.66 0.07,0.45 0.17,1.07 0.26,1.47 0.23,0.97 0.63,0.28 0.65,1.03z"/>
   <path class="fil9" d="M106.16 105.25c0.92,0.48 3.43,0.24 4.59,0.05 2.37,-0.39 3.4,-0.72 5.25,-1.8l0.13 -0.08c0.99,-0.61 0.79,-0.86 1.1,-1.28 0.37,-0.5 0.44,-0.17 1.03,-0.86 0.78,-0.91 1.07,-1.71 -0.07,-2.29 -1.23,-0.62 -2.31,-1.05 -4.1,-1.05 -2.17,0 -3.19,0.31 -4.84,1.5 -0.15,0.1 -0.23,0.17 -0.41,0.29 -0.02,0.01 -0.04,0.03 -0.06,0.04l-0.28 0.21c-0.21,0.19 -0.15,0.16 -0.32,0.37 -0.93,1.14 -2.08,3.37 -2.02,4.89z"/>
   <path class="fil4" d="M94.9 85.73c-0.03,1.58 -0.78,0.78 0.2,5.02 0.43,1.85 1.57,4.29 2.98,5.65 0.88,0.84 2.26,1.83 3.43,2.34 5.17,2.25 11.28,-0.28 13.72,-5.16 0.56,-1.12 1.52,-3.25 1.48,-4.32 -0.05,-0.65 0.11,-1.2 0.04,-1.9 -0.03,-0.36 -0.01,-0.64 -0.25,-0.78l-0.52 -0.25 -0.24 0.39c-0.14,-1.49 -0.56,-0.47 -0.38,-1.17 -0.02,0.95 0.02,1.15 -0.2,1.46 -0.48,4.35 -1.05,6.22 -3.29,8.9 -5.75,6.88 -15.18,0.8 -15.01,-9.63 0.05,-3.09 0.52,-2.98 1.05,-4.92 -0.07,0.24 -2.65,2.79 -3.01,4.38z"/>
   <path class="fil10" d="M38.6 103.73c0.11,0.73 0.29,1.29 0.67,1.89 0.32,0.5 0.59,1.03 1.02,1.47 2.14,2.22 2.32,2.21 5.44,3.01 1.88,0.48 3.97,-0.04 5.67,-0.81 1.16,-0.53 1.21,-0.59 2.04,-1.3 -0.68,-0.02 -1.67,-0.27 -2.32,-0.45l-5.07 -1.81c-0.34,-0.14 -0.51,-0.29 -0.82,-0.46l-3.9 -2.79c-0.02,-0.01 -0.04,-0.03 -0.05,-0.05 -0.02,-0.01 -0.04,-0.03 -0.05,-0.05 -0.24,-0.2 -0.44,-0.39 -0.67,-0.62 -0.66,-0.66 -0.99,-1.05 -1.6,-1.04 -0.2,0.96 -0.54,1.73 -0.35,3.01z"/>
   <path class="fil9" d="M43.45 98.93c0.89,1.19 3.97,3.02 5.6,3.68 1.7,0.69 3.64,1.22 5.54,1.4 0.41,0.04 1.86,0.17 2.2,-0.08 -0.43,-0.07 -1.12,0.11 -1.85,0.01 0.21,-0.91 -0.86,-3.27 -1.27,-3.97 -0.56,-0.94 -1.81,-2.16 -2.76,-2.68 -1.32,-0.73 -2.21,-1.25 -4.13,-1.23 -0.94,0.01 -1.64,0.04 -2.38,0.29l-2.06 0.74c0.12,0.29 0.04,0.32 0.26,0.64l0.83 0.96c0.17,0.25 0.23,0.04 0.02,0.26z"/>
   <path class="fil11" d="M56.88 149.22l0.27 0.05c-0.15,0.61 0.07,0.48 0.31,0.08l0.99 -2.13c0.4,-0.97 0.68,-1.9 1.09,-2.98 0.95,-2.48 1.32,-3.73 2.11,-6.17 0.34,-1.06 0.72,-2.09 1.03,-3.13 1.05,-3.5 1.3,-3.06 3.01,-5.27 0.56,-0.72 0.73,-1.05 1.49,-1.58 0.21,-0.15 1.72,-0.65 3.4,-1.78 1.45,-0.97 4.65,-1.82 6.36,-1.86 1.56,-0.03 2.28,0.01 3.61,0.44 2.74,0.88 2.43,1.03 4.09,2.17 0.42,0.29 0.8,0.47 1.25,0.74 0.78,0.46 2.29,2.09 3.21,2.95 0.36,0.34 0.83,0.62 0.94,1.09 0.03,0.02 0.09,0.07 0.1,0.08 0.01,0.01 0.07,0.08 0.08,0.05 0.01,-0.03 0.06,0.04 0.1,0.06l-0.05 -0.45c-0.15,-1.13 -1.83,-3.44 -2.5,-3.88 -2.06,-1.38 -3.01,-2.67 -6.7,-3.86 -2.41,-0.78 -4.76,-0.82 -7.16,0.03 -2.26,0.81 -4.1,1.42 -5.86,2.61 -2.25,1.51 -4.03,2.98 -5.19,5.47 -0.25,0.54 -0.47,0.87 -0.73,1.36 -0.8,1.52 -2.84,7.61 -3.35,9.29 -0.32,1.08 -0.68,2.16 -1,3.29 -0.29,1.03 -0.73,2.29 -0.93,3.33z"/>
   <path class="fil11" d="M42.05 97.52l-0.2 -0.63c0.02,-0.01 0.05,-0.06 0.06,-0.05l0.17 -0.14c0.08,-0.07 0.12,-0.11 0.19,-0.19 -0.26,-1.24 -0.79,-1.29 -1.6,-2.96 -0.09,-0.18 -0.18,-0.31 -0.28,-0.52 -0.05,-0.11 -0.07,-0.13 -0.12,-0.28l-0.12 -0.39c-1.19,-1.68 -1.41,-2.91 -1.76,-3.4 -0.27,-0.38 -0.03,-0.03 -0.18,-0.42 -0.38,-0.15 0.32,0 -0.11,0.01 -0.15,0 0.21,0.21 -0.17,-0.01 -0.05,-1.51 -0.32,-1.37 -0.77,-1.73 -0.16,-0.13 -0.08,-0.04 -0.15,-0.14 -0.39,-0.54 -0.34,-2.25 0.11,-3.2l0.13 -0.27c0.87,-2.06 -0.08,-6.69 2.61,-8.75 0.97,-0.74 1.48,-1.41 2.72,-1.97 1.27,-0.57 1.02,-0.84 3.24,-1.24 1.33,-0.24 2.74,-0.42 4.14,-0.57 0.83,-0.09 1.09,-0.2 1.77,-0.48 0.62,-0.26 1.54,-0.04 2.21,0.01 0.12,0.31 0.12,-0.1 -0.01,0.14 -0.01,0.01 -0.03,0.03 -0.04,0.03 -0.23,0.14 -0.04,0.03 -0.05,-0.01l2.69 0.13c0.59,-0.03 0.19,0.04 0.39,-0.12 -6.06,-1.22 -17.93,-0.97 -20.29,6.05 -1.57,4.66 -0.02,12.45 2.54,17.02 0.89,1.58 1.17,1.84 2.06,3.12 0.26,0.38 0.57,0.63 0.8,0.94z"/>
   <path class="fil12" d="M115.55 74.64c-0.37,-0.34 -0.05,-0.09 -0.57,-0.1l-0.25 -0.03c-0.64,0.03 -0.91,1.01 -0.92,1.15 0.4,0.22 0.77,0.46 1.14,0.76 0.33,0.27 0.66,0.51 1.02,0.88 0.81,0.82 1.68,1.57 2.4,2.49 0.67,0.85 1.1,1.96 1.72,2.86 0.2,0.29 0.4,0.5 0.52,0.87 0.21,0.64 -0.13,-0.1 0.04,0.21 0.11,-0.2 0.01,-0.17 0.1,-0.33l0.97 -0.62c0.01,-0.84 -0.52,0.13 0.11,-1.31l0.05 0.11c0.13,0.32 0.11,-0.01 0.17,0.49 0.05,-0.04 0.1,-0.05 0.14,-0.12 0.11,-0.17 -0.02,-0.11 0.14,-0.53 0.06,-0.15 0.03,-0.02 0.05,-0.17l-0.06 -0.39c-0,-0.02 -0.01,-0.05 -0.01,-0.06 -0,-0.01 0.02,-0.31 0.02,-0.32 0.18,0.01 1.1,0.16 0.49,-0.25l0.53 -0.78c0.01,-0.01 0.04,-0.02 0.05,-0.03l0.09 -0.05c0.01,-0.01 0.03,-0.02 0.04,-0.03 0.08,-0.08 0.13,-0.24 0.2,-0.35 -0.18,-0.07 0.13,-0.07 -0.12,0 -0.23,0.06 -0.04,0.01 -0.27,0.11 -0.01,-0.27 0.01,-0.15 -0.07,-0.34l-0.15 -0.25c-0.27,-0.33 -0.27,-0.18 -0.34,-0.2l-0.22 -0.02c-0.01,-0 -0.03,-0 -0.04,-0.01 -0.01,-0 -0.03,-0.01 -0.04,-0.01 -0.67,-0.09 -0.3,0.43 -0.71,0.36 -0.43,-0.07 -0.02,-0.46 -0.25,-0.66 -0.03,-0.03 -0.7,-0.02 -0.98,-0.2 0.12,-0.3 -0.27,-0.22 0.4,-0.22 -0.03,-0.01 -0.15,-0.08 -0.16,-0.09 -0.19,-0.24 0.06,-0.02 -0.04,-0.46 -0.41,-0.2 -0.35,0.02 -0.77,-0.3 -0.14,0.24 -0.07,0.28 -0.29,0.49l-0.02 -0.58c-0.12,-0.07 -0.13,-0.06 -0.26,-0.15 -0.02,-0.02 -0.1,-0.07 -0.12,-0.09l0.21 -0.11c0.2,0.02 0.07,0.19 0.19,-0.03 0.17,-0.33 -0.16,0.04 0.06,-0.25 0.19,-0.25 -0.06,0.01 0.22,-0.08 -0.72,-0.61 -0.06,-0.31 -0.27,-0.74 -0.04,-0.09 -0.32,-0.24 -0.45,-0.3l-0.13 -0.06c-0.97,-0.45 -0.92,-0.23 -1.77,-0.4 -0.21,-0.04 0.17,0.03 -0.12,-0.04 -0.89,-0.22 -0.76,0.21 -1.52,-0.04 -0.01,0.03 -0.01,0.09 -0.02,0.1 -0.07,0.16 0.03,0.03 -0.11,0.19z"/>
   <path class="fil13" d="M155.09 120.66c-4.54,0.83 -11.78,5.39 -15.03,8.81 -0.88,0.93 -0.33,2.14 0.86,1.37 0.7,-0.45 1.23,-1.01 1.87,-1.52 0.66,-0.51 1.22,-1.02 1.88,-1.5 0.64,-0.46 1.39,-0.97 2.04,-1.35 2.65,-1.56 3.92,-2.16 6.73,-3.52 0.79,-0.38 1.6,-0.63 2.42,-0.97 1.43,-0.6 0.4,-1.53 -0.78,-1.31z"/>
   <path class="fil3" d="M48.67 138.24c1.44,-0.46 0.52,-1.19 3.95,0.75 0.35,0.2 0.56,0.38 0.83,0.55 1.27,0.8 1.65,1.26 2.38,1.79 -0.05,0.64 -0.24,1.12 -0.39,1.7 -0.17,0.63 -0.17,1.34 -0.24,1.79l1.8 -5.29c0.04,-0.52 -0.92,-3.86 -1.19,-4.95 -0.1,-0.42 -0.21,-0.37 -0.23,-0.45 -0.01,-0.03 -0.03,-0.03 -0.04,-0.05 -0.79,0.09 -3.22,1.27 -3.8,1.68 -0.58,0.4 -1.06,0.74 -1.61,1.18l-1.11 0.87c-0.01,0.01 -0.04,0.03 -0.05,0.05 -0.22,0.23 -0.14,0.11 -0.3,0.4z"/>
   <path class="fil3" d="M96.79 149.89c0.02,-0.03 0.03,-0.11 0.04,-0.1 0.01,0.01 0.03,-0.07 0.04,-0.1 0.17,-0.66 -0.15,-3.64 0.49,-5.27l0.62 -1.56c0.11,-0.77 0.3,-0.34 0.35,-0.75 0.03,-0.26 -0.05,-0.25 0.14,-0.56l1.5 -1.23c0.1,-0.03 0.13,-0.02 0.24,-0.06 0.55,-0.2 0.04,-0.32 1.4,-0.5 0.86,-0.12 0.82,-0.03 1.49,-0.03l-0.86 -0.66c-0.3,-0.22 -0.56,-0.49 -0.79,-0.72 -0.82,-0.8 -2.39,-1.96 -3.38,-2.59 -0.3,-0.19 -1.66,-1.14 -1.98,-0.77 -0.32,0.37 0.82,8.92 0.79,10.92 -0.02,1.34 -0.09,2.67 -0.08,3.98z"/>
   <path class="fil13" d="M150.65 117.9c-4.21,1.15 -8.88,3.9 -12.11,6.55 -0.33,0.27 -1.58,1.16 -1.72,1.37 -0.32,0.49 -0.06,1.64 1.46,0.66 0.63,-0.41 1.25,-0.78 1.89,-1.2 0.67,-0.44 1.24,-0.82 1.88,-1.2l3.91 -2.36c0.67,-0.4 1.28,-0.7 2,-1.09 0.63,-0.34 1.39,-0.73 2.08,-1 0.5,-0.2 2.01,-0.57 2.28,-0.82 0.33,-0.3 0.25,-0.81 -0.21,-0.98 -0.46,-0.17 -1.05,-0.04 -1.45,0.07z"/>
   <path class="fil5" d="M38.6 14.17c0.17,0.45 -0.07,0.12 0.31,0.21l5.93 -1.15c3.54,-0.58 10.48,-0.98 14.18,-0.97 1.86,0.01 3.57,0.07 5.41,0.28l1.39 0.12c0.03,-0 0.05,-0.01 0.08,-0.02 0.29,-0.08 0,0.08 0.24,-0.12l-1.31 -0.81c-0.02,-0.01 -0.05,-0.03 -0.07,-0.04 -2.57,-0.48 -3.98,-0.72 -6.72,-0.77 -5.81,-0.11 -11.04,0.75 -16.54,2.36 -0.49,0.14 -2.65,0.91 -2.9,0.91z"/>
   <path class="fil9" d="M117.17 107.3l-3.01 1.79 -6.33 0.78c-0.05,0.01 -0.12,0.08 -0.14,0.05 -0.01,-0.02 -0.04,0.02 -0.06,0.01l0.6 0.25c-0.01,0.02 -0.07,0.08 -0.08,0.1 -0.1,0.17 -0.15,-0.11 -0.02,0.1 0.13,0.21 2.53,1.1 3.08,1.16 0.95,0.1 1.16,0.17 2.19,0.1 0.39,-0.03 0.65,-0.12 1.06,-0.21 1.02,-0.22 1.83,-0.8 2.5,-1.18l1.4 -1.09c0.42,-0.45 0.74,-0.91 1.09,-1.41 0.48,-0.68 0.57,-0.31 0.95,-0.65 0.21,-0.19 0.03,-0.14 0.35,-0.23 -0.21,-0.39 -0.05,-0.35 0,-0.77l-0.38 -0.31c0.01,-0.01 0.11,-0.14 0.12,-0.16l0.03 -0.12c0.12,-0.63 -0.04,0.47 0.01,-0.15 0,-0.02 0,-0.04 0,-0.09 0,-0.04 -0,-0.06 0,-0.09 -0.56,0.26 -1.68,1.14 -2.49,1.57l-0.8 0.51c-0.01,0.01 -0.04,0.04 -0.06,0.06z"/>
   <path class="fil11" d="M94.35 111.25c-0.48,0.28 -0.83,0.56 -1.43,0.85 -0.5,0.24 -0.98,0.48 -1.49,0.7 -5.61,2.5 -12.94,1.9 -18.34,-0.69 -2.59,-1.25 -4.95,-3.26 -5.32,-3.45 -0.01,0.35 -0.18,0.17 0.53,0.67 1.49,1.05 0.5,0.46 1.08,1.1 0.02,0.02 0.04,0.03 0.05,0.05l0.1 0.11c0.37,0.43 1.14,1.17 1.79,1.51l1.55 0.84c0.11,0.06 0.23,0.16 0.37,0.23 0.02,0.01 0.1,0.04 0.12,0.05l0.94 0.48c0.72,0.42 1.4,0.5 1.77,0.64 0.26,0.1 -0.06,0.07 0.39,0.2 0.62,0.18 0.14,-0.13 0.6,0.1 1.4,0.68 5.69,0.88 7.14,0.86 0.84,-0.01 1.49,-0.07 2.22,-0.2 1.67,-0.3 0.77,-0.19 1.86,-0.53 0.65,-0.2 1.31,-0.29 1.92,-0.49 3.19,-1.07 2.96,-1.8 3.62,-2.35 0.24,-0.2 0.38,-0.34 0.63,-0.47 0.08,-0.35 0.06,-0.09 -0.12,-0.2z"/>
   <path class="fil11" d="M119.2 101.22c1.54,-1.1 4.4,-5.22 4.91,-7.34 0.23,-0.97 0.73,-12.83 0.8,-14.49 0.06,-1.55 0.05,-1.44 -0.69,-2.37 -1.97,-2.45 -5.17,-3.39 -8.35,-3.99 -1.95,-0.37 -3.62,-0.44 -5.69,-0.42l-0.75 0.22c0.95,0.05 2.55,-0.02 3.39,0.12 0.42,0.07 0.96,0.21 1.46,0.25l0.78 0.05c0.62,0.11 -0.16,0.06 0.46,0.19 0.81,0.17 1.74,0.22 2.59,0.43 0.6,0.15 2.12,0.6 2.55,0.9 0.23,0.12 0,-0.09 0.09,0.22 0.53,1.76 3.18,1.43 3.63,4.46 0.19,1.3 -0.01,7.91 -0.19,9.26l-0.16 0.44c-0.24,0.35 -0.31,0.15 -0.42,0.65 -0.41,1.78 0.06,2.33 -1.35,5.56 -0.78,1.79 -0.44,0.96 -1.14,2.15l-0.4 0.81c-0.24,0.41 -0.57,0.53 -0.91,1.38l-0.24 0.54c-0.1,0.24 -0.18,0.47 -0.55,0.74 -0.07,0.49 -0.05,0.05 0.16,0.24z"/>
   <path class="fil14" d="M134.49 144.23c-0.14,-0.66 -1.11,-1.06 -1.75,-1.37 -0.54,-0.27 -0.96,-0.98 -2.05,0.45 -0.72,0.95 -0.61,1.23 -0.99,2.2 -0.34,0.86 -0.15,2.11 0.12,2.86 0.27,0.76 0.64,1.32 1.35,1.77 0.83,0.53 0.68,-0.04 1,-1.87 0.33,-1.94 1.75,-3.18 2.31,-4.02z"/>
   <path class="fil8" d="M76.83 131.06c2.89,-0.46 5.17,0.6 7.27,1.71 0.5,0.27 2.71,1.23 3.3,1.23 1.59,0.01 2.38,-1.51 2.83,-1.71 0.05,-0.23 0.19,-0.43 0.05,-0.71l0.05 0.45c-0.04,-0.02 -0.09,-0.09 -0.1,-0.06 -0.01,0.02 -0.07,-0.04 -0.08,-0.05 -0.01,-0.01 -0.07,-0.05 -0.1,-0.08 -0.28,0.07 0.01,0.14 -0.56,0.59 -0.56,-0.33 -0.24,-0.2 -0.46,-0.4 -0.53,-0.5 -1.33,0.17 -2.39,-0.31 -1.01,-0.45 -1.7,-0.83 -2.69,-1.29 -2.18,-1.02 -3.4,-0.54 -5.22,-0.49 -0.86,0.02 -0.78,0.2 -1.35,0.53 0.09,0.07 -0.02,-0.01 0.14,0.03l0.83 0.25c-0.46,0.13 -1.14,0.05 -1.52,0.31z"/>
   <path class="fil8" d="M72.96 157.41c0.62,-0.23 2.08,-1.64 2.4,-2.15 -0.23,-0.05 -0.08,0.07 -0.2,-0.1 0.42,-0.34 0.66,-0.76 0.99,-1.19l0.49 -0.62c0.01,-0.02 0.03,-0.04 0.05,-0.05l0.21 -0.19c-0.43,-0.26 -0.57,-0.31 -1.4,0.11 -2.54,1.28 -3.67,2.32 -6.56,3.4 -1.28,0.48 -1.81,0.48 -2.35,0.65 -0.41,0.14 -0.22,0.17 -0.56,0.29 0.26,0.11 0.17,0.02 0.4,0.05l0.31 0.09c0.08,0.04 0.17,0.09 0.2,0.11 0.28,0.14 -0.06,-0.02 0.14,0.07l0.43 0.18c-0.41,0.22 -0.83,-0.31 -1.48,-0.14 0.27,0.11 1.48,0.38 1.87,0.45 1.4,0.26 2.46,0.36 3.8,-0.29 0.28,-0.13 1.12,-0.76 1.28,-0.67z"/>
   <path class="fil15" d="M43.71 80.89l0.57 0.1c0.17,0.31 0.13,0.15 0.21,0.19 -0.05,0.75 -0.23,1.22 -0.32,1.99 -0.05,0.4 -0.11,0.56 -0.11,1 -0.01,0.41 -0.03,0.87 0.2,1.1l-0.07 -1.5c0.77,-0.71 3.79,-1.94 4.83,-2.53 0.25,-0.14 0.34,-0.25 0.45,-0.77 0.14,-0.63 0.04,-0.48 0.3,-0.94l0.04 0.14c0.24,-0.24 0.55,-1.71 1.13,-2.77 -1.49,0.21 -6.43,3.13 -7.23,4z"/>
   <path class="fil0" d="M119.31 47.01c0.02,0.03 0.04,0.06 0.05,0.08 0.01,0.02 0.04,0.05 0.05,0.07l0.76 0.48c0.28,0.1 0.28,0.11 0.45,0.22l1.49 0.7c0.02,0.01 0.05,0.03 0.07,0.04l2.31 1.18c0.02,0.01 0.04,0.03 0.05,0.04 0.01,0.01 0.04,0.03 0.05,0.04l0.45 0.37c1.45,0.85 4.32,2.85 5.41,4.03 0.22,0.24 0.41,0.51 0.66,0.65 0.09,0.05 0.86,0.34 0.94,0.33 0.15,-0.02 0.1,0.15 0.15,-0.15 0.07,-0.47 0.03,-0.02 -0.04,-0.21 -0.3,-0.77 -1.46,-2.11 -2.02,-2.7l-1.32 -1.37c-2.8,-2.75 -5.5,-3.59 -9.5,-3.82z"/>
   <path class="fil8" d="M83.34 98.31c0.09,0.25 0.4,0.59 0.61,0.76l2.49 1.7c0.22,0.15 0.55,0.48 0.82,0.58 0.57,0.21 0.74,-0.05 1.02,-0.27 0.57,-0.44 2.89,-1.63 1.72,-3.17 -0.59,-0.78 -1.04,-0.54 -2.3,-0.52 -1.62,0.03 -4.92,-0.6 -4.36,0.93z"/>
   <path class="fil8" d="M78.86 154.08l-1.26 1.13c-0.35,0.47 -0.84,0.9 -0.88,1.3 1.08,0.89 6.78,1.38 9.01,-1.93l-0.33 -0.14c-0.13,-0.01 -0.12,0.01 -0.28,0.04 -1.36,0.25 -4.38,0.13 -5.51,-0.28 0.13,-0.47 -0.07,-0.1 0.32,-0.36 0.12,-0.08 0.12,0.11 0.27,-0.21l-0.95 0.46c-0.17,0.1 -0.16,0.11 -0.25,0.21 -0.25,-0.14 -0.31,0.16 -0.15,-0.23z"/>
   <path class="fil8" d="M97.49 129.62c1.2,-0.43 5.93,-2.08 6.53,-2.63 0.04,-0.34 -0.07,-0.06 0.14,-0.27l0.81 -0.39c0.35,-0.18 0.64,-0.36 0.95,-0.54l4.01 -2.16c0.7,-0.36 1.01,-0.56 1.41,-1.16l0.13 -0.23c-0.76,0.29 -1.46,0.74 -2.11,1.13 -1.44,0.86 -4.93,2.52 -6.53,3.15 -2.62,1.03 -6.5,1.99 -8.41,2.83 -0.36,0.16 -0.83,0.33 -1.22,0.37 0.48,0.33 0.05,0 0.16,0.32l0.22 0.35c1.61,-0.26 3.18,-0.96 3.78,-1.03 0.02,0.03 0.06,0.06 0.08,0.07l0.07 0.14c0,-0.01 -0.01,0.04 -0.01,0.06z"/>
   <path class="fil4" d="M107.26 79.99c-1.14,0.25 -2.14,1.17 -1.83,2.67 0.21,1.01 1.35,1.98 2.64,1.75 2.69,-0.48 2.03,-5.05 -0.81,-4.42z"/>
   <path class="fil4" d="M59.68 77.91c-3.07,0.96 -1.65,4.96 0.97,4.39 0.94,-0.21 1.96,-1.47 1.62,-2.78 -0.26,-1 -1.31,-2.01 -2.59,-1.61z"/>
   <path class="fil3" d="M96.62 154.51c-0.09,0.11 -0.09,-0.11 -0.11,0.55l-0.08 2.17c0.89,-0.01 3.13,-1.23 3.94,-1.64 1.24,-0.63 2.32,-1.28 3.48,-2 0.87,-0.55 5.76,-3.66 6.22,-4.6 -0.17,-0.42 -0.85,-1.78 -1.23,-2.11 0.19,0.58 -0.05,0.1 0.18,0.89 0.11,0.37 0.09,-0.03 0.07,0.38 -0.03,0.63 -0.46,0.87 -0.74,1.26 -0.47,0.65 -0.2,0.59 -0.66,0.84l-0.44 0.26c-0.02,0.01 -0.04,0.03 -0.06,0.04l-2.08 1.31c-0.02,0.01 -0.05,0.02 -0.07,0.04l-0.55 0.43c-0.46,0.34 -1.3,0.6 -1.93,1.06 -0.18,0.13 -0.01,0.02 -0.18,0.12l-2.78 1.39c-0.19,0.11 -0.06,0.06 -0.24,0.15 -0.21,0.1 -0.24,0.08 -0.43,0.17 -0.26,0.13 -0.12,0.15 -0.45,0.25 -0.48,0.15 -0.18,-0.02 -0.51,0.02 -0.54,0.07 0.23,0.08 -0.51,0.16 -0.17,0.41 0.02,-0.45 0.01,0.15l-0.01 0.09c-0,0.01 0,0.03 -0.01,0.05 -0.51,0.06 -0.41,0.3 -0.72,-0.07l-0.12 -1.39z"/>
   <path class="fil8" d="M91.51 135.02c-0.34,0.56 -1.71,1.05 -2.29,1.34 1.12,0.93 3.62,2.11 4.43,4.04l-0.06 -2.46 -0.01 -3.77c-0.36,0.02 -0.87,0.11 -1.22,0.26 -0.35,0.15 -0.56,0.46 -0.85,0.58z"/>
   <path class="fil11" d="M82.66 135.7l-0.02 -0.36c-0.58,-0.24 -1.2,-0.59 -1.8,-0.89 -1.84,-0.92 -5.5,-1.53 -5.98,-2.05 -0.3,-0.18 -0.22,0.12 -0.19,-0.43l-0.45 0.49 0.01 0.6 0.35 0.22c0.62,0.33 -0.11,0.17 0.73,0.52 1.04,0.44 1.4,0.71 2.22,1.07 0.4,0.17 0.63,0.22 0.98,0.42 0.69,0.42 0.7,0.15 1.26,0.44l0.8 0.37c0.03,0.01 0.18,0.08 0.21,0.1 0.2,0.09 0.17,0.11 0.38,0.18 0.1,0 0.82,-0.77 1.49,-0.4l0.04 -0.28z"/>
   <path class="fil11" d="M122.19 103.65c0.29,-0.03 0.26,-0.04 0.43,-0.18 0.42,-0.34 -0.03,-0.15 0.52,-0.32 -0.05,0.68 0.04,0.7 -0.16,1.35 -0.13,0.4 -0.11,0.95 -0.2,1.39 -0.08,0.42 -0.16,0.87 -0.22,1.36 -0.02,0.18 -0.02,0.1 -0.02,0.31 -0,0.43 -0.54,1.92 -0.8,2.13 -0.33,0.26 -0.27,0.55 -0.59,1.16 -0.06,0.12 -0.11,0.17 -0.15,0.24l-0.92 1.17c-0.39,0.32 -0.04,0.02 -0.39,0.61l-0.29 0.52c-0.09,0.32 -0.03,0.38 -0.04,0.53 -0.08,0.78 -0.45,0.83 -0.55,0.96 -0.21,0.27 -0.05,0.42 -0.18,0.81 -0,0.01 -0.09,0.21 -0.09,0.21 -0.01,0.02 -0.02,0.05 -0.04,0.07 -0.24,0.42 -0.41,0.38 -0.77,0.82l-0.22 0.27c-1,0.98 -0.21,0.69 -0.88,1.21 -0.43,0.33 -0.56,0.53 -1.04,0.66 -0.14,0.39 0.12,-0.41 -0.02,0.14 -0,0.01 -0.01,0.04 -0.01,0.06 -0.16,0.53 -0.93,0.96 -1.51,1.54l-1.74 1.59c0.76,-0.18 4.38,-3.46 5.19,-4.42 2.49,-2.94 3.88,-4.76 4.88,-8.95 0.39,-1.61 1.27,-4.91 1.16,-6.66l-1.34 1.42z"/>
   <path class="fil11" d="M68.21 86.26c0.46,-0.78 -0.06,-2.38 0.2,-2.97l0.14 -0.26c0.01,-0.01 0.02,-0.04 0.03,-0.07 0.21,0.9 0.29,1.19 0.84,1.87 0.33,0.4 0.23,0.16 0.41,0.69 0.28,0.82 0.17,2.13 -0.04,2.74 -0.54,1.59 -0.51,3.27 -1.3,4.29 -0.72,0.93 -0.12,0.39 -0.98,1.31 -0.48,0.51 -0.26,0.65 -1.62,1.58 -0.83,0.57 -0.74,0.76 -2.39,1.48 -0.37,0.16 -0.69,0.29 -1.14,0.45 -0.24,0.09 -0.35,0.12 -0.61,0.19 -0.49,0.14 -0.43,0.14 -0.59,0.3 1.75,-0.07 4.94,-1.95 6.39,-3.45 0.36,-0.38 0.55,-0.81 0.95,-1.35l0.69 -1.33c0.45,-1.51 0.88,-2.87 1.05,-4.48 0.12,-1.09 -0.08,-1.89 -0.04,-2.84 -0.19,-0.86 -2.31,-3.31 -2.54,-3.44 0.48,2.61 0.63,2.15 0.52,5.3z"/>
   <path class="fil8" d="M134.49 144.23c-0.57,0.85 -1.98,2.08 -2.31,4.02 -0.32,1.83 -0.17,2.4 -1,1.87 -0.71,-0.45 -1.08,-1.01 -1.35,-1.77 -0.27,-0.75 -0.46,-2 -0.12,-2.86 0.38,-0.97 0.27,-1.25 0.99,-2.2 1.09,-1.42 1.51,-0.71 2.05,-0.45 0.65,0.32 1.61,0.71 1.75,1.37zm-2.32 6.56c-0.01,-1.17 0.42,-3.12 0.84,-3.99 0.25,-0.53 0.62,-1.08 0.98,-1.5 0.24,-0.29 0.96,-0.99 1.08,-1.25 -0.57,-0.48 -2.47,-1.77 -3.03,-1.94 -1.02,-0.32 -2.08,1.68 -2.39,2.43 -1.93,4.82 2.16,6.28 2.52,6.26z"/>
   <path class="fil15" d="M115.12 84.4c0.19,-0.09 -0.12,0.29 0.28,0.49 0.59,0.3 -0.18,-0.17 0.23,0.02 0.1,0.04 0.13,0.2 0.4,0.31 0.19,0.08 0.23,-0.03 0.46,0.23 0.42,0.46 0.09,0.42 0.49,0.68 0.1,-0.32 -0.01,-0.79 -0.03,-1.08 -0.03,-0.33 -0.26,-0.61 -0.44,-0.89 -0.09,-0.13 -0.13,-0.16 -0.21,-0.28 0,-0 0.12,-0.33 0.54,-0.05 0.2,0.13 0.3,0.29 0.45,0.44l0.39 -0.01c-0.59,-0.51 -1.06,-0.94 -1.64,-1.52 -0.37,-0.37 -1.15,-1.18 -1.75,-1.36l0.6 2.31c0.02,0.11 0.06,0.32 0.09,0.41l0.15 0.3z"/>
   <path class="fil8" d="M72.72 138.81c0.15,-0.17 0.14,-0.39 0.03,-0.56 -0.09,-0.13 -0.31,-0.23 -0.52,-0.28 -1.19,-0.25 -2.47,0.73 -3.11,1.6 -0.95,1.29 1.14,0.5 1.53,0.31l2.07 -1.08z"/>
   <path class="fil8" d="M71.29 144.68c0.92,0.03 2.86,-0.92 3.14,-1.56 -0.4,-0.87 -1.33,-0.56 -2.08,-0.21 -0.58,0.27 -1.94,0.96 -1.05,1.77z"/>
   <path class="fil1" d="M132.17 150.79c-0.35,0.03 -4.45,-1.44 -2.52,-6.26 0.3,-0.75 1.37,-2.75 2.39,-2.43 0.56,0.18 2.46,1.46 3.03,1.94 -0.05,-0.59 -0.62,-0.77 -1.39,-1.3 -1.93,-1.32 -2.46,-1.1 -3.36,0.07 -0.2,0.26 -0.42,0.44 -0.53,0.73 -0.34,0.89 -0.87,2.07 -0.91,3.05 -0.04,0.85 0.09,1.54 0.39,2.17 0.44,0.92 1.94,2.13 2.5,2.19 0.46,0.05 0.34,0.08 0.41,-0.16z"/>
   <path class="fil1" d="M58.73 134.65c0.58,-0.15 0.41,-0.12 0.84,-1.19 0.2,-0.49 0.43,-0.88 0.46,-1.49 -1.09,-0.21 -1.85,-0.85 -1.53,1.68 0.07,0.55 0.06,0.6 0.24,1z"/>
   <path class="fil3" d="M145.48 134.42c-0.43,0.13 -0.88,0.65 -1.27,0.98 -0.82,0.7 -3.02,2.86 -3.37,3.75l2.73 -2.5c1.07,-1.01 2.18,-1.64 2.89,-2.25 -0.16,-0.16 -0.01,-0.09 -0.24,-0.08 -0.03,0 -0.17,0.05 -0.23,0.06 -0.23,0.05 -0.28,0.05 -0.5,0.03z"/>
   <path class="fil11" d="M115.16 86.99c0.22,-0.31 0.19,-0.51 0.2,-1.46 -0.18,0.7 0.24,-0.32 0.38,1.17l0.24 -0.39 0.52 0.25c0.24,0.15 0.22,0.42 0.25,0.78 0.07,0.7 -0.09,1.25 -0.04,1.9 0.39,-0.42 0.29,-2.65 0.26,-3.13 -0.4,-0.26 -0.07,-0.22 -0.49,-0.68 -0.24,-0.26 -0.27,-0.15 -0.46,-0.23 -0.27,-0.11 -0.3,-0.26 -0.4,-0.31 -0.41,-0.18 0.36,0.28 -0.23,-0.02 -0.4,-0.2 -0.09,-0.59 -0.28,-0.49l0.05 2.59z"/>
   <path class="fil8" d="M116.94 85.04c0.56,0.01 0.11,0.64 0.33,1.19 0.28,-0.42 0.21,-0.47 0.28,-0.9 0.05,-0.29 0.21,0.19 0.03,-0.26l1.25 0.2c0,0 0.02,0.01 0.03,0.01 0.28,0.14 -0.36,0.01 0.2,0.18 0.01,-0.01 0.01,-0.06 0.02,-0.04l0.04 -0.08c0.04,-0.04 -0.06,-0.02 0.11,-0.09 0.37,-0.17 0.82,0.23 0.64,-0.28l-0.11 -0.21c0.37,-0.03 0.59,-0.07 0.68,-0.35 -0.29,0.11 -0.3,0.24 -1.17,0.3 -0.51,0.04 -0.99,-0.01 -1.5,-0.05 0.05,-0.32 -0.08,-0.11 0.26,-0.21l-0.36 -0.2 -0.39 0.01c-0.15,-0.15 -0.24,-0.31 -0.45,-0.44 -0.42,-0.27 -0.54,0.05 -0.54,0.05 0.08,0.12 0.13,0.16 0.21,0.28 0.19,0.27 0.41,0.56 0.44,0.89z"/>
   <path class="fil3" d="M48.29 151.22c0.14,0.2 -0.1,0.01 0.21,0.24l1.72 0.75c0.67,0.27 1.44,0.66 2.02,0.85l0.55 -1.17c-0.72,0.03 -1.72,0.1 -2.53,-0.11l-1.52 -0.47c-0.19,-0.04 -0.08,0.04 -0.45,-0.08z"/>
   <path class="fil7" d="M145.48 134.42c0.22,0.01 0.27,0.02 0.5,-0.03 0.06,-0.01 0.2,-0.06 0.23,-0.06 0.24,-0.01 0.08,-0.08 0.24,0.08 0.04,-0.02 0.28,-0.14 0.29,-0.14 0.21,-0.15 0.12,-0.1 0.22,-0.23l0.17 -0.27c-0.11,-0.08 0.07,-0.16 -0.27,-0.03 0.03,-0.06 0.1,-0.15 0.11,-0.19 0,-0.01 0,-0.04 0,-0.04 0,-0.01 -0,-0.04 -0,-0.05l-0.02 -0.17c-0.43,0.18 -0.44,0.23 -0.78,0.5 -0.38,0.29 -0.5,0.25 -0.68,0.65z"/>
  </g>
 </g>
</svg>
