<?xml version="1.0" encoding="UTF-8"?>
<!DOCTYPE svg PUBLIC "-//W3C//DTD SVG 1.1//EN" "http://www.w3.org/Graphics/SVG/1.1/DTD/svg11.dtd">
<!-- Creator: CorelDRAW 2021 (64 Bit) -->
<svg xmlns="http://www.w3.org/2000/svg" xml:space="preserve" width="144.685mm" height="134.944mm" version="1.1" style="shape-rendering:geometricPrecision; text-rendering:geometricPrecision; image-rendering:optimizeQuality; fill-rule:evenodd; clip-rule:evenodd"
viewBox="0 0 4585.4 4276.68"
 xmlns:xlink="http://www.w3.org/1999/xlink"
 xmlns:xodm="http://www.corel.com/coreldraw/odm/2003">
 <defs>
  <style type="text/css">
   <![CDATA[
    .str6 {stroke:#373435;stroke-width:22.85;stroke-linecap:round;stroke-linejoin:round;stroke-miterlimit:10}
    .str2 {stroke:#7B7355;stroke-width:22.85;stroke-linecap:round;stroke-linejoin:round;stroke-miterlimit:10}
    .str4 {stroke:#7F7E77;stroke-width:22.85;stroke-linecap:round;stroke-linejoin:round;stroke-miterlimit:10}
    .str3 {stroke:#2F3031;stroke-width:22.85;stroke-linecap:round;stroke-linejoin:round;stroke-miterlimit:10}
    .str0 {stroke:#7B7355;stroke-width:19.66;stroke-linecap:round;stroke-linejoin:round;stroke-miterlimit:10}
    .str7 {stroke:#373435;stroke-width:21.31;stroke-linecap:round;stroke-linejoin:round;stroke-miterlimit:10}
    .str5 {stroke:#7F7E77;stroke-width:22.41;stroke-linecap:round;stroke-linejoin:round;stroke-miterlimit:10}
    .str1 {stroke:#7B7355;stroke-width:17.02;stroke-linecap:round;stroke-linejoin:round;stroke-miterlimit:10}
    .fil5 {fill:none;fill-rule:nonzero}
    .fil0 {fill:#FEFEFE;fill-rule:nonzero}
    .fil9 {fill:#373435;fill-rule:nonzero}
    .fil4 {fill:#F9C0B8;fill-rule:nonzero}
    .fil1 {fill:#E3DCCE;fill-rule:nonzero}
    .fil7 {fill:#C879B2;fill-rule:nonzero}
    .fil8 {fill:#9C618C;fill-rule:nonzero}
    .fil3 {fill:#B39E6A;fill-rule:nonzero}
    .fil6 {fill:#7B7355;fill-rule:nonzero}
    .fil2 {fill:#7F7E77;fill-rule:nonzero}
    .fil10 {fill:#3E3334;fill-rule:nonzero}
   ]]>
  </style>
 </defs>
 <g id="Camada_x0020_1">
  <metadata id="CorelCorpID_0Corel-Layer"/>
  <g id="_2650591341280">
   <polygon class="fil0" points="959,2710.63 1453.89,3085.11 982.23,2673.3 "/>
   <path class="fil1" d="M616.46 3293.3c9.95,-15.38 30.97,-24.75 20.48,-28.3 -96.22,-32.54 -185.3,-16.89 -267.72,41.26l128.75 10.98c9.15,-14.45 17.99,-27.97 25.87,-40 19.2,-29.32 60.42,-1.12 92.61,16.06z"/>
   <path class="fil2" d="M1117.93 3247.67c-1.86,17.74 -17.76,30.61 -35.5,28.75 -17.74,-1.86 -30.61,-17.75 -28.75,-35.49 1.86,-17.74 17.75,-30.61 35.49,-28.75 17.74,1.86 30.61,17.76 28.75,35.5z"/>
   <path class="fil2" d="M873.57 3385.21c-1.88,17.74 -17.76,30.61 -35.5,28.76 -17.74,-1.86 -30.61,-17.76 -28.75,-35.5 1.86,-17.74 17.76,-30.61 35.5,-28.75 17.74,1.86 30.61,17.75 28.75,35.49z"/>
   <path class="fil3" d="M648.24 146.03c-52.3,-103.39 -10.84,5.19 -4.6,14.2 230.74,333.57 472.84,749.73 624.3,1132.03 8.09,20.41 117.42,252.64 101.8,257.37 -68.27,20.64 -212.16,15.68 -276.63,54.14 -18.27,10.89 -58.81,-200.81 -64.9,-217.8 -53.33,-149.04 -97.64,-303.25 -139.45,-459.01 -63.22,-235.55 -156.59,-541.69 -240.53,-780.94z"/>
   <path class="fil4" d="M656.05 2193.83c-51.52,-48.45 -29.73,-12 -70.89,-72.32 -163.44,-239.58 -137.41,-523.15 -205.03,-849.85 -40.5,-195.69 -73.13,-437.48 -78.63,-675.05 -4.19,-180.96 27.97,-305.82 94.29,-465.22 51.3,-123.32 105.01,-141.34 181.34,-56.26 69.44,77.4 114.83,213.36 151.18,332.93 67.49,222.08 156.5,470.74 209.83,689 33.95,138.97 42.42,192.38 86.91,324.61 6.31,18.77 96.25,178.37 82.09,189.15 -128.24,97.59 -282.83,113.33 -380,297.67 -21.23,93.62 -52.81,170.93 -68.18,266.21 -0.83,5.14 -1.57,10.31 -2.9,19.14z"/>
   <path class="fil5 str0" d="M631.49 125.53c182.58,445.84 300.55,1048.09 461.63,1478.24"/>
   <path class="fil5 str1" d="M625.35 2185.76c-149.8,-217.51 -195.33,-518.12 -236.66,-802.36 -47.01,-323.39 -113.75,-656.9 -72.29,-992.46 11.45,-92.59 32.68,-183.84 67.59,-266.88 17.61,-41.91 38.44,-85.26 69.88,-104.77 58.61,-36.32 119.6,25.61 164.08,85.37 268.57,360.87 597.1,1002.75 758.09,1449.9"/>
   <path class="fil1" d="M2771.46 3966.92c3.39,1 6.82,1.9 10.22,2.86 8.44,-2.4 17.08,-3.42 25.57,-2.75 39.05,3.05 76.3,11.97 113.48,23.67 13.24,4.16 26.45,8.4 39.75,12.31 13.42,1.25 26.77,3.15 40.11,5.25 7.69,-6.54 16.38,-11.82 25.4,-15.74l-27.86 -106.39 -263.95 69.16c12.36,4.05 24.77,7.97 37.29,11.63z"/>
   <path class="fil3" d="M800.94 2175.85c-133.96,50.62 -90.07,91.5 -152.46,224.52 -35.2,75.07 -230.34,102.13 -224.7,183.67 10.36,149.75 42.08,292.76 169.06,390.15 9.04,6.93 49.88,11.9 53.89,23.27 0.43,18.01 82.41,57.9 70.72,63.6 -73.92,35.91 -261.55,134.05 -325.88,183.26 -15.87,12.14 -8.87,58.93 -18.11,73.82 -15.88,25.65 -25.99,-25.07 -36.16,4.04l-10.07 51.54c-22.66,25.93 -24.87,35.43 -30.88,69.67 -19.32,65.4 -34.13,84.89 -39.92,153.92 -8.81,104.93 0.6,181.89 29.58,282.69 3.81,13.3 -3.96,51.59 -1.2,65.18 -109,-94.66 -126.63,-180.6 -191.12,-306.81 -91.17,-178.46 -122.11,-396.88 -64.53,-582.06 38.94,-125.19 50.03,-251.97 93.03,-375.19 34.39,-98.59 51.93,-201.23 72.58,-303.19 35.45,-175.07 95.26,-308.44 219.81,-449.06 126.83,-143.24 264.25,-267.87 443.8,-320.57 140.04,-41.11 283.73,-62.42 429.48,-71.53 87.71,-5.49 229.22,-32.16 317.33,-27.09 14.79,99.99 57.73,198.69 72.53,298.68 30.93,208.97 42.46,507.12 53.57,718.33 26.45,196.4 -123.41,300.96 -275.37,330.43 -18.27,13.46 -26.68,-17.51 -45.8,-5.21 -8.98,-3.4 -12.34,-10.3 -12.13,-19.44 10.56,-25.87 -298.55,15.92 -276.86,4.94 66.28,-33.54 -38.97,-37.83 -38.35,-107.06 0.9,-103.92 64.86,-22.81 54.38,-126.81 -7.64,-75.86 55.44,-69.09 29.28,-141.59 -27.97,-77.52 -148.67,-133.84 -238.85,-133.85l-126.64 -152.26z"/>
   <path class="fil3" d="M2288.58 2913.54c-23.63,-1.85 -37.59,-19.58 -53.74,-33.29 -45.76,-38.88 -82.86,-85.08 -115.36,-135.49 -51.72,-80.19 -61.62,-167.06 -44.93,-259.01 56.19,-309.34 148.67,-609.01 241.5,-908.6 0.73,-2.41 2.15,-4.59 3.25,-6.88 10.15,0.61 20.28,1.48 30.43,1.71 13.51,0.3 19.23,2.46 15.24,19.7 -11.36,48.83 12.73,82.4 52.67,107.11 64.58,39.93 137,56.77 210.56,67.21 43.81,6.22 86.89,18.88 131.75,17.63 14.85,-0.4 20.96,7.19 24.99,22.24 33.74,125.74 113.85,181.63 243.41,168.28 17.56,-1.82 21.1,4.6 27.92,16.2 40.26,68.65 77.29,139.21 122.43,204.99 26.23,38.18 58.07,70.19 98.32,93.25 49.46,28.35 92.19,19.84 126.13,-25.77 17.34,-23.29 33.61,-47.47 49.09,-72.07 13.26,-21.08 71.14,-166.64 79.54,-147.59 40,90.66 94.26,196.43 103.86,294.31 16.13,164.55 43.53,307.88 85.31,469.26 29.52,113.97 154.92,310.86 162.85,481.1 19.25,413.96 -295.27,665.76 -492.86,851.96 -14.26,-13.01 23.12,-153.43 26.3,-169.52 55.24,-279.82 -110.82,-577.77 -352.42,-714.35 -18.94,-10.7 -10.33,-35.8 -10.67,-59.53 10.32,-17.8 29.26,-24.05 45.8,-32.69 154.08,-80.63 217.11,-220.07 248.12,-380.85 9.95,-51.53 11.32,-103.14 6.38,-155.08 -13.71,-144.99 -93.8,-249.73 -207.34,-331.13 -107.09,-76.77 -229.01,-125.57 -351.62,-171.08 -105.84,-39.31 -178.51,-1.45 -292.91,-9.47 -53.4,-3.73 -71.92,5.8 -104.12,47.21 -39.79,51.18 -117.85,44.42 -135.72,105.55 -28.92,98.95 -48.18,199.82 -53.65,302.85 -2.54,48.07 13.87,105.06 12.99,153.5 -0.78,43.98 -9.09,64.61 20.83,93.71 23.81,23.2 58.41,37.69 66.86,74.84 -2.43,11.54 -10.07,17.5 -21.18,19.76z"/>
   <path class="fil3" d="M3851.48 632.41c115.21,-121.63 -122.4,234.44 -182.11,339.99 -123.2,217.66 -259.07,451.85 -391.37,664.47 -18.04,29 -36.34,57.84 -55.02,86.41 -5.27,8.06 -8.45,21.13 -20.49,19.88 -12.68,-1.3 -11.14,-15.16 -13.87,-24.04 -30.4,-99.53 -109.69,-158.38 -211.37,-157.24 -8.79,0.09 -21.75,10.26 -26.04,-4.12 -1.57,-5.32 7.4,-14.38 12.5,-21 117.84,-152.46 243.27,-298.43 376.81,-437.3 137.23,-142.72 281,-278.61 433.14,-405.48 13.53,-11.29 28.64,-20.66 43,-30.92 5.05,-2.58 33.1,-36.03 34.82,-30.65z"/>
   <path class="fil1" d="M317.48 3373.05c26.36,-25.28 64.4,-6.38 97.62,-16.83 10.43,-3.28 26.1,-14.39 35.33,-4.26 11.33,12.46 -2.6,26 -8.63,37.35 -18.35,34.53 -28.93,70.84 -37.69,109.11 -18.27,79.82 -5.18,156.86 12.82,233.58 23.46,99.99 55.39,197.48 98.28,291 9.5,20.72 9.58,31.4 -17.25,27.29 -94.89,-14.56 -201.89,-85.4 -275.04,-155.02 -43.47,-77.91 -38.25,-112.55 -40.7,-198.45 -2.91,-100.51 8.84,-200.27 49.56,-294.23 16.03,-30.62 29.03,-62.84 46.52,-92.79 1.85,-3.28 4.02,-6.36 6.36,-9.3 63.76,-94.77 147.38,-167.03 247.81,-220.99 31.64,-17.02 64.04,-30.72 99.12,-38.34 31.03,4.16 59.04,16.42 85.78,32.1 5.8,29.54 -24.25,35.3 -37.91,58.37 69.02,-51.55 135.48,-98.28 207.98,-136.26 148.19,-77.64 306.65,-116.45 472.07,-130.68 16.92,-1.45 -152.34,41.39 -138.04,31.83 59.88,-36.75 61.26,-8.89 107.37,-63.06 62.14,-73 175.53,-158.35 171.76,-252.56 -8.85,-220.29 -7.93,-494.29 -41.55,-711.87 -11.84,-76.68 -22.35,-153.62 -36.67,-229.92 -3.26,-17.34 -60.63,-111.46 -64.36,-120.41 40.38,-15.8 276.2,8.04 316.89,7.48 164.74,-2.3 329.55,7.91 493.13,26.49 48.74,5.53 100.95,0.81 147.65,23.3 7.69,18.36 -0.84,35.18 -5.82,51.89 -57.16,191.51 -117.04,382.28 -164.44,576.56 -28.36,116.18 -57.59,232.18 -69.39,351.78 -5.19,52.57 4.34,101.54 26.88,148.26 41.22,85.34 99.04,156.72 179.79,207.98 22.92,15.12 49.8,19.04 75.63,24.85 237.43,53.4 439.27,169.42 608.19,343.82 1.79,1.85 -15.41,25.27 -11.04,27.96 -8.13,-21.06 -67.37,-40.48 -67.44,-63.35 16.2,-19.97 95,-28.05 116.26,-30.2 30.53,3.8 -6.3,-66.53 17.78,-50.62 61.25,40.48 368.95,66.16 422.73,117.07 45.88,43.46 83.61,70.55 110.83,126.99 71.45,150.93 49.2,483.24 -62.67,628.83 -1.95,19.02 -103.22,70.96 -110.8,86.73 -116.86,96.3 -224.62,75.4 -384,84.94 -386.92,77.65 -9.9,-162.05 44.05,-261.32 -346.81,-295 49.26,-189.11 75.84,-249.34 26.42,-59.86 -10.67,-98.67 -34.78,-159.04 -3.27,-8.16 74.4,6.53 81.48,-0.84 7.48,-7.79 15.48,1.07 23.67,3.5 42.26,12.52 76.68,36.92 107.24,67.5l-2978.21 -236.88z"/>
   <path class="fil1" d="M3138.94 3579.86c-21.09,-53.02 -20.42,-53.09 -79.55,-45.15 -12.81,1.72 -27.14,2.13 -29.91,-14.87 -2.42,-14.78 11.63,-19.17 21.22,-21.17 94.69,-19.8 -151.58,-65.02 -81.54,10.14l-1173.1 -57.6c2.53,-36.97 5.18,-73.91 7.73,-110.89 3.86,-56.52 3.75,-56.09 -50.72,-70.95 -13.17,-3.61 -25.45,-10.76 -37.84,-16.84 -26.98,-13.2 -53.51,-27.21 -79.86,-41.53 -1.88,67.9 66.58,158.53 97.15,237.11l-1303.58 -64.02c-39.79,68.12 -85.74,157.28 -78.31,219.68 -1.62,178.87 76.8,403.4 238.44,473.24 113.16,48.87 141.6,68.35 271.49,22.11 83.15,-29.62 113.33,-83.97 180.28,-138 154.71,-124.88 265.42,-251.57 423.68,-372.39 56.42,-43.07 200.93,-8.68 280.7,-9.51 1.31,9.34 3.81,16.51 8.83,17.65 94.27,15.66 51.93,28.03 299.15,206.52 62.01,44.77 113.43,101.23 161.2,161.72 61.46,16.53 95.64,70.39 147.47,124.62 49.46,51.78 111.19,100.61 167.74,145.09 111.63,87.83 247.51,18.53 359.87,-35.81 10.01,-4.85 19.47,-7.03 28.32,-7.4 80.87,-99.31 170.83,-200.85 214.17,-318.53 35.62,-96.7 46.32,-194.32 6.98,-293.21z"/>
   <path class="fil1" d="M1659.24 3153.16c-32.07,8.26 -62.66,15.19 -74.83,14.37 -45.79,-3.1 27.97,-57.41 19.96,-76.95 -50.48,-123.5 231.97,-39.35 103.45,-81.03 -159.11,-51.6 -167.96,-85.39 -233.27,47.74 -16.01,32.69 -12.01,51.09 17.99,69.94 46.78,29.42 94.37,57.36 142.82,83.76 -0,-0.28 -0.04,-0.55 -0.04,-0.81 0.24,-6.38 11.18,-31.54 23.92,-57.02z"/>
   <path class="fil1" d="M1622.45 4193.5c-232.11,-17.18 -439.36,-89.14 -650.36,-181.64 -30.22,-13.23 -50.25,-0.39 -22.7,-21.89 155.35,-121.25 308.39,-244.92 464.47,-365.4 66.93,-51.68 161.13,-119.17 253.8,-126.23 67.57,-5.69 139.93,8.14 190.26,46.85 61.21,34.94 118.41,87.66 165.51,136.42 122.43,126.72 241.86,259.82 364.15,386.65 20.74,21.5 -23.03,3.4 -54.24,11.08 -180.26,44.38 -357.22,118.14 -545.74,118.22 -55.19,0.01 -110.04,-1.25 -165.15,-4.05z"/>
   <path class="fil6" d="M3066.17 3189.61c-76.61,34.91 -173.87,60.26 -178.8,-25.67 122.59,-5.61 229.24,-62.27 300.25,-167.25 66.62,-98.46 95.77,-216.81 123.72,-332.35 -52.37,-0.91 -67.61,-91.89 -18.4,-109.83 -28.9,-8.05 -57.77,-16.09 -86.67,-24.14 -5.27,-15.42 -4.69,-32.77 1.59,-47.81 -42.99,15.7 -86,31.4 -129,47.09 38.97,-28.71 36.26,-92.15 5.54,-129.54 -30.72,-37.41 -79.96,-53.82 -127.46,-63.07 -73.42,-14.32 -149.32,-15.78 -223.26,-4.32 -81.05,12.58 -161.5,41.83 -222.7,96.44 -98.19,87.62 -128.14,224.49 -119.01,351.15 5.03,70.05 48.84,125.72 -34.84,129.02 -258.2,9.98 -155.59,-507.05 -112.31,-629.07 81.07,-228.51 307.29,-334.53 534.21,-263.8 221.51,69.06 430.12,200.21 569.43,397.05 159.51,225.34 25.63,585.47 -202.94,733.22 -16.15,10.44 -45.76,27.58 -79.34,42.9z"/>
   <path class="fil6" d="M612.73 3004.94c-31.4,-24.23 -56.63,-47.14 -64.4,-55.11 -199.19,-204.46 -217.66,-569.86 -9.44,-760.86 167.95,-154.08 495.18,-286.79 719.22,-202.35 300.68,113.32 335.8,752.31 63.37,900.61 -32.55,17.72 -0.56,-4.32 1.35,-58.36 51.28,-95.59 66.6,-210.42 32.21,-313.38 -55.88,-167.26 -211.14,-232.39 -381.63,-256.33 -119.95,-16.85 -241.07,19.8 -357.14,45.61 -15.09,3.36 -32.47,8.66 -37.76,23.18 -4.85,13.34 2.89,29.61 -4.34,41.83 -12.04,20.37 -49.09,6.54 -63.65,25.17 -17.51,22.38 18.54,61.82 -2.6,80.79 -7.48,6.72 -19.18,6.72 -26.96,13.07 -10.57,8.61 -9.88,24.65 -8.24,38.19 11.17,92.47 22.71,186.34 59.08,272.08 36.38,85.74 101.59,163.78 189.81,193.64 32.68,11.06 77.84,33.65 63.42,64.99 -22.6,49.03 -109.72,-4.47 -172.3,-52.76z"/>
   <path class="fil4" d="M3239.58 1753.05c60.5,-95.65 116.63,-188.01 169.48,-282.3 127.42,-227.3 242.21,-461.64 379.58,-683.36 33.67,-54.35 70.72,-106.61 103.91,-161.22 71.7,-117.88 186.3,-184.1 299.81,-251.52 25.17,-14.95 54.24,-23.6 83.76,-25.69 62.91,-4.45 105.19,27.6 131.59,81.59 59.26,121.31 98.53,249.72 120.17,382.35 115.58,708.41 -110.52,1428.93 -641.91,1776.71 -90.18,59.01 -104.73,72.54 -204.26,123.07 -11.37,-57.27 -13.76,-116.19 -20.89,-171.14 -12.81,-98.78 -40.02,-337.55 -124.3,-471.91 -8.48,-16.96 -48.94,66.84 -39.79,53.17 32.09,-47.82 63.49,-96.1 94.97,-144.32 50.36,-77.23 26.45,-140.45 -62.81,-166.58 -93.17,-27.26 -187.25,-50.33 -289.29,-58.85z"/>
   <path class="fil6" d="M1439.89 2614.52c-26.25,288.8 -321.72,486.66 -567,463.72 -180.7,-16.91 -459.21,-126.47 -449.12,-494.19 7.85,-285.89 267.72,-460.35 526.06,-438.22 335.84,28.79 512.64,220.31 490.07,468.7z"/>
   <path class="fil6" d="M996.69 2865.3c-6.29,58.02 -59.96,99.55 -119.92,92.74 -59.95,-6.8 -103.46,-59.36 -97.19,-117.38 6.28,-58.02 59.96,-99.53 119.92,-92.73 59.95,6.8 103.46,59.36 97.19,117.37z"/>
   <path class="fil6" d="M2373.22 2680.54c-57.3,294.26 221.4,478.35 471.69,489.26 184.41,8.05 451.7,-64.95 492.56,-436.82 31.75,-289.11 -183.07,-455.75 -446.41,-469.3 -342.34,-17.6 -469.35,167.88 -517.85,416.86z"/>
   <path class="fil5 str2" d="M2812.6 4222.83c174.24,10.11 524.46,-22.64 665.18,-153.46 101.26,-114.4 349.49,-321.11 408.32,-624.7 23.16,-337.82 -107.78,-462 -165.14,-637.93 -90.21,-276.65 -36.58,-470.66 -184.46,-737.13 -156.47,-281.91 -545.67,-366.12 -845.26,-442.45 -440.07,-112.16 -903.52,-137.2 -1355.63,-106.73 -354.42,23.92 -707.39,133.7 -936.59,432.46 -134.95,175.91 -193.72,370 -240.83,578.99 -74.6,331.01 -204.87,609.61 -113.4,962.81 74.74,288.58 222.98,539.13 526.55,563.12"/>
   <path class="fil5 str3" d="M1555.2 3265.33c18.36,138.54 45.73,228.86 62.8,294.73"/>
   <path class="fil5 str4" d="M1016.74 4021.46c367.51,192.08 813.41,246.47 1308.57,61.4"/>
   <path class="fil5 str2" d="M3942.04 545.64c-298.82,399.08 -472.87,867.02 -757.53,1271.41"/>
   <path class="fil5 str2" d="M3702.1 2701.03c388.65,-195.61 592.95,-490.13 751.31,-895.53 163.33,-418.1 160.63,-898.52 -7.37,-1314.79 -19.25,-47.72 -43.11,-97.52 -87.33,-123.85 -82.37,-49.06 -185.8,5.99 -263.82,61.68 -471.17,336.17 -888.19,748.02 -1230.23,1214.9"/>
   <path class="fil7" d="M3596.61 1841.9c-15.28,-12.41 -31.77,-24.96 -50.37,-30.23l-1.83 -0.52c-58.93,-16.72 -119.87,-34 -181.19,-45.23 -40.44,-7.41 -82.26,-11.25 -122.69,-14.98 -14.84,-1.37 -30.07,-2.77 -45.3,-4.36 -8.52,-59.86 -39.15,-109.4 -89.07,-143.7 -0.03,-0.03 -0.07,-0.06 -0.1,-0.09 -48.61,-33.36 -105.56,-44.03 -165.32,-31.08 -6.48,-12.96 -12.79,-25.95 -18.93,-38.6 -17.35,-35.77 -33.76,-69.58 -53.88,-102.22 -36.4,-59.06 -72.74,-116.21 -117.05,-166.48 -27.71,-31.43 -57.84,-47.03 -87.16,-45.16 -29.8,1.91 -57.18,21.07 -81.41,56.91 -40.43,59.85 -83.41,119.56 -124.96,177.28 -18.89,26.24 -38.41,53.39 -57.45,80.19 -1.62,2.29 -3.25,4.53 -4.89,6.79 -6.74,9.37 -13.74,19.03 -19.52,29.61 -23.56,43.19 -14.71,88.84 23.1,119.15 16.88,13.54 34.45,24.58 52.21,32.8 68.57,31.84 140.57,44.31 214.46,55.24 28.92,4.28 58.32,7.84 86.73,11.28 9.59,1.15 19.17,2.32 28.72,3.5 7.45,62.93 39.74,118.44 89.63,153.45 0.55,0.4 1.1,0.76 1.64,1.15 49.82,34.24 111.15,44.64 173.84,29.62 9.32,16.29 18.64,32.75 27.7,48.75 24.45,43.21 49.73,87.92 76.37,130.84 28.96,46.68 62.55,94.2 111.97,128.17 3.62,2.49 7.33,4.92 11.11,7.24 50.33,31 101.21,21.4 132.78,-25.08 63.5,-93.41 129.41,-192.69 207.46,-312.38 25.1,-38.48 18.42,-83.43 -16.6,-111.87z"/>
   <path class="fil8" d="M3084.69 1635.88c-0.27,-0.2 -0.54,-0.38 -0.81,-0.56 -37.09,-25.18 -82.02,-34.37 -126.48,-25.85 -44.48,8.49 -82.83,33.6 -107.99,70.69 -51.72,76.19 -31.38,180.71 45.26,233.41 0.23,0.15 0.44,0.29 0.67,0.46 76.17,51.84 180.38,31.99 232.28,-44.25l0 0c25.5,-37.44 34.86,-82.67 26.36,-127.29 -8.35,-43.82 -32.93,-81.63 -69.28,-106.61zm-3 326.55c10.9,18.02 21.78,36.23 32.34,53.91 30.95,51.88 62.95,105.49 97.07,156.2 18.5,27.5 44.74,54.36 80.25,82.12 15.15,11.85 29.97,16.78 44.02,14.63 15.26,-2.36 30.01,-13.36 42.69,-31.81 12,-17.5 23.89,-35.58 35.38,-53.08 5.09,-7.75 10.17,-15.5 15.29,-23.22 13.87,-20.92 27.72,-41.83 41.58,-62.74 34.55,-52.09 70.26,-105.94 105.19,-159.03 17.75,-27.01 16.61,-49.23 -3.45,-66.05 -13.65,-11.45 -26.16,-19.47 -38.21,-24.49 -96.02,-39.91 -200.18,-49 -300.92,-57.8 -11.49,-0.99 -23.28,-2.04 -35.05,-3.08 -11.12,80.53 -44.73,131 -116.19,174.45zm-381.93 -689.23c-15.81,-10.88 -28.45,-15.19 -39.37,-13.52 -12.82,1.96 -25.75,12.64 -40.69,33.59l-13.09 18.4c-58.02,81.41 -117.99,165.6 -177.16,248.3 -21.38,29.91 -29.48,51.98 -25.5,69.53 3.99,17.61 20.97,34.14 53.4,52.02 3.51,1.92 7.36,3.59 11.44,5.36l0.3 0.13c73.17,31.79 151.29,44.07 238.46,55.78 19.33,2.59 38.35,4.67 58.5,6.91 5.16,0.57 10.36,1.12 15.57,1.71 12.07,-77.04 51.61,-131.63 120.45,-166.31 -2.61,-5.37 -5.22,-10.74 -7.82,-16.09 -42.35,-87.45 -82.35,-170.04 -140.75,-243.34 -16.16,-20.31 -31.58,-35.92 -47.13,-47.69 -2.25,-1.71 -4.46,-3.3 -6.6,-4.78zm562.11 1010.79c-49.42,-33.97 -83.03,-81.49 -111.98,-128.18 -26.63,-42.91 -51.94,-87.62 -76.37,-130.84 -9.05,-15.99 -18.37,-32.46 -27.71,-48.73 -62.67,15.01 -124,4.61 -173.82,-29.65 -0.55,-0.37 -1.09,-0.75 -1.64,-1.13 -49.89,-35.01 -82.18,-90.52 -89.62,-153.45 -9.56,-1.18 -19.14,-2.35 -28.73,-3.51 -28.42,-3.43 -57.81,-6.99 -86.72,-11.27 -73.89,-10.94 -145.89,-23.4 -214.46,-55.25 -17.77,-8.24 -35.33,-19.27 -52.21,-32.8 -37.81,-30.31 -46.67,-75.96 -23.1,-119.15 5.76,-10.57 12.75,-20.25 19.52,-29.61 1.62,-2.27 3.26,-4.52 4.86,-6.79 19.04,-26.8 38.57,-53.95 57.45,-80.19 41.55,-57.72 84.52,-117.43 124.96,-177.28 24.24,-35.86 51.63,-55.01 81.41,-56.91 29.33,-1.88 59.45,13.73 87.18,45.15 44.29,50.26 80.63,107.42 117.04,166.49 20.12,32.63 36.51,66.43 53.88,102.22 6.13,12.65 12.42,25.62 18.92,38.58 59.75,-12.92 116.72,-2.25 165.31,31.11 0.05,0.03 0.1,0.05 0.13,0.08 49.9,34.31 80.55,83.83 89.07,143.7 15.22,1.58 30.47,2.99 45.3,4.37 40.43,3.7 82.26,7.56 122.67,14.96 61.34,11.25 122.27,28.54 181.22,45.24l1.82 0.51c18.6,5.29 35.08,17.85 50.37,30.25 35.01,28.43 41.68,73.39 16.58,111.87 -78.04,119.69 -143.97,218.96 -207.44,312.38 -31.59,46.48 -82.47,56.09 -132.78,25.08 -3.81,-2.33 -7.49,-4.74 -11.1,-7.23z"/>
   <path class="fil5 str5" d="M3489.98 3347.75c-63.11,-76.8 -165.03,-111.96 -257.55,-88.87l71.45 -8.16c47.21,70.78 64.5,159.12 54.04,246.4 -24.34,203.03 -431.23,710.46 -652.06,757.25 -71.08,15.05 -142.85,-8.25 -202.77,-49.28 -150.67,-103.19 -236.97,-191.14 -385.28,-323.82 -111.98,-100.18 -339.53,-304.63 -499.79,-321.22l-21.99 -1.5c-120.8,-8.29 -221.32,89.7 -306.39,165.92 -104.35,93.51 -203.65,202.69 -311.93,295.34 -107.53,91.97 -186.07,117.26 -309.69,81.07 -190.21,-55.72 -283.23,-641.68 -158.72,-782.19l69.68 17.81c-88.52,-35.48 -194.29,-14.54 -267.29,52.92"/>
   <path class="fil0" d="M2337.7 2627.19c-12.49,270.62 203.39,439.43 433.3,449.44 169.39,7.39 414.95,-59.66 452.47,-401.28 29.17,-265.57 -168.16,-418.63 -410.06,-431.08 -314.49,-16.18 -464.94,150.16 -475.71,382.91z"/>
   <path class="fil5 str6" d="M2337.7 2627.19c-12.49,270.62 203.39,439.43 433.3,449.44 169.39,7.39 414.95,-59.66 452.47,-401.28 29.17,-265.57 -168.16,-418.63 -410.06,-431.08 -314.49,-16.18 -464.94,150.16 -475.71,382.91z"/>
   <path class="fil9" d="M2387.32 2630.43c-4.67,160.1 125.77,293.06 291.32,297.03 165.54,3.93 303.52,-122.65 308.19,-282.72 4.66,-160.1 -125.77,-293.08 -291.31,-297.03 -165.56,-3.95 -303.53,122.63 -308.19,282.72z"/>
   <path class="fil0" d="M2437.5 2660.2c-2.07,72.34 56.78,132.39 131.45,134.13 74.64,1.72 136.85,-55.53 138.93,-127.87 2.06,-72.34 -56.77,-132.37 -131.44,-134.11 -74.67,-1.72 -136.86,55.51 -138.94,127.85z"/>
   <path class="fil0" d="M2697.92 2790.27c-1.22,42.5 33.36,77.77 77.21,78.79 43.87,1.01 80.41,-32.62 81.63,-75.12 1.22,-42.49 -33.36,-77.76 -77.21,-78.78 -43.87,-1.02 -80.41,32.6 -81.62,75.11z"/>
   <path class="fil9" d="M3257.77 2640.95c14.02,-34.06 51.31,-85.98 51.31,-85.98l-79.08 -19.7 44.61 -102 -89.85 -13.95 22.23 -97.06c0,0 -54.81,6.17 -94.31,-1.23 -56.1,-10.53 -140.34,-57.65 -140.34,-57.65 0,0 149.16,71.2 225.7,189.3 35.02,54.01 12.16,314.75 12.16,314.75 0,0 33.58,-92.38 47.58,-126.46z"/>
   <path class="fil0" d="M1362.47 2627.92c-22.88,251.52 -243.75,379.97 -457.38,360 -157.38,-14.71 -375.66,-107.9 -366.86,-428.18 6.83,-249.01 208.57,-365.29 433.59,-346 292.52,25.07 410.31,197.83 390.65,414.18z"/>
   <path class="fil5 str7" d="M1362.47 2627.92c-22.88,251.52 -243.75,379.97 -457.38,360 -157.38,-14.71 -375.66,-107.9 -366.86,-428.18 6.83,-249.01 208.57,-365.29 433.59,-346 292.52,25.07 410.31,197.83 390.65,414.18z"/>
   <path class="fil9" d="M1316.23 2624.61c-16.06,148.44 -153.44,254.69 -306.85,237.26 -153.4,-17.4 -264.74,-151.87 -248.68,-300.32 16.05,-148.46 153.44,-254.69 306.84,-237.29 153.4,17.42 264.74,151.87 248.69,300.34z"/>
   <path class="fil9" d="M510.93 2523.6c-8.61,-33.24 -36.44,-85.94 -36.44,-85.94l75.54 -8.13 -28.22 -99.9 84.77 -1.44 -8.19 -92.48c0,0 49.83,12.68 87.28,10.86 53.12,-2.59 136.92,-35.4 136.92,-35.4 0,0 -146.82,46.79 -232.54,146.12 -39.21,45.46 -51.26,289.17 -51.26,289.17 0,0 -19.26,-89.61 -27.86,-122.86z"/>
   <path class="fil1" d="M3088.73 3241.66c-17.65,-18.27 -299.48,-376.23 -853.9,-361.41 -293.45,7.83 167.95,595.25 185.6,613.54 17.65,18.29 291.8,323.86 291.8,323.86l376.5 -575.99z"/>
   <path class="fil5 str4" d="M3088.73 3241.66c-156.76,-249.51 -675.97,-394 -1003.91,-370.8"/>
   <path class="fil2" d="M2309.77 3302.66c-1.23,17.79 -16.64,31.23 -34.43,30.01 -17.79,-1.22 -31.23,-16.64 -30.01,-34.43 1.22,-17.8 16.64,-31.24 34.43,-30.01 17.8,1.22 31.24,16.63 30.01,34.43z"/>
   <path class="fil2" d="M2535.25 3429.03c-1.23,17.8 -16.62,31.23 -34.43,30.01 -17.79,-1.23 -31.24,-16.64 -30.01,-34.43 1.23,-17.79 16.64,-31.24 34.43,-30.01 17.79,1.23 31.24,16.64 30.01,34.43z"/>
   <path class="fil2" d="M2276.32 3610.92c-1.23,17.79 -16.63,31.24 -34.42,30.01 -17.8,-1.23 -31.24,-16.64 -30.02,-34.43 1.21,-17.79 16.64,-31.24 34.43,-30.01 17.8,1.23 31.22,16.64 30.01,34.43z"/>
   <path class="fil2" d="M2559.23 3726.43c-1.23,17.79 -16.62,31.23 -34.43,30.01 -17.79,-1.21 -31.24,-16.64 -30.01,-34.43 1.23,-17.8 16.64,-31.24 34.43,-30.01 17.81,1.22 31.24,16.64 30.01,34.43z"/>
   <path class="fil1" d="M592.63 3253.37c19.96,-15.7 192.09,-332.8 799.3,-415.32 290.91,-39.54 -162.68,568.33 -182.65,584.03 -19.99,15.7 -333.28,281.01 -333.28,281.01l-283.38 -449.72z"/>
   <path class="fil5 str4" d="M683.2 3130.79c197.11,-167.44 432.1,-279.22 708.74,-292.74"/>
   <path class="fil10" d="M1523.51 3263.98c-90.86,-46.62 -184.1,-88.51 -267.27,-149.62 -31.63,-23.25 -20.89,-41.64 -4.13,-61.59 38.52,-45.85 86.43,-81.16 133.92,-117.35 47.13,-35.88 104.27,-38.63 156.72,-56.72 24.1,7.35 48.5,9.94 73.4,4.6 23.19,18.32 51.72,20.67 79.01,27.77 51.53,13.45 89.92,47.31 124.05,86.53 15.86,12.82 29.04,27.95 39.61,45.41 3.12,4.51 6.31,8.97 9.41,13.52 57.14,84.52 56.28,82.32 -36.66,119.2 -75.43,29.93 -143.93,76.67 -224.75,94.01 -27.3,-8.83 -55.07,-10.64 -83.31,-5.75z"/>
   <path class="fil5 str3" d="M1575.44 2878.36c143.67,11.48 277.79,105.51 332.3,262.65"/>
   <path class="fil5 str3" d="M1243.88 3092.26c42.52,-126.89 205.13,-219.5 331.57,-213.89"/>
   <path class="fil5 str3" d="M1244.5 3101.13c72.68,50.67 106.29,68.2 171.34,103.12 76.35,40.99 106.75,61.16 170.92,58.51 105.57,-4.33 187.77,-86.14 320.97,-121.75"/>
   <path class="fil0" d="M817.87 2594.3c-2.01,70.19 55.09,128.46 127.53,130.13 72.44,1.69 132.8,-53.85 134.81,-124.04 2.02,-70.22 -55.08,-128.49 -127.54,-130.14 -72.44,-1.7 -132.8,53.86 -134.8,124.05z"/>
   <path class="fil0" d="M1070.56 2720.5c-1.18,41.25 32.35,75.47 74.93,76.44 42.55,1 78.01,-31.64 79.18,-72.87 1.2,-41.25 -32.35,-75.47 -74.91,-76.44 -42.57,-1 -78.01,31.64 -79.2,72.87z"/>
  </g>
 </g>
</svg>
