<?xml version="1.0" encoding="UTF-8"?>
<!DOCTYPE svg PUBLIC "-//W3C//DTD SVG 1.1//EN" "http://www.w3.org/Graphics/SVG/1.1/DTD/svg11.dtd">
<!-- Creator: CorelDRAW 2021 (64 Bit) -->
<svg xmlns="http://www.w3.org/2000/svg" xml:space="preserve" width="50mm" height="47.1892mm" version="1.1" style="shape-rendering:geometricPrecision; text-rendering:geometricPrecision; image-rendering:optimizeQuality; fill-rule:evenodd; clip-rule:evenodd"
viewBox="0 0 212.21 200.28"
 xmlns:xlink="http://www.w3.org/1999/xlink"
 xmlns:xodm="http://www.corel.com/coreldraw/odm/2003">
 <defs>
  <style type="text/css">
   <![CDATA[
    .fil3 {fill:#090E22}
    .fil10 {fill:#224465}
    .fil2 {fill:#391615}
    .fil11 {fill:#663328}
    .fil13 {fill:#883C04}
    .fil15 {fill:#91ABB8}
    .fil9 {fill:#AB5225}
    .fil14 {fill:#B6CCD9}
    .fil18 {fill:#D2AD91}
    .fil17 {fill:#D3C5B3}
    .fil6 {fill:#D47423}
    .fil7 {fill:#E69545}
    .fil8 {fill:#F4940A}
    .fil1 {fill:#F9C959}
    .fil0 {fill:#FAB78A}
    .fil12 {fill:#FAD118}
    .fil16 {fill:#FBEECD}
    .fil4 {fill:#FCE69B}
    .fil5 {fill:#FDFDF9}
   ]]>
  </style>
 </defs>
 <g id="Camada_x0020_1">
  <metadata id="CorelCorpID_0Corel-Layer"/>
  <g id="_2175929355440">
   <path class="fil0" d="M103.38 140.5c-0.43,0.98 -2.13,0.93 -3.4,0.89 -1.29,-0.04 -2.57,-0.32 -3.36,-0.87 0.06,-1.35 2.1,-1.23 3.37,-1.18 1.29,0.06 3,0.12 3.39,1.16zm11.08 -11.97c0.65,0.01 1.45,0.48 1.91,0.8 0.52,0.36 0.97,0.9 1.13,1.67 -1.06,-0.23 -0.72,-1.11 -2.59,-2.19l-0.45 -0.28zm-28.7 -3.5c0.29,1.02 0.08,1.86 1.93,3.28 2.96,2.29 6.66,4.42 10.63,5.03 4.83,0.75 8.82,0.27 12.94,-2.11 0.84,-0.48 2.68,-1.64 3.82,-1.4 0.63,0.69 0.39,1.39 -0.12,2.08 -2.91,3.86 -11.31,5.65 -15.78,5.1 -5.17,-0.64 -12.07,-4.43 -15.46,-8.55 -0.71,-0.02 -1.62,0.54 -2.18,-0.02 -1.14,-1.14 1.53,-4.07 4.23,-3.41zm23.62 -8.25c1.12,1.45 0.02,3.44 -1.11,4.16 -1.85,1.18 -4.99,-1.45 -5.84,-2.84 -0.65,-1.07 -0.42,-1.39 0.92,-1.43 1.85,-0.05 4.21,-0.04 6.03,0.11zm-56.84 -26.74c0.67,-0.21 3.07,-1.83 4.54,-2.54 7.17,-3.47 15.94,-2.93 22.27,1.71 1.32,0.96 2.66,2.22 3.61,3.47 1.8,2.38 4.48,6.76 3.94,10.04 -0.38,-0.14 -0.09,0.08 -0.32,-0.17 -0.61,1.1 -0.24,0.62 -0.37,2.11l-0.17 0.59c-0.24,1.06 0.03,0.91 -0.57,2.52 -0.71,1.91 -2.1,4.16 -3.68,5.34 -1.91,1.43 -3.46,2.56 -5.99,3.04 -0.44,0.08 -0.9,0.16 -1.32,0.18 -0.22,0.01 -0.61,0.03 -0.82,0.02l-0.57 -0.14c-3.02,0.45 -3.82,0.19 -6.39,-0.93 -0.07,0.09 -0.01,0.23 -0.59,0.06 -2.48,-0.76 -4.96,-2.52 -6.56,-4.57 -2.07,-2.65 -3.33,-4.15 -3.38,-8.58 -1.23,-0.13 -5.05,-3.05 -5.69,-3.82 -1.3,-1.56 -2.54,-4.06 -2.86,-6.68 1.11,0.12 3.4,0.7 4.46,0.53 0.35,-0.05 0.2,0.04 0.48,-0.22 -0.28,-0.19 -0.13,-0.05 -0.4,-0.18l-0.2 -0.1c-0.01,-0.03 -0.04,-0.02 -0.06,-0.04l-0.24 -0.52c-0.22,-0.89 -0.4,-0.99 -0.47,-1.35 0.67,0.36 0.55,0.29 1.36,0.22zm92.03 -8.81c-2.33,0.19 -6.23,-4.28 -15.17,-2.87 -2.39,0.38 -5.17,1.24 -7.1,2.21 -3.88,1.94 -3.91,-0.05 -1.64,-3.04 0.26,-0.34 0.22,-0.27 0.56,-0.6 0.29,-0.28 0.25,-0.31 0.59,-0.57 1.54,-1.15 2.42,-1.81 4.38,-2.57 3.62,-1.41 8.1,-1.61 11.68,0.16 0.84,0.41 2.21,1.4 2.72,1.92 2.51,2.53 1.37,1.51 3.11,3.85 0.36,0.49 0.86,0.57 0.86,1.51zm-77.4 -1.67c-0.33,0.22 -0.73,0.2 -1.1,0.1 -0.39,-0.11 -0.58,-0.21 -1.12,-0.18 -1.3,0.05 -8.91,3.07 -10.98,3.77 -0.96,0.32 -0.82,0.34 -1.33,1.08 -0.71,1.02 -1.29,2.06 -2,2.99 -0.35,0.46 -0.74,0.87 -1.08,1.36l-1.12 1.31c-0.8,0.84 -1.48,1.87 -2.4,2.6 -1.67,1.33 -1.49,1.45 -1.73,2.57l-0.13 0.36c-0.01,-0.02 -0.03,0.06 -0.04,0.08 0.09,0.67 -0.38,3.19 -0.46,4.18 -0.11,1.45 -0.17,2.93 -0.25,4.41 -0.11,2.04 -0.27,11.13 -1.01,12.74 -0.44,0.98 -1.54,1.69 -3.04,1.1 -2.14,-0.84 -3.41,-3.73 -4.24,-4.88l-0.26 0.03c0.6,2.92 -1.42,5.07 1.7,8.36 0.6,0.63 1.43,1.04 2.11,1.48 2.09,1.35 0.02,3.15 -1.63,3.63 -2.09,0.61 -4.48,-0 -5.9,-0.85 -3.42,-2.05 -4.33,-4.85 -4.07,-9.87 0.14,-2.75 1.11,-4.68 -0.32,-5.34 -0.91,-0.42 -1.92,-0.63 -3.03,-0.3 -0.96,0.28 -1.74,1.12 -2.54,1.12 -0.33,-0.75 -0.11,-0.98 0.4,-1.62 1.26,-1.56 2.7,-2.35 4.8,-2.35 2.91,0 5.34,2.49 6.25,2.75 0.69,0.19 0.34,0.12 0.51,-0.07l-1.82 -3.97c-0.6,-1.46 -1.01,-2.8 -1.52,-4.27 -0.16,-0.47 -0.16,-0.7 -0.66,-0.86 -0.89,-0.29 -2.95,-0.33 -3.91,-0.2 -3.13,0.44 -5.22,2.3 -6.64,4.95 -2.35,4.38 -2.69,9.65 -1.01,14.34 1.55,4.32 2.29,5.9 5.44,9.07 4.54,4.58 12.75,7.05 18.71,2.5 1.43,-1.1 2.33,-2.41 2.82,-2.85 0.33,-0.28 0.69,-0.9 0.93,-1.28 0.42,0.45 0.74,0.92 1.17,1.43l3.03 3.57c3.52,4 8.43,8.06 12.86,11.16 1.25,0.88 4.76,2.9 5.9,3.5l5.44 2.57c4.43,1.9 10.13,3.05 14.92,3.79 0.74,0.11 1.58,0.31 2.25,0.37 2.06,0.2 5.69,0.58 7.54,0.56 0.71,-0.01 4.4,-0.14 4.67,-0.07l-0.07 1.27c0.08,0.44 -0.16,0.09 0.17,0.38 0.59,-0.8 -0.37,-4.3 2.98,-5.38 3.62,-1.17 11.44,-0.24 15.46,0.08 3.05,0.24 3.35,-1.97 5.91,-2.32 0.35,-0.43 0.98,-0.61 1.45,-0.91 1.61,-1.03 2.07,-1.02 4.13,-2.59 0.47,-0.36 0.87,-0.67 1.32,-1 1.43,-1.08 3.7,-2.82 4.9,-4.15 3.62,-4.03 3.88,-4.68 5.97,-9.69 2.17,-5.2 2.56,-17.58 2.95,-24.06 0.17,-2.79 0.49,-5.62 0.54,-8.45 -0.02,-0.03 -0.05,-0.06 -0.07,-0.08l-0.17 -0.23c-0.01,-0.04 -0.03,-0.05 -0.05,-0.07 -0.22,0.27 -0.19,0.19 -0.75,0.35 -1.19,1.89 -1.78,2.8 -3.56,4.05 -1.03,0.72 -3.04,1.74 -3.95,2.78 -0.31,0.35 -0.15,0.29 -0.49,0.5 0.33,1.88 -0.84,4.91 -1.53,6.42 -0.56,1.22 -0.79,1.52 -1.61,2.44 -0.45,0.49 -1.56,1.76 -2.04,2 -0.22,0.31 -2.61,1.18 -3.6,1.73 -1.69,0.94 -5.76,1.25 -7.63,0.74 0.2,-0.14 0.62,-0.07 0.81,-0.08 0.41,-0 0.42,0.02 0.71,-0.14 -5.43,0.35 -8.8,-4.42 -9.27,-9.43 -0.27,-2.86 0.18,-5.77 1.09,-8.14 1.1,-2.84 3.48,-6.53 5.69,-8.23 2.77,-2.13 5.39,-3.84 9.4,-4.5 2.7,-0.44 5.7,0.38 7.63,1.46 2.33,1.31 2.44,1.72 4.05,2.91 0.43,0.31 1.03,0.61 1.34,0.98 -0.24,0.57 -0.35,0.37 -0.79,0.7 1.57,1.35 4.14,0.31 4.82,0.28 0.34,-1.11 0.1,-6.34 0.02,-7.82 -0.15,-2.61 -0.43,-4.68 -0.86,-7.1 -1.13,-6.35 -4.05,-9.24 -6.81,-13.28 -0.65,-0.95 -2.18,-2.68 -2.67,-3.36 -2.36,-3.3 -5.21,-7.14 -7.76,-10.22 -0.56,-0.67 -1.11,-1.52 -1.84,-2.05l-2.02 3.73c-1.25,2.11 -4.47,6.54 -6.2,8.18 -0.55,0.52 -0.96,0.85 -1.43,1.35 -1.94,2.06 -3.94,3.49 -6.31,5.18 -2.96,2.1 -4.03,2.55 -7.22,4.15 -4.77,2.39 -11.64,4.52 -17.46,5.53 -0.64,0.11 -1.91,0.26 -2.45,0.42 -0.88,0.26 -0.25,0.98 -2.04,0.94 -1.88,-0.05 -3.69,-0.11 -5.57,-0.12l-11.24 0.02z"/>
   <path class="fil1" d="M69.87 42.15c1.41,-0.07 3.98,0.81 5.3,1.71 2.66,1.81 3.67,4.44 2.54,7.56 -0.38,1.05 -0.83,1.33 -1.7,1.88 -2.08,1.32 -4.55,1.63 -7.27,1.28 -9.5,-1.22 -8.38,-10.29 -1.98,-11.93 2.07,-0.53 1.03,-0.4 3.11,-0.5zm74.47 -1.64c1.07,-0.15 2.11,0.2 2.99,1.02 1,0.93 2.33,2.75 2.37,4.3 0.04,1.76 -1.52,3.54 -2.85,3.7 -1.72,0.21 -2.4,-0.43 -3.31,-1.19 -0.78,-0.66 -1.49,-1.41 -1.92,-2.49 -0.51,-1.24 -0.61,-2.4 0.07,-3.57 0.76,-1.31 1.4,-1.6 2.66,-1.78zm-30.55 -3.16c1.69,-0.47 3.3,0.45 3.98,1.37 1.6,2.14 0.78,6.24 -0.8,8.34 -3.89,5.17 -8.8,1.99 -7.89,-3.51 0.18,-1.09 0.96,-3.07 1.61,-3.82 0.52,-0.6 0.73,-0.88 1.36,-1.43 0.69,-0.59 0.71,-0.66 1.74,-0.95zm-13.59 -0.35c1.17,-0.25 2.18,-0.09 3.14,0.38 2.5,1.23 3.03,4.66 2.4,7.59 -0.74,3.46 -3.32,7.03 -6.79,7.61 -1.2,0.2 -2.18,0.06 -3.27,-0.25 -0.17,-0.05 -0.23,-0.07 -0.34,-0.12 -0.02,-0.01 -0.05,-0.03 -0.07,-0.04l-0.2 -0.14c-0.19,-0.14 -0.3,-0.24 -0.49,-0.43 -0.41,-0.41 -0.43,-0.43 -0.75,-0.99 -1.07,-1.91 -0.97,-3.71 -0.46,-6.05 0.71,-3.25 1.9,-4.73 4.23,-6.54 0.92,-0.71 1.28,-0.72 2.6,-1zm-77.73 23.52l0.71 -0.99c0.2,-0.41 0.39,-0.67 0.61,-1.12 1.38,-2.84 4.94,-7.94 7.07,-10.12 0.57,-0.59 1.17,-1.13 1.78,-1.7 0.31,-0.29 0.64,-0.53 0.92,-0.81 0.36,-0.35 0.44,-0.59 1,-0.82l0.37 -0.54c0.31,-0.8 4.85,-5.54 5.68,-6.21l3.97 -3.23c0.29,-0.2 0.38,-0.26 0.67,-0.5 2.49,-2.05 6.77,-4.4 9.63,-5.92 0.52,-0.28 1.11,-0.65 1.61,-0.79 -0.09,0.4 -0.21,0.48 -0.5,0.65l-1.45 0.98c-0.34,0.26 -0.32,0.31 -0.7,0.57 -0.77,0.51 -4.92,4.44 -5.14,4.61 -0.63,0.46 -1.86,1.74 -2.51,2.47 -0.15,0.16 -0.39,0.38 -0.58,0.59 -0.23,0.26 -0.36,0.45 -0.59,0.69 -1.22,1.24 -2.24,2.69 -3.34,3.98 -1.45,1.72 -1.84,2.6 -2.98,4.32 -0.95,1.43 -3.55,6.56 -4.09,8.21 -0.82,2.5 -1.9,4.73 -2.48,7.39 -1.55,7.18 -1.07,14.88 5.9,17.26 3.87,1.33 9.17,0.19 12.72,-0.84 1.88,-0.54 5.12,-2.13 6.87,-2.99 2.2,-1.09 4.23,-2.36 6.44,-3.43 1.1,-0.53 2.05,-1.23 3.07,-1.8l3.03 -1.84c2.42,-1.47 6.23,-4.42 8.23,-6.5 1.24,-1.29 2.43,-2.38 3.57,-3.86l1.65 -1.94c0.21,-0.27 0.29,-0.49 0.5,-0.79l0.85 -0.99c0.27,-0.37 0.14,0.1 0.26,-0.64 -0.7,0.23 -0.33,0.16 -0.99,0.71 -1.63,1.38 -4.53,3.25 -6.38,4.41 -1.17,0.74 -2.73,1.6 -3.96,2.18 -5.18,2.41 -8.12,3.36 -13.7,4.99 -1.51,0.44 -9.28,2.44 -10.45,1.73 0.31,-0.78 1.66,-0.76 3.12,-1.3 3.14,-1.18 10.15,-3.71 12.77,-4.98 2.29,-1.12 6.69,-3.33 8.66,-4.68 0.96,-0.66 1.7,-1.15 2.57,-1.84 3.03,-2.45 3.76,-2.45 7.33,-6.01 0.85,-0.85 1.47,-1.34 2.21,-2.19 0.58,-0.66 1.47,-1.36 2.2,-2.33l3.52 -4.24c0.31,-0.34 0.3,-0.41 0.77,-0.56 -0.2,2.06 -0.75,3.86 -1.31,5.58 -0.29,0.91 -0.55,1.65 -0.87,2.51 -0.22,0.6 -0.61,2 -1.2,2.35l-1.53 3.73c-2.85,5.91 -5.81,10.62 -10,15.53l-1.91 2.15c-0.51,0.54 -0.73,0.84 -1.31,1.36 -0.33,0.3 -2.48,2.43 -2.86,2.54l-0.54 0.73 4.03 -0.21 0.32 -0.2c-0.55,0.08 -0.02,0.14 -0.78,0.13 -0.38,-0.01 -0.65,-0.1 -0.95,-0.13 -0.75,-0.07 -1.13,0.15 -1.58,-0.12 0.4,-0.08 0.6,-0.25 1.01,-0.36 0.3,-0.08 0.77,-0.15 1.15,-0.23 0.84,-0.19 1.54,-0.38 2.41,-0.55 5.31,-1.05 8.28,-1.66 13.51,-3.51 4.72,-1.67 5.61,-1.98 10.07,-4.08 0.53,-0.25 1.36,-0.66 1.93,-0.97 2.52,-1.37 6.15,-3.79 8.51,-5.63 0.56,-0.44 1.15,-0.91 1.57,-1.33 1,-1 1.64,-1.46 2.91,-2.77 1.8,-1.86 3.78,-4 5.25,-6.12 1.28,-1.84 3.34,-5.04 4.19,-7.18 0.16,-0.41 1.36,-3.73 1.69,-4.04l0.28 -1.26c0.65,0.38 1.72,4.47 1.71,5.42 0.41,0.6 1.21,0.96 1.81,1.69 0.56,0.68 1.21,1.26 1.74,1.86 1.93,2.23 3.74,4.76 5.54,7.11 0.26,0.34 0.48,0.74 0.76,1.1l7.87 10.22c2.3,3.38 5.14,8 6.19,11.98 0.48,-0.18 0.12,-0.12 0.22,-0.66 0.03,-0.16 0.29,-0.33 0.46,-1.21 0.4,-2.08 1.09,-5.4 1.24,-7.35 0.44,-5.68 -0.81,-9.58 -0.79,-10.3 0.41,-0.01 0.43,0.33 0.56,0.7 0.14,0.4 0.22,0.56 0.4,0.99 0.25,0.61 0.52,1.3 0.75,2.03 1.58,4.9 2.49,9.25 2,14.76 -0.38,4.24 -1.73,12.43 -3.04,16.41 -0.46,1.41 -0.46,0.91 -0.7,1.4 -0.2,0.41 0.1,0.27 -0.23,0.59l-0.19 -0.07c-0.02,0.02 -0.06,0.07 -0.09,0.1 -0.16,0.97 -0.65,4.24 -0.44,5.1 0.56,-0.05 1.43,-0.44 1.6,-0.6 0.04,-0.85 0.87,-0.52 1.31,-1.56l2.55 -2.89c0.69,-0.8 2.27,-3.29 2.53,-4.08l0.41 -0.98c0.6,-1.13 1.01,-2.27 1.37,-3.5 0.15,-0.53 0.24,-0.76 0.33,-1.1 0.25,-0.95 0.41,-1.47 0.55,-2.69 0.04,-0.36 -0.02,-0.18 0.09,-0.63 0,-0.02 0.08,-0.29 0.08,-0.32 0.08,-0.38 -0.02,0.07 0.03,-0.22 0.07,-0.42 0.19,-0.83 0.25,-1.26 0.42,-2.84 0.39,-6.49 -0.09,-9.14l-0.14 -1.38c-0.05,-0.36 -0.22,-0.83 -0.31,-1.25 -0.98,-4.63 -0.85,-3.28 -2.18,-7.15 -0.56,-1.63 -3.19,-7.1 -4.44,-8.93 -0.48,-0.71 -0.9,-1.32 -1.34,-2.03 -0.44,-0.7 -0.97,-1.2 -1.44,-1.91 -1.27,-1.92 -4.43,-5.95 -6,-7.35 -0.12,-0.1 -0.49,-0.35 -0.5,-0.35l-1.09 -1.19c-0.67,-0.59 -1.08,-1.05 -1.7,-1.55 -0.6,-0.5 -1.09,-0.94 -1.88,-1.48l-5.03 -3.31c-0.38,-0.19 -0.77,-0.23 -0.83,-0.68 -0.47,0.2 -1.75,-0.37 -2.33,-0.7 -0.12,-0.07 -0.55,-0.34 -0.68,-0.37 -0.43,-0.12 -0.56,0.03 -0.89,-0.06 -0.75,-0.2 -0.78,-0.71 -1.9,-0.82 0.05,2.13 0.03,4.78 -0.37,6.92 -0.01,0.06 -0.52,7.94 -1.22,6.1 -0.02,-0.05 -0.05,-0.23 -0.06,-0.29l-0.06 -2.01c0.01,-2.86 -0.39,-7.07 -1.49,-9.64 -0.75,-1.78 -2.09,-3.72 -3.32,-5.13 -1.99,-2.27 -1.06,-1.23 -2.84,-2.85 -1.57,-1.43 -3.22,-2.51 -5.08,-3.51l-1.86 -0.94c-1.21,-0.69 -2.54,-1.21 -3.85,-1.73 -6.34,-2.48 -12.74,-2.9 -19.71,-2.89 -3.39,0.01 -6.22,0.45 -9.46,0.89 -2.96,0.4 -2.41,0.42 -5.02,0.98 -3.2,0.69 -7.61,2.19 -10.78,3.42 -0.76,0.3 -0.96,0.44 -1.71,0.81 -2.52,1.23 -5.24,2.35 -7.58,3.8 -1.71,1.05 -3.61,2.12 -5.29,3.29l-2.53 1.77c-0.85,0.54 -1.56,1.23 -2.35,1.81 -0.51,0.37 -1.03,0.85 -1.51,1.27l-1.47 1.31c-1.39,1.05 -2.36,2.38 -3.8,3.4l-1.37 1.4c-1.12,0.99 -5.13,5.47 -6.05,6.6l-2.52 3.16c-1.69,1.89 -3.1,4.77 -4.42,6.94 -0.34,0.56 -0.65,1.27 -1.13,1.65 -0.29,0.23 -0.08,0.1 -0.39,0.31 -0.11,0.08 -0.32,0.18 -0.46,0.22 -0.12,0.04 -0.2,0.06 -0.21,0.06l-0.62 0.28c0.32,0.41 0.18,0.01 0.3,0.43l-0.43 0.37c0.48,0.29 0.29,0.25 0.23,0.94 -0.04,0.53 -0.36,0.78 -0.15,1.33z"/>
   <path class="fil2" d="M149.12 153.02c-1.5,-0.52 -0.92,-0.52 -3.39,-1.21 -1.46,-0.41 -2.36,-0.38 -3.04,-1.57 -1.29,-2.25 -2.09,-3.85 -5.43,-3.89 0.25,-0.15 0.7,-0.58 1.04,-0.83 2.54,-1.91 5.15,-4.57 6.94,-7.22 0.59,-0.87 0.91,-1.61 1.4,-2.54 0.82,-1.57 0.66,-1.07 2.31,-1.76 2.67,-1.12 4.45,-2.86 5.07,-3.15 0.16,-0.29 0.55,-0.54 0.76,-0.75 0.69,-0.66 1.68,-1.99 2.2,-2.79 0.38,-0.58 0.86,-1.4 1.21,-2.14 0.18,-0.39 0.92,-2.09 1.07,-2.23 0.51,0.58 1.54,3.63 1.85,4.59 2.67,8.42 2.72,19.24 -3.7,25.74 -1.08,1.1 -1.9,2.34 -3.49,3.12 -1.15,0.56 -1.12,0.66 -2.47,0.16 -0.84,-0.31 -1.79,-0.48 -2.45,-0.88 0,-0.89 0.15,-1.86 0.11,-2.64zm-0.01 -23.11l0.68 -3.52c0.83,-5.04 1.13,-10.78 1.76,-15.89 0.24,-1.91 0.17,-6.2 1.12,-7.69 0.36,-0.57 1.82,-1.53 2.89,-1.48 0.62,0.92 1.49,2.08 1.84,3.11 0.53,1.54 0.33,2.97 0.63,4.46 0.45,2.24 0.11,6.96 -0.58,9.13 -0.97,3.08 -3.03,7.84 -5.3,9.9 -0.69,0.63 -2.05,1.84 -3.04,1.98zm-99.62 42.95c-0.11,-0.21 0.19,-0.23 -0.13,-0.17 0.86,-0.12 0.05,-0.37 0.82,-1.12l0.64 -0.78c0.87,-0.91 1.15,-1.18 2.16,-1.54 0.86,-0.31 2.69,-1.54 3.17,-2.32l0.66 -1.3c-0.24,0.07 -0.54,0.14 -0.82,0.59 -0.2,0.32 -0.05,0.48 -0.34,0.86 -2.09,1.99 -11.2,2.05 -14.72,1.53 -6.3,-0.93 -12.83,-3.97 -17.09,-8.35 -0.45,-0.46 -0.62,-0.59 -1.01,-1.08 -1.18,-1.48 -1.54,-1.68 -2.73,-3.65 -1.42,-2.36 -2.88,-6.4 -3.56,-9.2 -0.13,-0.54 -0.28,-1.15 -0.38,-1.7 -0.08,-0.42 -0.18,-1.56 -0.28,-1.84 -0.54,0.71 -1.49,6.81 -1.61,8.17 -0.29,3.3 0.19,6.4 0.09,9.58 -2.97,-2.01 -5.81,-5.72 -7.56,-9.8 -1.91,-4.48 -2.62,-9.44 -2.38,-14.99 0.23,-5.36 1.42,-9.79 2.92,-14.45 0.74,-2.3 3.55,-11.85 4.43,-12.89 0.09,-0.37 0.22,-0.49 0.33,-0.81 0.1,-0.26 0.11,-0.54 0.23,-0.79 0.22,0.5 0.44,0.86 0.54,1.54 0.09,0.13 0.51,1.58 0.54,1.79 0.13,1.01 -0.29,4.39 0.11,7.08 1.17,7.84 5.04,14.16 11.63,18.02 1.82,0.77 1.3,0.72 3.83,1.68 7.3,2.76 12.89,-1.05 13.58,-1.09 3.01,3.6 2.3,3.2 5.71,6.41 2.14,2.02 4.2,3.77 6.67,5.51 8.87,6.24 15.58,7.61 16.32,8.12l0.03 0.54c0.23,-0.29 0.16,-0.29 0.27,-0.63 0.46,0.03 2.34,0.75 2.82,0.98 0.2,2.2 -1.02,4.46 -0.66,6.63 0.42,-0.58 0.36,-2.18 0.6,-3.4 0.26,-1.31 0.34,-2.37 0.34,-3.75l5.41 1.5c1.83,0.49 3.64,0.96 5.53,1.32 3.87,0.76 5.12,1.11 9.04,1.21 0.92,0.02 2.66,-0.05 3.46,0.1 0.57,1.67 0.34,5.21 1.1,8.3 0.17,0.71 0.77,2.01 0.71,2.5 0.03,0.02 0.06,0.04 0.07,0.07 0.16,0.38 0.16,-0.07 0.19,-0.1 0.03,-0.55 -0.14,-0.94 -0.1,-1.49 0.04,-0.48 0.55,-0.93 0.58,-0.96 0.37,-0.54 0.75,-4.39 0.74,-5.55 -0.02,-1.1 0.01,-2.07 0.23,-2.78l-0.49 -0.38c0.2,-0.42 0.4,-1.43 0.44,-2 0.09,-1.7 0.38,-0.34 0.28,-1.59 -6.55,0.12 -13.17,-0.02 -19.17,-1.91 -1.32,-0.41 -2.85,-0.63 -4.19,-1.02 -4.72,-1.39 -7.23,-1.94 -11.63,-4.39 -5.34,-2.98 -7.86,-4.39 -12.59,-8.64l-5.24 -5.44 -2.31 -3.03c-0.4,-0.59 -1.69,-2.77 -2.16,-3.11 -0.49,0.44 -1.38,1.75 -2.82,2.85 -5.96,4.55 -14.16,2.08 -18.71,-2.5 -3.14,-3.17 -3.89,-4.75 -5.44,-9.07 -1.68,-4.68 -1.33,-9.95 1.01,-14.34 1.42,-2.66 3.5,-4.51 6.64,-4.95 0.95,-0.13 3.01,-0.09 3.91,0.2 0.5,0.16 0.5,0.39 0.66,0.86 0.51,1.47 0.92,2.81 1.52,4.27l1.82 3.97 1.98 3.05c0.83,1.16 2.1,4.05 4.24,4.88 1.5,0.59 2.6,-0.13 3.04,-1.1 0.73,-1.61 0.9,-10.7 1.01,-12.74 0.08,-1.48 0.14,-2.96 0.25,-4.41 0.08,-0.99 0.54,-3.51 0.46,-4.18 -0.06,-0.53 -0.1,-0.51 -0.01,-0.92 0.24,-1.01 0.31,0.09 0.08,-0.72 -0.01,-0.03 -0.05,-0.04 -0.06,-0.1 -0.01,-0.06 -0.04,-0.08 -0.07,-0.11 -0.14,0.37 -0.16,0.23 -0.26,0.74 -0.05,0.26 -0.06,0.55 -0.08,0.84 -0.29,-0.22 0.1,-0.08 -0.22,-0.25 -0.31,-0.17 -0.01,-0.03 -0.4,-0.08 -0.02,-0 -0.05,-0 -0.07,-0 -0.02,-0 -0.05,-0.01 -0.07,-0.01l-0.48 -0.13c0.15,0.45 0.06,0.35 0.03,0.75l-0.08 0.88c-0.06,0.33 -0.12,0.11 -0.27,0.46 -0.16,0.37 0,0.14 -0.09,0.36 -0.24,0.54 -0.21,-0.3 -0.42,1 -0.12,0.76 -0.33,1.03 -0.47,1.45 0.02,-0.71 0.05,-0.42 -0.35,-0.48 0.05,0.43 -0.01,0.85 -0.13,1.16 0.08,1.02 -0.07,2.46 -0.1,3.51 -0.1,3.11 -0.03,6.06 -0.15,9.17 -0.01,0.29 -0.02,0.59 -0.04,0.85l-0.06 0.52c-0.01,0.04 -0.02,0.07 -0.03,0.1l-0.09 0.19c-1.93,-1.11 -6.44,-8.86 -6.56,-10.87 -0.43,-0.44 -1.51,-3.35 -1.47,-3.93 -0.33,-0.28 0.05,0.04 -0.28,-0.51l-0.35 -0.34c-0.03,-0.02 -0.08,-0.06 -0.23,-0.12 0.31,-0.11 0.08,0.1 0.16,-0.17 0.13,-0.45 0.1,0.01 -0.05,-0.18 0.03,-0.31 0.12,0.09 -0.15,-0.2 -0.09,-0.1 0,0.29 -0.1,-0.15l0.03 -0.54 -3.73 -1.1c-0.96,-0.08 -1.97,-0.24 -3.04,-0.2l-2.29 0.21c-0.17,0.05 -0.36,0.28 -0.52,0.43 -4.11,3.4 -2.85,1.55 -5.96,5.93 -0.28,0.4 -0.54,0.77 -0.78,1.2 -0.28,0.5 -0.44,0.93 -0.66,1.35 -0.35,-0.71 -0.63,-1.65 -0.9,-2.38 -0.31,-0.87 -0.61,-1.56 -0.89,-2.5l-1.58 -5.22c-0.79,-2.29 -1.31,-6.35 -1.57,-8.99 -0.35,-3.5 -0.33,-6.67 -0.06,-10.19 0.46,-6.05 1.18,-8.14 2.63,-13.39 0.47,-1.68 2.3,-6.28 2.96,-7.58 0.63,-1.24 1.17,-2.42 1.77,-3.57 1.13,-2.19 5.43,-8.91 7.42,-11.14l5.17 -5.51c0.46,-0.38 0.94,-0.78 1.47,-1.14 0.27,-0.37 1.64,-1.48 2.19,-1.94 1.52,-1.27 5.53,-4.4 7.06,-5.35 4.67,-2.92 4.96,-3.22 10.45,-6.02 3.72,-1.9 7.65,-3.36 11.7,-4.89 5.43,-2.05 14.03,-3.96 20.05,-4.74 11.81,-1.52 24.84,-1.25 35.44,4.29 1.85,0.97 3.54,1.95 5.16,3.08 3.53,2.47 6.01,4.79 7.64,8.95 0.64,1.63 0.75,2.04 1.93,2.23 6.64,1.04 12.7,3.17 18.03,6.69 1.69,1.12 5.14,4.43 6.41,5.89 1.45,1.67 2.32,2.68 3.59,4.64l3.03 5.21c1.87,3.83 3.36,7.67 4.25,12.33 0.91,4.78 1.16,10.24 0.25,15.08 -0.84,4.47 -2.69,8.59 -4.93,11.53l-2.84 3.43c-1.36,1.46 -3.9,3.73 -5.82,4.47 -0.17,0.15 -1.05,0.54 -1.6,0.6 -0.21,-0.86 0.28,-4.13 0.44,-5.1 0.32,-3.14 0.47,-5.74 0.41,-9.01 -0.02,-1.49 -0.12,-2.96 -0.28,-4.4 -0.17,-1.47 -0.49,-2.59 -0.73,-3.96 -1.05,-3.98 -3.89,-8.6 -6.19,-11.98l-7.87 -10.22c-0.27,-0.36 -0.49,-0.76 -0.76,-1.1 -1.8,-2.34 -3.61,-4.88 -5.54,-7.11 -0.52,-0.6 -1.18,-1.18 -1.74,-1.86 -0.6,-0.73 -1.4,-1.09 -1.81,-1.69 -0.48,0.41 -0.74,1.67 -1.27,2.18 -0.24,1.24 -2.89,5.5 -3.65,6.66 -1.76,2.7 -2.65,3.58 -4.45,5.77l-3.87 3.79c-4.25,3.62 -8.91,6.83 -14.19,8.9 -5.54,2.17 -9.79,3.5 -15.88,4.51 -1.25,0.21 -8.25,1.23 -9.05,1.04l0.27 -0.03c-0.19,0.23 -0.23,0.14 -0.34,0.5 0.7,-0.22 3.61,-0.23 4.03,-0.3 0.02,-0 0.05,-0.02 0.07,-0.02 0.24,-0.04 0.03,-0.07 0.38,0.02l-0.21 0.62c0.08,0.2 -0.27,0.86 1.17,0.28 0.03,0.02 0.1,0.12 0.12,0.14 0.16,0.21 -0.24,-0.21 0.11,0.15 0.2,0.22 -0.15,0.05 0.37,0.21l-0.16 0.18c-0.01,0.01 -0.04,0.03 -0.05,0.05 -0,0 -0.3,0.04 -0.22,0.66 0.08,0.65 0.14,-0.45 0.28,0.82l1.33 0.05c-0.68,0.13 -1.57,-0.01 -2.17,-0.01 0.48,-0.13 0.35,-0.01 0.63,-0.25 -0.39,-0.08 -0.48,-0.08 -0.76,-0.07 -0.62,0.02 -0.23,-0.14 -0.48,0.3 -0,0 0.08,-0.73 -1.09,-0.23l0.39 0.17c0.03,0.01 0.06,0.01 0.09,0.01 0.57,0.08 -0.16,-0.19 0.36,0.01 -1.41,0.37 -10.83,-0.38 -13.66,0.23l0.21 0.11c0.03,0.01 0.22,0.06 0.26,0.06l11.24 -0.02c1.88,0.01 3.68,0.07 5.57,0.12 1.79,0.05 1.17,-0.68 2.04,-0.94 0.54,-0.16 1.81,-0.31 2.45,-0.42 5.82,-1.02 12.68,-3.14 17.46,-5.53 3.18,-1.59 4.26,-2.04 7.22,-4.15 2.36,-1.68 4.36,-3.11 6.31,-5.18 0.47,-0.5 0.88,-0.83 1.43,-1.35 1.73,-1.64 4.95,-6.06 6.2,-8.18l2.02 -3.73c0.73,0.53 1.28,1.38 1.84,2.05 2.54,3.08 5.4,6.92 7.76,10.22 0.49,0.68 2.02,2.41 2.67,3.36 2.76,4.04 5.68,6.94 6.81,13.28 0.43,2.42 0.71,4.49 0.86,7.1 0.09,1.48 0.32,6.71 -0.02,7.82l0.2 0.05c-0.02,0.35 -0.14,1.01 -0.28,1.32 0.38,0.11 0.19,-0.31 0.22,0.43 0,0.02 -0.08,0.57 -0.08,0.6 -0.04,0.39 -0.05,0.81 -0.09,1.17 -0.04,2.84 -0.37,5.67 -0.54,8.45 -0.39,6.48 -0.78,18.86 -2.95,24.06 -2.09,5.01 -2.35,5.66 -5.97,9.69 -1.2,1.33 -3.46,3.07 -4.9,4.15 -0.44,0.33 -0.84,0.64 -1.32,1 -2.07,1.57 -2.52,1.56 -4.13,2.59 -0.47,0.3 -1.11,0.48 -1.45,0.91 0.56,-0.04 0.75,-0.18 1.06,-0.2 0.42,0.46 -0.69,0.28 0.59,0.51l0.14 0.03c0.85,0.08 -0.1,-0.25 0.61,-0.01 0.4,0.14 0.02,0.01 0.29,0.17 0.39,0.23 -0.06,0.05 0.41,0.2 0.54,0.17 0.58,0.06 0.58,0.06 0.03,-0.01 0.06,-0.02 0.09,-0.02 0.79,-0.21 0.84,-0.56 1.24,-0.63 0.56,-0.09 1.7,-0.61 2.13,-0.91 0.36,-0.25 1.62,-0.86 2.05,-0.91 0.65,-0.08 2.53,0.19 3.24,0.72 2.21,1.65 1.68,2.76 2.92,3.69 1.24,0.94 5.84,1.32 5.6,2.45l-0.16 0.76c-0.01,0.01 -0.03,0.04 -0.04,0.05 -0.06,0.08 -0.36,0.37 -0.1,0.03 0.36,1.92 0.05,1.29 3.05,2.51 1.68,0.68 2.02,0.28 2.66,0.5l1.77 0.75c0.16,0.05 0.38,0.15 0.61,0.21 0.24,0.07 0.65,0.11 0.76,0.11 0.51,0.02 0.27,-0.18 0.7,0.18l2.01 -2c1.48,-1.46 2.66,-2.75 3.83,-4.53 4.22,-6.42 3.52,-16.76 0.93,-24.02 -0.77,-2.16 -1.45,-4.04 -2.19,-6.16 -0.55,-1.58 0.14,-5.8 0.24,-7.72 0.12,-2.5 0.02,-5.68 -0.08,-8.21 -0.05,-1.23 -0.71,-6.94 -0.42,-7.49l1.95 -2.23c0.67,-0.78 1.2,-1.46 1.83,-2.35 5.28,-7.47 6.83,-18.05 5.69,-27.03 -0.32,-2.51 -0.88,-4.62 -1.46,-6.87 -0.47,-1.81 -2.03,-5.81 -2.12,-6.23 -0.37,-0.52 -0.6,-1.33 -0.89,-1.91 -1.34,-2.69 -2.43,-4.54 -4.16,-6.97 -0.43,-0.61 -0.72,-1.03 -1.14,-1.65 -0.42,-0.62 -0.75,-1.03 -1.19,-1.59l-1.23 -1.55c-0.44,-0.5 -0.79,-1.07 -1.27,-1.52l-2.01 -2.17c-0.27,-0.25 -0.47,-0.4 -0.74,-0.66 -0.52,-0.51 -0.88,-0.86 -1.44,-1.34 -1.03,-0.89 -1.94,-1.57 -3.14,-2.43 -1.34,-0.96 -3,-1.62 -3.44,-2 -0.67,-0.19 -2.56,-1.12 -3.91,-1.54 -2.7,-0.84 -4.24,-1.13 -6.57,-1.79 -0.62,-0.17 -1.89,-0.31 -2.31,-0.48 -0.54,-0.22 -0.73,-1.22 -1.01,-1.76 -1.92,-3.73 -3.08,-5.12 -6.31,-7.63 -1.9,-1.47 -4.3,-3.1 -6.77,-4.37 -17.53,-8.97 -37.46,-6.97 -55.83,-1.68 -1.51,0.43 -2.79,0.93 -4.19,1.39 -4.57,1.5 -7.47,2.99 -11.81,4.9 -4.25,1.87 -8.49,4.63 -12.31,7.17l-2.44 1.74c-2.04,1.64 -4.08,2.91 -6.22,4.92l-2.15 2.03c-0.84,0.86 -2.08,1.97 -2.79,2.78 -2.56,2.94 -5.16,5.96 -7.25,9.35 -3.24,5.25 -3.21,5.37 -5.77,10.94 -2.18,4.75 -4.02,12.24 -4.64,17.62 -0.82,7.09 -0.45,13.41 1.11,20.31 0.69,3.04 1.61,5.71 2.53,8.61 0.38,1.2 0.45,0.78 0.08,2.05 -1.29,4.37 -2.27,6.16 -3.79,10.14 -2.44,6.44 -4.81,15.77 -5.07,22.73 -0.27,7 1.34,12.87 4.5,17.73 1.14,1.75 2.22,3.13 3.82,4.53 0.28,0.25 0.5,0.38 0.76,0.64 1.6,1.54 5.34,3.84 8.17,4.34 0.08,-0.87 -0.26,-3.68 -0.37,-4.72 -0.17,-1.52 -0.37,-3.33 -0.29,-4.86l2.34 3.96c2.23,3.89 5.73,7.37 9.54,9.73 5.58,3.45 13.44,5.1 20.99,4.01z"/>
   <path class="fil3" d="M81.1 192.77c-1.38,-0.27 -2.92,-0.73 -4.35,-1.07 -1.47,-0.35 -2.97,-0.65 -4.42,-1.01l-8.38 -2.53c-4.93,-1.69 -7.11,-2.87 -11.15,-5.21 -0.95,-0.55 -2.63,-1.47 -3.17,-2.3 0.48,-1.71 4.59,-6.38 5.99,-8.07l2.55 -2.54c1.16,-0.97 2.36,-1.95 3.38,-3.11 0.93,-1.06 1.48,-1.51 2.66,-2.45 1.36,-1.09 2.43,-1.69 3.85,-2.53 0.24,-0.14 0.54,-0.31 0.84,-0.42 1.74,-0.67 -0.44,1.83 1.51,5.76 3.43,6.92 5.26,10.25 8.12,17.64 0.77,2 0.71,2.04 1.27,3.83l1.29 4.01zm73.39 -20.74l-1.12 5.71c-0.47,0.33 -1.82,0.66 -2.45,0.94 -0.72,0.31 -1.54,0.76 -2.21,1.16 -1.38,0.81 -2.49,2.02 -4.28,2.41 -0.78,0.79 -2.45,1 -3.38,3.51 -0.78,2.12 -0.41,3.8 0.02,5.93l-1.22 0.03c-1.43,0.17 -3.32,0.72 -4.73,1.12 -1.98,0.34 -7.76,1.83 -9.55,1.55 -0.25,0.19 0.01,0.06 -0.43,0.14 -0.14,0.03 -0.39,0.05 -0.55,0.07l-3.29 0.39c-1.52,0.16 -3.07,0.31 -4.6,0.37 -2.12,0.12 -7.39,0.83 -9.14,0.55 -0.06,-1.03 3.29,-17.5 3.57,-18.95 1.11,-5.75 2.95,-13.42 3.77,-18.99l8.5 0.85c0.13,1.21 -0.46,3.23 0.51,3.91 1.26,0.88 16.2,3.33 18.77,3.84 1.07,0.21 3.14,0.65 3.86,-0.13 0.44,-0.48 1.1,-2.68 1.04,-3.46l0.48 -0.19c-0.51,-0.95 -0.35,-1.43 -0.26,-2.61 -0.4,0.3 -0.43,0.02 -0.59,0.71 -0.05,0.2 -0.05,0.25 -0.09,0.45 -0.9,-0.94 -0.4,-0.31 -0.17,-1.75l0.13 -0.77c0.01,-0.03 0.02,-0.06 0.02,-0.09l0.1 -0.36c0,-0 0.03,-0.02 0.03,-0.02l0.08 -0.07c0.01,-0.01 0.03,-0.04 0.03,-0.05l-0.02 -0.35c0.01,0.02 0.04,0.03 0.05,0.06 0.13,0.53 -0.45,-0.32 0.12,0.12 0.32,0.25 0.62,0.4 0.95,0.26 0.35,0.65 -0.3,0.23 1.44,0.81 0.6,0.2 1.21,0.42 1.72,0.61 1.21,0.46 2.4,0.76 3.57,1.17 2.45,0.86 5.87,2.23 8,3.73 1.26,0.89 0.18,3.42 -0.3,5.6 -0.28,1.29 -0.56,2.48 -0.78,3.86 -0.26,1.57 -0.37,2.56 -0.89,3.88 -2.4,-0.35 -4.6,-0.57 -7.13,-0.3 -0.06,-0.87 0.35,-3.87 0.51,-4.88 0.1,-0.66 0.05,-0.61 -0.11,-0.76zm-28.36 -11.48c0.09,-1.72 0.77,-6.83 1.34,-8.23 0.29,-0.7 0.33,-1.14 1.29,-1.12 1.99,0.04 3.38,1.52 5.36,-0.35 0.66,-0.62 1.72,-1.74 3.11,-1.74 1.36,-0 2.39,1.03 2.8,1.94 0.82,1.81 -0.48,2.03 2.24,2.52 0.67,0.12 1.4,0.17 2.07,0.34 0.72,0.18 1.13,0.43 1.7,0.6 0.03,1.83 -0.53,8.17 -1.45,9.35 -1.05,0.16 -7.6,-1.41 -9.19,-1.69 -1.56,-0.28 -3.14,-0.51 -4.69,-0.77 -1.45,-0.24 -3.26,-0.44 -4.57,-0.86zm-21.32 35.43c-1.68,0.2 -4.3,-0.04 -5.97,-0.26 -0.16,-1.45 1.32,-9.11 1.71,-10.81 0.38,-1.68 0.63,-3.53 0.97,-5.26 0.64,-3.3 1.58,-7.35 2.15,-10.51 0.32,-1.79 0.75,-3.45 1.04,-5.21 0.6,-3.61 1.09,-6.95 2.23,-10.2 3.35,-0.71 11.17,0.04 15.25,0.38 0.86,0.07 1.42,-0.11 2.25,-0 0.13,0.58 -0.11,1.13 -0.2,1.71 -0.2,1.23 0.23,1.48 -1.79,1.31 -1.55,-0.13 -8.35,-1.52 -9.2,-0.68 -1.38,1.37 -2.71,10.27 -3.29,12.7l-1.38 6.59c-0.36,2.27 -0.91,4.38 -1.39,6.65l-1.35 6.66c-0.21,1.14 -0.34,2.22 -0.56,3.38l-0.48 3.56zm22.92 -47.53c-2.56,0.35 -2.86,2.56 -5.91,2.32 -4.02,-0.31 -11.84,-1.24 -15.46,-0.08 -3.35,1.08 -2.39,4.58 -2.98,5.38 -0.41,0.21 -1.01,0.27 -1.53,0.29 0.1,1.25 -0.19,-0.1 -0.28,1.59 -0.03,0.57 -0.23,1.58 -0.44,2l0.49 0.38c-0.22,0.72 -0.25,1.68 -0.23,2.78 0.02,1.16 -0.37,5 -0.74,5.55 -0.02,0.03 -0.54,0.48 -0.58,0.96 -0.04,0.55 0.13,0.94 0.1,1.49 -0.03,0.02 -0.03,0.48 -0.19,0.1 -0.01,-0.03 -0.04,-0.05 -0.07,-0.07 -0.16,0.99 -1.51,7.56 -1.78,8.02 -0.87,0.05 -3.06,-0.11 -3.75,-0.34 -2.69,-0.4 -4.84,-1.28 -7.07,-2.22 -1.7,-0.71 -4.78,-2.27 -5.97,-3.29 -1.59,-0.75 -4.3,-2.82 -5.44,-3.86 -0.87,-0.8 -1.45,-1.37 -2.22,-2.42 -1.21,-1.65 0.15,-2.16 0.05,-3.67 -0.36,-2.18 0.85,-4.43 0.66,-6.63 -0.48,-0.23 -2.36,-0.96 -2.82,-0.98 -0.11,0.35 -0.04,0.34 -0.27,0.63 0.18,1.83 -0.48,0.65 -3,1.61 -1.24,0.47 -2.11,0.89 -3.15,1.49 -0.91,0.53 -4.87,3.69 -5.51,3.64 -0.25,0.37 -2.09,1.62 -2.84,2.52l-0.66 1.3c-0.47,0.78 -2.31,2.01 -3.17,2.32 -1.01,0.36 -1.29,0.63 -2.16,1.54l-0.64 0.78c-0.77,0.75 0.03,1 -0.82,1.12 0.32,-0.06 0.02,-0.04 0.13,0.17 -0.51,1 -2.63,3.7 -3.51,5.27 -1.26,2.24 -1.87,3.72 0.84,5.69 4.35,3.18 6.06,4.12 11.13,6.39 1.98,0.89 4.21,1.67 6.29,2.41 6.42,2.26 13.96,4.27 20.69,5.52 10.84,2 20.9,2.68 32.18,1.72 5.14,-0.44 10.46,-1.12 15.36,-2.16 2.42,-0.51 4.78,-1.01 7.16,-1.55 1.14,-0.26 2.39,-0.69 3.5,-0.92 1.05,-0.22 1.38,1.5 2.92,0.86l0.03 -0.97c-0.42,-0.49 -1.22,-2.86 -1.48,-3.64 -0.47,-1.41 -0.77,-2.85 -0.09,-4.18 0.42,-0.35 0.08,-0.27 1.21,-1.05 1.97,-1.37 1.84,-1 4.28,-2.9 2.76,-2.15 7.96,-3.01 11.38,-1.81 3.37,1.19 5.53,4.42 6.82,7.57 0.23,0.69 0.46,1.24 1.07,1.42 2.03,-5.41 -4.23,-10.63 -4.36,-11.04 -0.08,-0.24 1.13,-6.07 1.28,-6.88 0.38,-2.03 1,-5.01 1.12,-7.04 0.16,-2.68 -1.34,-3.37 -3.74,-4.43 -1.8,-0.8 -3.58,-1.99 -5.68,-2.44 -0.44,-0.36 -0.2,-0.16 -0.7,-0.18 -0.11,-0.01 -0.52,-0.05 -0.76,-0.11 -0.23,-0.06 -0.45,-0.16 -0.61,-0.21l-1.77 -0.75c-0.63,-0.22 -0.98,0.18 -2.66,-0.5 -3,-1.21 -2.68,-0.59 -3.05,-2.51 -0.26,0.34 0.03,0.05 0.1,-0.03 0.01,-0.01 0.03,-0.04 0.04,-0.05l0.16 -0.76c0.24,-1.12 -4.36,-1.51 -5.6,-2.45 -1.23,-0.93 -0.7,-2.04 -2.92,-3.69 -0.71,-0.53 -2.58,-0.8 -3.24,-0.72 -0.43,0.05 -1.69,0.67 -2.05,0.91 -0.43,0.3 -1.57,0.82 -2.13,0.91 -0.4,0.06 -0.45,0.42 -1.24,0.63 -0.03,0.01 -0.06,0.02 -0.09,0.02 -0,0 -0.04,0.11 -0.58,-0.06 -0.47,-0.15 -0.02,0.03 -0.41,-0.2 -0.27,-0.16 0.11,-0.03 -0.29,-0.17 -0.7,-0.24 0.24,0.09 -0.61,0.01l-0.14 -0.03c-1.28,-0.23 -0.16,-0.05 -0.59,-0.51 -0.32,0.02 -0.5,0.16 -1.06,0.2z"/>
   <path class="fil4" d="M30.69 34.02c-0.26,0.4 -0.74,1.04 -1.02,1.35 -0.45,0.48 -0.64,0.78 -1.09,1.35 -1.76,2.22 -4.57,6.21 -5.5,8.86 -0.91,2.58 -1.72,4.07 -2.12,7.36 -0.21,1.72 -0.41,5 0.17,6.7 0.16,0.46 0.58,1.22 1.03,1.39 0.24,-0.19 0.22,-0.13 0.32,-0.5 -0.21,-0.55 0.11,-0.8 0.15,-1.33 0.06,-0.69 0.24,-0.65 -0.23,-0.94l0.43 -0.37c-0.12,-0.42 0.02,-0.02 -0.3,-0.43l0.62 -0.28c0,-0 0.09,-0.01 0.21,-0.06 0.14,-0.05 0.35,-0.15 0.46,-0.22 0.31,-0.21 0.09,-0.08 0.39,-0.31 0.48,-0.38 0.79,-1.09 1.13,-1.65 1.32,-2.18 2.74,-5.06 4.42,-6.94l2.52 -3.16c0.92,-1.13 4.92,-5.61 6.05,-6.6l1.37 -1.4c1.43,-1.02 2.4,-2.35 3.8,-3.4l1.47 -1.31c0.49,-0.42 1.01,-0.89 1.51,-1.27 0.79,-0.59 1.5,-1.27 2.35,-1.81l2.53 -1.77c1.67,-1.17 3.58,-2.24 5.29,-3.29 2.35,-1.45 5.07,-2.56 7.58,-3.8 0.75,-0.37 0.95,-0.51 1.71,-0.81 3.17,-1.23 7.58,-2.74 10.78,-3.42 2.6,-0.56 2.06,-0.58 5.02,-0.98 3.23,-0.44 6.07,-0.88 9.46,-0.89 6.97,-0.01 13.37,0.4 19.71,2.89 1.32,0.52 2.65,1.04 3.85,1.73l1.86 0.94c1.86,1 3.5,2.08 5.08,3.51 1.78,1.61 0.85,0.57 2.84,2.85 1.23,1.41 2.57,3.36 3.32,5.13 1.09,2.57 1.49,6.78 1.49,9.64l0.06 2.01c0.01,0.06 0.04,0.25 0.06,0.29 0.7,1.84 1.21,-6.04 1.22,-6.1 0.4,-2.13 0.42,-4.79 0.37,-6.92 1.12,0.12 1.15,0.62 1.9,0.82 0.33,0.09 0.46,-0.06 0.89,0.06 0.13,0.04 0.56,0.31 0.68,0.37 0.58,0.34 1.86,0.9 2.33,0.7 0.06,0.45 0.45,0.49 0.83,0.68l5.03 3.31c0.8,0.54 1.28,0.99 1.88,1.48 0.61,0.51 1.03,0.96 1.7,1.55l1.09 1.19c0,0 0.38,0.25 0.5,0.35 1.57,1.4 4.73,5.43 6,7.35 0.47,0.71 1,1.21 1.44,1.91 0.45,0.71 0.86,1.32 1.34,2.03 1.25,1.83 3.88,7.3 4.44,8.93 1.33,3.87 1.2,2.51 2.18,7.15 0.09,0.42 0.26,0.89 0.31,1.25l0.14 1.38c0.48,2.65 0.51,6.3 0.09,9.14 -0.06,0.43 -0.18,0.84 -0.25,1.26 -0.05,0.29 0.05,-0.16 -0.03,0.22 -0,0.02 -0.08,0.3 -0.08,0.32 -0.11,0.45 -0.05,0.26 -0.09,0.63 -0.13,1.23 -0.3,1.75 -0.55,2.69 -0.09,0.34 -0.18,0.57 -0.33,1.1 -0.36,1.23 -0.78,2.37 -1.37,3.5l-0.41 0.98c-0.26,0.79 -1.83,3.28 -2.53,4.08l-2.55 2.89c-0.43,1.04 -1.27,0.7 -1.31,1.56 1.92,-0.73 4.45,-3.01 5.82,-4.47l2.84 -3.43c2.24,-2.94 4.09,-7.07 4.93,-11.53 0.91,-4.84 0.66,-10.3 -0.25,-15.08 -0.88,-4.67 -2.38,-8.5 -4.25,-12.33l-3.03 -5.21c-1.27,-1.96 -2.13,-2.98 -3.59,-4.64 -1.27,-1.46 -4.72,-4.77 -6.41,-5.89 -5.33,-3.52 -11.39,-5.65 -18.03,-6.69 -1.18,-0.19 -1.29,-0.6 -1.93,-2.23 -1.63,-4.16 -4.11,-6.48 -7.64,-8.95 -1.61,-1.13 -3.31,-2.11 -5.16,-3.08 -10.61,-5.54 -23.63,-5.81 -35.44,-4.29 -6.02,0.77 -14.62,2.69 -20.05,4.74 -4.05,1.53 -7.97,2.99 -11.7,4.89 -5.49,2.8 -5.78,3.09 -10.45,6.02 -1.53,0.96 -5.54,4.08 -7.06,5.35 -0.54,0.45 -1.91,1.56 -2.19,1.94z"/>
   <path class="fil5" d="M127.27 181.22c-0.68,1.15 -4.58,0.91 -5.95,0.63 -1.02,-0.21 -1.92,-0.35 -2.98,-0.53 -0.97,-0.17 -1.92,-0.61 -1.76,-1.81 0.21,-1.64 4.18,-0.33 5.4,-0.11 0.83,0.15 4.81,1 5.29,1.82zm-9.28 -7.99c1.66,-0.62 13.28,2.06 15.74,2.54l11.64 2.28c0.61,0.11 1.45,0.22 1.83,0.49 0.57,0.4 0.41,1.19 -0.02,1.63 -0.76,0.78 -2.84,0.16 -3.89,-0.06 -1.23,-0.27 -2.57,-0.51 -3.84,-0.78l-15.57 -3.02c-1.25,-0.24 -2.55,-0.54 -3.8,-0.83 -1.36,-0.32 -2.84,-0.4 -2.11,-2.25zm-1.28 22.11l0.66 -0.21c-0.59,0.07 -3.13,-0.4 -3.28,-1.63 -0.25,-2.06 2.17,-1.09 3.32,-0.84l8.16 1.71c1.79,0.28 7.57,-1.21 9.55,-1.55l-0.66 -0.17c-0.25,-0.03 -0.43,-0.05 -0.7,-0.1l-15.18 -3.05c-0.74,-0.15 -2.01,-0.36 -2.62,-0.62 -0.86,-0.37 -1.33,-1.41 -0.36,-1.92 1.06,-0.55 14.76,2.34 16.96,2.72 1.26,0.22 4.87,1.08 5.62,1.13l0.61 0.1c-0.48,-3.06 0.26,-6.4 3.02,-7.77 0.77,-0.38 1.83,-1.01 2.61,-0.92 1.79,-0.4 2.9,-1.6 4.28,-2.41 0.67,-0.39 1.49,-0.85 2.21,-1.16 0.63,-0.27 1.98,-0.6 2.45,-0.94l1.12 -5.71 1.15 -6.46c-0.59,-0.39 -7.07,-2.47 -8.04,-2.6 0.06,0.79 -0.6,2.98 -1.04,3.46 -0.72,0.78 -2.79,0.34 -3.86,0.13 -2.57,-0.51 -17.51,-2.96 -18.77,-3.84 -0.97,-0.68 -0.38,-2.7 -0.51,-3.91l-8.5 -0.85c-0.83,5.57 -2.67,13.23 -3.77,18.99 -0.28,1.45 -3.63,17.92 -3.57,18.95 1.75,0.27 7.02,-0.44 9.14,-0.55z"/>
   <path class="fil6" d="M11.78 108.4c-0.89,1.04 -3.69,10.6 -4.43,12.89 -1.51,4.66 -2.69,9.09 -2.92,14.45 -0.24,5.55 0.47,10.51 2.38,14.99 1.74,4.09 4.58,7.8 7.56,9.8 0.11,-3.17 -0.38,-6.28 -0.09,-9.58 0.12,-1.36 1.07,-7.46 1.61,-8.17 0.1,0.29 0.21,1.43 0.28,1.84 0.1,0.55 0.24,1.15 0.38,1.7 0.69,2.8 2.15,6.84 3.56,9.2 1.19,1.98 1.55,2.17 2.73,3.65 0.38,0.49 0.56,0.62 1.01,1.08 4.26,4.38 10.78,7.42 17.09,8.35 3.52,0.52 12.63,0.45 14.72,-1.53l0.01 -0.31 -0.74 -0.29c-1.2,-0.28 -4.35,-1.57 -5.5,-2.09 -4.07,-1.85 -6.18,-3.05 -9.67,-5.65l-4.01 -3.63c-1.61,-1.9 -1.63,-1.66 -3.5,-4.15 -2.1,-2.78 -4.33,-6.36 -5.51,-9.81 -0.36,-1.04 -0.61,-1.89 -0.92,-2.91 -0.25,-0.81 -0.92,-2.15 -0.62,-3.02 -6.59,-3.86 -10.46,-10.18 -11.63,-18.02 -0.4,-2.69 0.02,-6.07 -0.11,-7.08 -0.03,-0.21 -0.45,-1.66 -0.54,-1.79 -0.3,-0.16 -0.16,0.18 -0.25,-0.16 0.07,0.25 0.11,0.47 0.19,0.74 0.12,0.41 0.21,0.48 0.06,0.73 -0.52,-0.77 -0.54,-1.13 -1.09,-1.24z"/>
   <path class="fil7" d="M34.94 44.42c0.58,0.15 0.08,-0.28 0.41,0.24l2.58 -2.45c0.34,-0.24 0.51,-0.57 0.81,-0.88l1.35 -1.25c0.63,-0.49 1.59,-1.85 2.49,-1.93 -0.26,0.63 -1.31,1.41 -1.82,1.93l-2.32 2.45c-0.21,0.22 -0.33,0.32 -0.56,0.58 -0.4,0.43 -0.74,0.85 -1.12,1.32l-1.78 1.93c-0.13,0.17 -0.1,0.17 -0.23,0.34 -0.34,0.47 -0.96,1.41 -1.33,1.63l-1.48 2.35 -1.27 2.62c-0.39,0.85 -0.87,1.78 -1.3,2.65 -0.84,1.71 -1.69,3.64 -2.38,5.49 -3.16,8.44 -4.9,17.73 -3.12,26.89 0.42,2.14 1.03,4.19 2.02,5.86 2.24,3.8 11.77,-0.68 14.11,-2.45 0.74,-0.56 1.51,-1.05 2.21,-1.62l1.04 -0.93c1.02,-1.05 2.95,-2.91 3.77,-4.11 0.24,-0.35 0.23,-0.23 0.5,-0.53l2.03 -2.73c1.2,-1.85 0.68,-1.55 2.02,-1.93 1.02,-0.29 2.05,-0.63 3.04,-0.92 4.34,-1.28 9.69,-3.71 13.36,-6.21l2.32 -1.56c3.51,-2.47 8.71,-7.37 11.44,-10.79 2.22,-2.78 3.84,-5.07 5.78,-8.14 0.38,-0.6 0.64,-1.16 1.01,-1.78 0.55,-0.93 1.51,-2.61 1.85,-3.64 0.07,0.14 0.05,0.01 0.06,0.26l-0.17 0.6c-0.1,0.26 -0.19,0.54 -0.26,0.79 -0.18,0.57 -0.36,1.05 -0.48,1.67 0.59,-0.35 0.98,-1.74 1.2,-2.35 0.32,-0.86 0.58,-1.61 0.87,-2.51 0.55,-1.71 1.11,-3.52 1.31,-5.58 -0.47,0.15 -0.46,0.22 -0.77,0.56l-3.52 4.24c-0.73,0.96 -1.62,1.67 -2.2,2.33 -0.75,0.85 -1.36,1.34 -2.21,2.19 -3.58,3.55 -4.3,3.56 -7.33,6.01 -0.86,0.7 -1.61,1.18 -2.57,1.84 -1.97,1.36 -6.37,3.57 -8.66,4.68 -2.62,1.27 -9.62,3.81 -12.77,4.98 -1.46,0.55 -2.81,0.53 -3.12,1.3 1.17,0.7 8.94,-1.29 10.45,-1.73 5.58,-1.63 8.52,-2.57 13.7,-4.99 1.24,-0.58 2.79,-1.44 3.96,-2.18 1.86,-1.16 4.75,-3.04 6.38,-4.41 0.66,-0.56 0.29,-0.49 0.99,-0.71 -0.13,0.74 0.01,0.27 -0.26,0.64l-0.85 0.99c-0.21,0.3 -0.28,0.52 -0.5,0.79l-1.65 1.94c-1.14,1.48 -2.33,2.56 -3.57,3.86 -2,2.09 -5.81,5.03 -8.23,6.5l-3.03 1.84c-1.02,0.57 -1.97,1.27 -3.07,1.8 -2.21,1.06 -4.24,2.34 -6.44,3.43 -1.75,0.86 -4.99,2.45 -6.87,2.99 -3.56,1.03 -8.86,2.16 -12.72,0.84 -6.97,-2.39 -7.45,-10.08 -5.9,-17.26 0.57,-2.66 1.66,-4.88 2.48,-7.39 0.54,-1.65 3.14,-6.78 4.09,-8.21 1.14,-1.71 1.53,-2.59 2.98,-4.32 1.09,-1.29 2.12,-2.74 3.34,-3.98 0.23,-0.23 0.36,-0.43 0.59,-0.69 0.18,-0.21 0.43,-0.43 0.58,-0.59 0.66,-0.72 1.89,-2.01 2.51,-2.47 0.22,-0.16 4.37,-4.1 5.14,-4.61 0.39,-0.26 0.37,-0.31 0.7,-0.57l1.45 -0.98c0.29,-0.17 0.41,-0.26 0.5,-0.65 -0.5,0.14 -1.09,0.51 -1.61,0.79 -2.85,1.52 -7.13,3.87 -9.63,5.92 -0.29,0.24 -0.38,0.3 -0.67,0.5l-3.97 3.23c-0.83,0.67 -5.37,5.41 -5.68,6.21z"/>
   <path class="fil8" d="M153.11 33.23c0.49,-0.9 4.19,-4.73 4.83,-5.3 2.31,-2.11 4.31,-3.82 6.97,-5.55 0.49,-0.32 1.09,-0.63 1.53,-1.03 0.84,-0.75 1.79,-1.6 3,-2.09 1.25,-0.5 3.23,-0.41 4.44,0.04 1.09,0.4 2.28,1.47 2.95,2.14 0.85,0.85 1.46,2.07 1.31,3.63 -0.14,1.51 -0.81,2.43 -1.74,3.33 -1.19,1.15 -1.13,1.42 -3,2.09 -1.34,0.49 -1.83,1.09 -2.62,2.52 -2.62,4.76 -2.73,9.62 -4.79,12.95 -0.35,0.56 -0.87,0.95 -0.88,1.72 0.44,0.42 1.31,2.05 1.67,2.71 1.7,3.18 1.01,2.9 3.17,2.69 0.28,-0.03 1.04,-0.03 1.61,-0.12 0.39,-0.06 1.13,-0.33 1.55,-0.46 0.28,-0.09 0.42,-0.13 0.66,-0.27 0.33,-0.19 0.29,-0.24 0.53,-0.38 0.51,-0.3 1.11,-0.29 1.36,-0.36l2.15 -1.26c0.02,-0.02 0.04,-0.04 0.06,-0.06 0.01,-0.01 0.04,-0.04 0.05,-0.06 0.41,-0.46 -0.22,-0.08 0.19,-0.15 1.3,-0.23 1.89,-1.52 2.59,-2.04 0.85,-0.62 2.3,-2.51 2.86,-3.43l1.51 -2.67c0.06,-0.14 0.06,-0.17 0.13,-0.35 0.11,-0.3 0.14,-0.32 0.23,-0.73 0.31,-1.41 -0.09,-0.19 0.15,-0.69 0.14,-0.3 0.45,-0.92 0.5,-1.34 0,-0.04 -0.01,-0.28 -0.02,-0.35 -0.06,-0.61 -0.26,0.39 0.11,-0.33 0.25,-0.48 0.52,-2.18 0.54,-2.76 0.09,-2.91 -0.18,-5.11 -1.14,-7.82 -0.33,-0.93 -0.63,-1.84 -1.15,-2.69 -0.27,-0.44 -0.45,-0.72 -0.72,-1.13 -0.81,-1.24 -1.14,-1.46 -1.65,-2.17 -1.23,-1.71 -3.45,-3.23 -5.33,-4.22 -1.29,-0.68 -0.67,-0.06 -1.1,-0.5 -0.52,-0.52 -2.06,-0.9 -2.72,-1.14 -1.09,-0.39 -1.67,-0.64 -3.06,-0.75 -2.54,-0.21 -4.81,-0.16 -7.07,0.36 -1.85,0.43 -6.07,2.36 -7.63,3.74 -1.57,1.38 -2.55,2.19 -3.75,3.91 -0.31,0.44 -0.5,0.77 -0.78,1.2l-1.34 2.48c-0.18,0.45 -0.39,0.84 -0.55,1.29 -0.61,1.71 -0.86,2.12 0.06,2.62l1.82 1.01c0.33,0.09 1.24,1.19 2.52,1.75z"/>
   <path class="fil9" d="M54.91 166.49c-0.29,-0.32 -0.5,-0.45 -0.75,-0.7 -0.23,-0.23 -0.45,-0.48 -0.74,-0.77 -1.63,-1.64 -2.59,-3.02 -4.06,-4.88 -1.9,-2.39 -3.15,-4.5 -4.32,-7.44 0.24,0.07 2.51,2.62 3.05,3.14 2.19,2.09 8.53,6.99 11.53,7.28 0.64,0.05 4.6,-3.11 5.51,-3.64 1.04,-0.6 1.91,-1.02 3.15,-1.49 2.52,-0.95 3.18,0.22 3,-1.61l-0.03 -0.54c-0.74,-0.51 -7.45,-1.88 -16.32,-8.12 -2.47,-1.74 -4.53,-3.49 -6.67,-5.51 -3.4,-3.21 -2.7,-2.81 -5.71,-6.41 -0.69,0.04 -6.28,3.85 -13.58,1.09 -2.53,-0.96 -2.01,-0.91 -3.83,-1.68 -0.29,0.87 0.37,2.21 0.62,3.02 0.32,1.02 0.56,1.87 0.92,2.91 1.18,3.45 3.42,7.02 5.51,9.81 1.87,2.49 1.9,2.25 3.5,4.15l4.01 3.63c3.49,2.6 5.61,3.8 9.67,5.65 1.14,0.52 4.3,1.81 5.5,2.09z"/>
   <path class="fil3" d="M72.12 93.59c2.13,-0.74 4.01,1.71 2.89,3.83 -0.28,0.53 -0.68,0.85 -1.39,1.04 -3.29,0.86 -4.55,-3.81 -1.5,-4.87zm-19.57 -3.54c-0.26,0.27 0.3,0.23 -0.28,0.23 0.37,-0.17 0.31,0.05 0.38,0.12 -0.54,0.33 -0.14,0.27 -0.45,0.55 -0.75,0.68 0.3,-0.44 -0.21,0.17 0.11,0.04 0.27,0.09 0.32,0.11 0.28,0.11 0.09,0.03 0.22,0.12l-0.63 0.35c0.02,0.02 0.05,0.01 0.06,0.04l0.2 0.1c0.28,0.13 0.13,-0.01 0.4,0.18 -0.28,0.26 -0.13,0.17 -0.48,0.22 -1.06,0.16 -3.35,-0.42 -4.46,-0.53 0.32,2.62 1.56,5.11 2.86,6.68 0.64,0.76 4.45,3.68 5.69,3.82 0.13,-1.09 0.37,-1.97 0.73,-2.88 0.58,-1.67 2.66,-4.18 4.05,-4.77l-1.17 3.02c-0.61,3.62 -0.15,7.49 1.02,10.67 0.45,1.23 1.48,2.99 2.18,3.85 0.59,0.72 2.34,2.68 3.23,2.87l0.28 -0.16c-0.54,-0.3 -0.92,-0.49 -1.29,-0.98 -0.12,-0.16 -0.03,-0.08 -0.15,-0.21 -0.47,-0.52 -0.44,0.01 -0.52,-0.41 -0.04,-0.23 0.06,-0.01 -0.09,-0.24 -0.54,-0.82 -0.27,0.2 -0.87,-1.09 -0.3,-0.64 -0.55,-1.12 -0.29,-1.96 0.24,-0.78 -0.55,-1.45 0.45,-2.21 1.3,-1 2.84,0.59 3.24,0.85 2.2,1.38 2.7,2.34 5.69,1.33 1.97,-0.67 3.7,-3.09 4.32,-4.87 0.59,-1.7 -0.61,-4.13 2.11,-2.75l0.74 0.74c0.65,0.78 0.67,0.53 1.06,1.44 0.01,0.01 0.02,0.04 0.03,0.06 0.01,0.02 0.02,0.05 0.03,0.06 0.32,0.81 0.21,2.09 0.22,3.1 0.01,0.41 -0.07,1.24 0.17,1.49 0.57,-0.77 0.99,-2.91 1.13,-4.04 0.09,-0.76 0.16,-1.57 0.19,-2.34 0.03,-0.74 -0.05,-1.94 0.03,-2.56 -0.2,-0.48 -0.27,-1.28 -0.39,-1.89 -0.07,-0.32 -0.09,-0.63 -0.14,-0.98 -0.07,-0.5 -0.13,-0.49 -0.23,-0.92 0.52,0.36 1.03,0.85 1.44,1.2 1.06,0.92 2.63,3.65 3.23,4.92 0.23,0.24 -0.06,0.03 0.32,0.17 0.54,-3.27 -2.14,-7.65 -3.94,-10.04 -0.95,-1.25 -2.29,-2.5 -3.61,-3.47 -6.33,-4.63 -15.1,-5.18 -22.27,-1.71 -1.47,0.71 -3.88,2.33 -4.54,2.54z"/>
   <path class="fil10" d="M79.8 188.75c-0.56,-1.79 -0.5,-1.83 -1.27,-3.83 -2.86,-7.39 -4.69,-10.73 -8.12,-17.64 -1.95,-3.93 0.23,-6.43 -1.51,-5.76 -0.3,0.12 -0.6,0.28 -0.84,0.42 -1.42,0.84 -2.49,1.44 -3.85,2.53 -1.17,0.94 -1.73,1.39 -2.66,2.45 -1.02,1.16 -2.22,2.14 -3.38,3.11l-2.55 2.54c-1.4,1.69 -5.51,6.36 -5.99,8.07 0.54,0.83 2.23,1.76 3.17,2.3 4.05,2.34 6.22,3.51 11.15,5.21l8.38 2.53c1.45,0.37 2.95,0.66 4.42,1.01 1.43,0.34 2.97,0.81 4.35,1.07l-1.29 -4.01z"/>
   <path class="fil11" d="M20.29 74.8c-0.22,1.93 -0.52,3.7 -0.58,5.73 -0.07,2.19 0.1,3.96 0.25,6.03 0.15,2.11 0.8,5.83 1.43,7.96 0.24,0.82 0.52,1.6 0.28,2.62 0.16,-0.15 0.35,-0.38 0.52,-0.43l2.29 -0.21c1.07,-0.05 2.08,0.12 3.04,0.2l3.73 1.1 -0.03 0.54c0.1,0.44 0.01,0.05 0.1,0.15 0.27,0.29 0.18,-0.11 0.15,0.2 0.16,0.18 0.18,-0.27 0.05,0.18 -0.08,0.28 0.15,0.06 -0.16,0.17 0.15,0.06 0.2,0.1 0.23,0.12l0.35 0.34c0.33,0.55 -0.04,0.23 0.28,0.51l-0.07 -0.44c1.57,-0.48 3.23,-0.85 4.74,-1.37 0.83,-0.29 1.51,-0.52 2.2,-0.92 0.55,-0.32 1.56,-0.97 2.11,-1.1 -0.04,1.03 -0.06,2.14 -0.35,3.13 0.41,0.07 0.37,-0.23 0.35,0.48 0.14,-0.43 0.35,-0.69 0.47,-1.45 0.21,-1.3 0.18,-0.46 0.42,-1 0.09,-0.21 -0.07,0.02 0.09,-0.36 0.15,-0.35 0.21,-0.13 0.27,-0.46l0.08 -0.88c0.03,-0.4 0.12,-0.3 -0.03,-0.75l0.48 0.13c0.02,0 0.05,0.01 0.07,0.01 0.02,0 0.05,0 0.07,0 0.4,0.05 0.09,-0.09 0.4,0.08 0.31,0.17 -0.07,0.02 0.22,0.25 0.02,-0.29 0.03,-0.58 0.08,-0.84 0.1,-0.51 0.12,-0.37 0.26,-0.74 0.03,0.03 0.06,0.04 0.07,0.11 0.01,0.06 0.05,0.07 0.06,0.1 0.23,0.81 0.16,-0.29 -0.08,0.72 -0.1,0.41 -0.05,0.39 0.01,0.92 0.02,-0.03 0.04,-0.1 0.04,-0.08l0.13 -0.36c0.24,-1.12 0.06,-1.24 1.73,-2.57 0.91,-0.73 1.59,-1.76 2.4,-2.6l1.12 -1.31c0.34,-0.48 0.73,-0.9 1.08,-1.36 0.71,-0.92 1.29,-1.97 2,-2.99 0.51,-0.74 0.37,-0.76 1.33,-1.08 2.07,-0.69 9.68,-3.71 10.98,-3.77 0.54,-0.02 0.72,0.08 1.12,0.18 0.38,0.1 0.78,0.12 1.1,-0.1 -0.04,-0.01 -0.24,-0.05 -0.26,-0.06l-0.21 -0.11c2.83,-0.6 12.25,0.14 13.66,-0.23 -0.52,-0.2 0.21,0.07 -0.36,-0.01 -0.03,-0 -0.06,-0 -0.09,-0.01l-0.39 -0.17c1.17,-0.5 1.09,0.23 1.09,0.23 0.25,-0.44 -0.15,-0.28 0.48,-0.3 0.28,-0.01 0.37,-0.01 0.76,0.07 -0.28,0.24 -0.14,0.12 -0.63,0.25 0.6,0.01 1.49,0.14 2.17,0.01l-1.33 -0.05c-0.14,-1.27 -0.2,-0.18 -0.28,-0.82 -0.08,-0.62 0.21,-0.66 0.22,-0.66 0.01,-0.01 0.04,-0.03 0.05,-0.05l0.16 -0.18c-0.52,-0.15 -0.17,0.01 -0.37,-0.21 -0.34,-0.36 0.06,0.06 -0.11,-0.15 -0.01,-0.02 -0.09,-0.11 -0.12,-0.14 -1.44,0.59 -1.09,-0.08 -1.17,-0.28l0.21 -0.62c-0.35,-0.09 -0.14,-0.06 -0.38,-0.02 -0.02,0 -0.05,0.02 -0.07,0.02 -0.42,0.08 -3.33,0.08 -4.03,0.3 0.1,-0.36 0.15,-0.27 0.34,-0.5l-0.27 0.03 -0.84 0.08 -4.03 0.21 0.54 -0.73 -0.25 -0.05c0.41,-0.53 1.08,-0.94 1.57,-1.47l3.76 -3.79c0.4,-0.42 0.54,-0.21 0.46,-0.9 0.02,0.02 0.05,0.05 0.06,0.05 0.01,0.01 0.05,0.04 0.06,0.05 0.32,0.15 1.53,-1.69 1.82,-2.02l0.88 -1.2c0.26,-0.39 0.63,-0.74 0.82,-1.21l0.09 -0.24c0.01,-0.01 0.03,-0.04 0.04,-0.05 0.01,-0.01 0.04,-0.04 0.05,-0.05 0.91,-0.93 0.31,-1.07 0.85,-1.24 0.18,-0.46 -0.18,0.13 0.07,-0.07l0.67 -0.83c0.12,-0.19 0.11,-0.18 0.22,-0.36 0.32,-0.55 0.63,-0.94 0.97,-1.58l2.87 -5.02c0.07,-0.12 0.15,-0.31 0.23,-0.47l0.56 -1.28c0.25,-0.62 0.56,-1.19 0.85,-1.83 0.18,-0.41 0.62,-1.49 0.68,-1.91 -0.25,0.24 -0.13,0.16 -0.32,0.41 -0.65,0.89 -1.03,1.93 -1.7,2.83l-2.12 3.1c-0.94,1.52 -0.88,1.37 -1.95,2.69 -0.1,0.12 -0.15,0.19 -0.25,0.33l-5.28 5.84c-0.09,0.08 -0.1,0.08 -0.19,0.16l-4.58 4.25c-0.28,0.22 -0.39,0.41 -0.63,0.63l-1.71 1.2c-0.23,-0.01 -0.13,0.16 -0.19,-0.25l-2.32 1.56c-3.67,2.5 -9.02,4.93 -13.36,6.21 -0.98,0.29 -2.02,0.63 -3.04,0.92 -1.34,0.38 -0.82,0.08 -2.02,1.93l-2.03 2.73c-0.28,0.3 -0.26,0.19 -0.5,0.53 -0.83,1.19 -2.75,3.06 -3.77,4.11l-1.04 0.93c-0.7,0.57 -1.48,1.07 -2.21,1.62 -2.34,1.77 -11.87,6.25 -14.11,2.45 -0.99,-1.68 -1.61,-3.72 -2.02,-5.86 -1.78,-9.16 -0.04,-18.45 3.12,-26.89 0.69,-1.85 1.54,-3.79 2.38,-5.49 0.43,-0.87 0.91,-1.8 1.3,-2.65l1.27 -2.62c-0.01,-0.51 0.05,-0.43 0.03,-0.86 -0.02,-0.43 -0.08,-0.29 0.07,-0.62 -0.14,-0.13 0.23,-0.18 -0.26,-0.07 -0.66,0.42 -3.44,4.73 -3.81,5.41 -1.21,2.23 -2.11,3.54 -3.29,6.01 -1.76,3.67 -3.76,9.77 -4.38,14.25z"/>
   <path class="fil3" d="M127.72 96.73c2.5,-0.63 2.82,3.42 0.76,3.94 -2.37,0.6 -3.39,-3.28 -0.76,-3.94zm-2.66 21.28c1.27,-0.24 2.22,-0.59 3.13,-1.17 0.57,-0.36 2.07,-1.5 2.34,-2.1 -0.3,-0.18 -0.06,-0.04 -0.35,-0.11 -0.17,-0.04 -0.16,0.07 -0.32,-0.17l-0.2 -0.34c-0.22,0.34 -2.25,2.16 -3.39,2.54 -1.34,0.44 -3.69,0.55 -4.97,-0.23 -1.27,-0.77 -2.77,-2.07 -3.42,-3.32 -0.78,-1.49 -1.16,-2.51 -0.35,-3.77 1.27,-0.08 1.67,0.48 2.28,1.14 0.44,0.48 1.44,1.15 2.03,1.42 5.25,2.44 6.92,-3.58 7.8,-4.66 0.49,-0.6 1.38,-1.33 2.11,-1.71 0.77,-0.4 1.41,-0.49 1.75,-0.7 0.24,-0.15 -0.05,-0.05 0.21,-0.13 0.01,0.21 -0.03,0.41 -0.03,0.54 -0.01,0.37 0.03,0.14 0.04,0.6 0.21,-0.23 0.05,0.03 0.17,-0.28 0,-0 0.08,-0.27 0.08,-0.27 0.12,-0.61 -0.22,0.01 0.09,-0.47l-0.26 1.4c-0.03,-0.38 -0.07,-0.43 -0.27,-0.68l-0.1 0.35c-0.01,0.03 -0.01,0.11 -0.02,0.14 -0,0.01 -0.01,0.05 -0.01,0.06l-0.02 0.11c-0.15,0.74 -0.16,0.94 -0.03,1.75 0.15,0.89 0.02,0.7 0.31,0.72 0.43,-0.9 0.79,-2.82 0.9,-3.95 0.07,-1.33 0.09,-2.71 -0.11,-4.01 -0.11,-0.73 -0.67,-2.84 -0.65,-3.25 -0.02,-0.02 -0.04,-0.06 -0.06,-0.07 -0.01,-0.02 -0.04,-0.05 -0.05,-0.07 -0.02,-0.03 -0.08,-0.12 -0.1,-0.15l-2.04 -3.16c4.38,0.09 6.77,2.82 7.8,6.59 0.33,1.29 0.68,2.87 0.62,4.3 0.34,-0.21 0.18,-0.14 0.49,-0.5 0.91,-1.04 2.92,-2.06 3.95,-2.78 1.78,-1.24 2.37,-2.16 3.56,-4.05 0.23,-0.49 1.04,-1.84 0.99,-2.17 0.14,-0.31 0.26,-0.97 0.28,-1.32l-0.2 -0.05c-0.68,0.03 -3.25,1.08 -4.82,-0.28 0.44,-0.33 0.54,-0.13 0.79,-0.7 -0.31,-0.37 -0.91,-0.66 -1.34,-0.98 -1.61,-1.18 -1.72,-1.59 -4.05,-2.91 -1.93,-1.08 -4.93,-1.91 -7.63,-1.46 -4.01,0.66 -6.63,2.37 -9.4,4.5 -2.21,1.7 -4.59,5.39 -5.69,8.23 -0.92,2.38 -1.36,5.29 -1.09,8.14 0.47,5.01 3.84,9.77 9.27,9.43z"/>
   <path class="fil7" d="M10.9 95.53c0.32,0.3 1.2,2.61 1.44,3.28l0.91 2.76c0.11,0.33 0.01,0.03 0.09,0.26 0.08,0.22 0.11,0.28 0.17,0.46 0.35,-0.34 0.24,-0.67 0.28,-1.23 0.23,-3.25 0.72,-5.93 0.92,-9.1 0.25,-3.95 1.28,-10.75 2.29,-14.71 0.41,-1.58 1.98,-7.17 2.63,-8.73 0.52,-1.26 1.03,-3.04 1.71,-4.23 0.2,0.29 0.04,0.37 0.3,0.65 0.35,0.37 0.95,-0.57 0.79,0.43l-1.8 6.32c-0.12,0.61 -0.62,2.54 -0.35,3.1 0.63,-4.48 2.63,-10.57 4.38,-14.25 1.18,-2.46 2.08,-3.77 3.29,-6.01 0.37,-0.68 3.15,-4.99 3.81,-5.41 0.45,-0.65 0.98,-1.28 1.41,-1.88 0.3,-0.57 0.99,-1.63 1.4,-2.29 -0.56,0.24 -0.65,0.47 -1,0.82 -0.29,0.28 -0.61,0.52 -0.92,0.81 -0.61,0.57 -1.21,1.11 -1.78,1.7 -2.13,2.18 -5.69,7.28 -7.07,10.12 -0.22,0.45 -0.41,0.71 -0.61,1.12l-0.71 0.99c-0.1,0.37 -0.08,0.31 -0.32,0.5 -0.45,-0.17 -0.87,-0.93 -1.03,-1.39 -0.58,-1.7 -0.38,-4.97 -0.17,-6.7 0.4,-3.3 1.21,-4.78 2.12,-7.36 0.94,-2.65 3.74,-6.65 5.5,-8.86 0.45,-0.57 0.64,-0.86 1.09,-1.35 0.29,-0.31 0.76,-0.94 1.02,-1.35 -0.53,0.36 -1,0.76 -1.47,1.14l-5.17 5.51c-1.99,2.23 -6.29,8.95 -7.42,11.14 -0.6,1.15 -1.14,2.33 -1.77,3.57 -0.66,1.3 -2.49,5.9 -2.96,7.58 -1.46,5.24 -2.18,7.33 -2.63,13.39 -0.27,3.52 -0.29,6.68 0.06,10.19 0.26,2.65 0.79,6.7 1.57,8.99z"/>
   <path class="fil7" d="M73.73 163.37c0.1,1.51 -1.25,2.02 -0.05,3.67 0.77,1.05 1.35,1.62 2.22,2.42 1.13,1.04 3.85,3.11 5.44,3.86 -0.19,-0.16 -0.12,-0.11 -0.24,-0.34 0.36,-0.24 -0.41,-0.13 0.51,-0.18 -0.69,0 -0.78,-0.15 -0.92,-0.4l0.65 -0.07c0.01,0 0.05,0.01 0.06,0.01 0.29,0.04 -0.14,0.02 0.31,-0.02 0.83,-0.08 4.96,1.2 5.75,1.46 3.61,1.19 4.01,0.99 7.46,1.49 0.3,1.19 -0.18,2.46 0.03,3.63l-0.56 -0.07c0.69,0.24 2.89,0.39 3.75,0.34 0.27,-0.45 1.62,-7.03 1.78,-8.02 0.06,-0.49 -0.54,-1.79 -0.71,-2.5 -0.76,-3.08 -0.52,-6.63 -1.1,-8.3 -0.8,-0.14 -2.54,-0.07 -3.46,-0.1 -3.92,-0.1 -5.17,-0.45 -9.04,-1.21 -1.88,-0.37 -3.69,-0.83 -5.53,-1.32l-5.41 -1.5c0,1.38 -0.07,2.44 -0.34,3.75 -0.24,1.23 -0.18,2.83 -0.6,3.4z"/>
   <path class="fil12" d="M153.11 33.23c0.45,0.47 1.08,1.13 1.63,1.5 1.01,0.69 0.1,0.26 0.95,0.9 0.36,0.27 0.58,0.49 0.89,0.84 0.26,0.29 0.61,0.63 0.91,0.85 0.03,0.02 0.1,0.07 0.12,0.08 0.55,0.39 0.04,0.28 0.6,0.7l0.74 0.69c0.3,0.3 -0.18,-0.33 0.12,0.19l4.85 6.6c0.24,0.34 0.36,0.72 0.62,1.13 0.22,0.36 0.52,0.54 0.56,0.96 0,-0.78 0.53,-1.17 0.88,-1.72 2.06,-3.33 2.17,-8.19 4.79,-12.95 0.79,-1.43 1.28,-2.04 2.62,-2.52 1.86,-0.67 1.81,-0.94 3,-2.09 0.93,-0.9 1.6,-1.82 1.74,-3.33 0.15,-1.56 -0.45,-2.79 -1.31,-3.63 -0.68,-0.67 -1.87,-1.74 -2.95,-2.14 -1.22,-0.45 -3.2,-0.54 -4.44,-0.04 -1.21,0.49 -2.16,1.34 -3,2.09 -0.44,0.4 -1.04,0.71 -1.53,1.03 -2.66,1.72 -4.66,3.44 -6.97,5.55 -0.63,0.58 -4.33,4.4 -4.83,5.3z"/>
   <path class="fil10" d="M105.29 192.41c0.22,-1.16 0.35,-2.24 0.56,-3.38l1.35 -6.66c0.48,-2.27 1.03,-4.38 1.39,-6.65l1.38 -6.59c0.58,-2.43 1.91,-11.33 3.29,-12.7 0.85,-0.84 7.65,0.55 9.2,0.68 2.02,0.17 1.59,-0.08 1.79,-1.31 0.09,-0.58 0.34,-1.13 0.2,-1.71 -0.82,-0.11 -1.39,0.08 -2.25,0 -4.08,-0.34 -11.9,-1.09 -15.25,-0.38 -1.15,3.24 -1.63,6.59 -2.23,10.2 -0.29,1.76 -0.72,3.41 -1.04,5.21 -0.57,3.17 -1.51,7.21 -2.15,10.51 -0.34,1.74 -0.59,3.59 -0.97,5.26 -0.39,1.7 -1.87,9.36 -1.71,10.81 1.67,0.21 4.28,0.46 5.97,0.26l0.48 -3.56z"/>
   <path class="fil13" d="M189.66 158.4c0.73,0.2 -0.18,0.14 1.17,0.53l0.29 0.1 1.4 0.41c1.13,0.4 1.79,0.13 2.93,0.58 -0.43,0.85 -1.57,3.16 -2.7,3.04 -0.65,-0.07 -1.26,-0.19 -1.83,-0.28 -2.78,-0.46 -0.99,-0.29 -2.95,-0.98 -0.51,-0.18 -0.85,-0.43 -1.32,-0.65 -0.45,-0.2 -1.14,-0.34 -1.5,-0.55 -0.01,-0.54 1.61,-3.03 1.84,-3.23 0.32,0.06 2.33,0.87 2.67,1.05zm4.88 5.07c0.18,-0.66 1.19,-0.7 1.96,-3.35 0.97,-0.08 2.02,0.02 3.02,-0.03 0.98,-0.05 1.72,-0.28 2.5,-0.4 -0.49,1.02 -1.77,2.37 -2.73,3 -1.75,1.15 -2.18,1.08 -4.76,0.79zm-15.66 -12.31c0.02,0.03 0.03,0.07 0.04,0.09 0.01,0.02 0.03,0.06 0.04,0.08 0.06,0.12 0.01,0.04 0.08,0.16 0.11,0.17 0.07,0.11 0.22,0.24 0.22,0.19 0.31,0.23 0.52,0.46 0.53,0.27 0.94,0.76 1.39,1.1 2.23,1.66 2.43,1.61 4.58,2.96 -0.11,1.02 -1.41,2.94 -2,3.41 -0.56,-0.19 -1.04,-0.6 -1.64,-0.81 -0.54,-0.18 -0.45,-0.05 -0.85,-0.43 -0.83,-0.81 -2.79,-1.85 -3.27,-2.71l-1.22 -1.17c-0.63,-0.61 -1.26,-1.44 -1.78,-2.27 -0.58,-0.92 -0.43,-0.9 -0.66,-1.32 -0.24,-0.43 -0.44,-0.35 -0.77,-1.21 -0.41,-1.07 -0.64,-2.09 -0.26,-3.33 0.26,-0.84 0.63,-2.3 1.16,-2.76 0.28,0.53 0.45,1.55 0.74,2.26 0.83,1.99 3.35,4.61 3.67,5.25zm25.1 -2.34l0.66 -0.29c0.48,-0.14 0.16,-0.09 0.47,-0.51 0.14,0.21 0.09,0.08 0.21,0.15 0.41,0.2 0.41,0.12 0.67,0.95 0.01,0.03 0.02,0.06 0.03,0.09 0.23,0.74 0.16,0.27 0.43,0.85 0.19,0.39 0.28,0.87 0.41,1.33 0.13,0.47 0.12,1.07 0.21,1.63 -0.44,0.12 -1.04,1.51 -1.3,1.98 -0.41,0.74 -0.7,1.44 -1.68,1.57 -0.8,0.88 -2.71,1.42 -4.08,1.7 -1.38,0.28 -4.01,0.04 -5.29,-0.31 -1.53,-0.41 -2.86,-0.95 -4.3,-1.51 -3.67,-1.41 -4.31,-1.91 -7.42,-4.18 -1.07,-0.78 -2.18,-1.82 -3.05,-2.76 -1.83,-1.96 -3.91,-4.79 -3.9,-7.63 0.01,-3.58 2.47,-5.62 5.96,-5.7 6.67,-0.14 11.8,2.82 16.72,6.38 1.83,1.32 3.98,3.99 5.26,6.24zm-21.74 -14.98c-4.21,0.41 -6.27,1.79 -8.03,4.9 -1.56,2.78 -3.88,5.8 -3.38,9.36 0.64,4.63 4.37,8.8 7.9,11.34 1.96,1.41 1.14,1.03 3.86,2.64 3.01,1.79 9.01,4.14 13.57,3.7 2.58,-0.25 4.6,-1.27 6.08,-2.5 1.49,-1.25 2.34,-3.18 3.49,-5.1 1.26,-2.11 2.21,-3.38 1.6,-6.6 -0.35,-1.87 -1.8,-4.52 -2.68,-5.88 -3.46,-5.34 -9.08,-8.55 -15.06,-10.7 -2.44,-0.88 -4.43,-1.46 -7.35,-1.17z"/>
   <path class="fil1" d="M192.1 113.23c0.94,0.26 2.38,0.25 3.51,0.45 1.27,0.22 2.01,0.52 3.44,0.51 1.28,-0.01 2.58,0.01 3.7,-0.26 0.65,-0.15 2.64,-0.74 3.21,-0.65 -0.01,0.96 -1.8,1.43 -2.75,1.65 -4.09,0.97 -4.15,-0.11 -3.97,1.44 0.04,0.39 0,0.71 -0.12,0.99 -0.21,0.48 -0.69,0.94 -1.1,1.21 -0.96,0.63 -2.22,0.87 -3.16,1.5 0.15,0.68 0.44,0.44 0.32,1.47 -0.45,0.38 -1.21,0.37 -1.86,0.19 -0.32,-1.11 -0.05,-1.16 -2.5,-1.19 -2.95,-0.04 -0.09,-0.56 -3.25,-0.61 -0.67,-0.01 -1.12,-0.08 -1.74,-0.12 -0.78,-0.05 -0.93,-0.15 -1.59,-0.26 -0.59,-0.1 -0.87,-0.29 -1.53,-0.33 -0.48,-0.03 -1.39,0.04 -1.8,-0.08 0.06,-0.25 0.18,-0.3 0.59,-0.48 0.72,-0.31 2.05,-0.63 2.89,-0.48 3.66,0.63 4.36,0.88 8.44,0.45 0.76,-0.08 1.38,-0.1 2.01,-0.32 2.36,-0.84 1.3,-2.13 -1.78,-1.7 -1.19,0.17 -2.19,0.3 -3.4,0.28 -1.41,-0.02 -1.85,-0.2 -2.44,-1.2 -0.47,-0.81 -0.62,-2.04 0.08,-2.73 0.42,-0.41 0.67,-0.15 1.25,-0.48 2.25,-1.3 0.81,-0.93 1.76,-1.95 2.13,-2.28 2.53,-0.68 3.46,-0.35 1.02,0.37 1.75,-0.21 3.17,0.53 0.22,2.77 -4.89,0.25 -4.85,2.52zm2.45 -5.6c-2.77,0.2 -2.16,-0.08 -4.95,0.87 -3.52,1.19 -6.82,2.34 -9.5,5.16 -1.36,1.44 -2.66,4.43 -1.52,6.49 0.8,1.43 1.6,1.84 3.26,2.66 3.02,1.49 6.27,1.8 10.13,1.35 3.75,-0.44 9.95,-2.75 12.73,-4.81 0.27,-0.2 0.48,-0.44 0.74,-0.66 2.05,-1.67 3.77,-4.99 2.65,-7.15 -0.6,-1.16 -1.9,-2.13 -3.2,-2.75 -2.38,-1.15 -7.34,-1.37 -10.34,-1.16z"/>
   <path class="fil13" d="M188.85 126.58c0.34,-0.2 1.08,-0.13 1.53,-0.23 0.54,-0.12 0.91,-0.22 1.55,-0.17l3.15 -0.18 0.21 1.49c0.41,-0.07 0.52,-0.06 0.73,-0.32 0.09,0.26 0.07,0.2 0.22,0.35l0.39 0.25c0.16,-0.34 0.21,-0.35 0.18,-0.84l-0.12 -1.18c0.46,-0.2 2.94,-1.23 3.27,-1.27 0.14,-0.36 -0.06,-0.03 0.64,-0.41 0.02,-0.01 0.05,-0.03 0.07,-0.04l0.24 -0.12c0.14,-0.06 0.31,-0.12 0.49,-0.18 1.18,-0.19 2.6,-1.44 3.69,-1.9l0.24 0.95c0.09,0.64 0.58,3 0.44,3.24 -0.96,0.76 -2.84,1.95 -4.21,2.29 -0.16,0.11 -0.86,0.29 -1.05,0.37l-2.63 0.68c-0.51,0.4 -1.57,0.46 -2.31,0.63 -0.8,0.04 -3.23,0.51 -3.81,0.22 -0.23,-0.25 -0.34,-0.69 -0.38,-1.03 -0.45,0.59 -0.48,0.31 -0.82,0.41 -0.28,0.08 -0.21,0.19 -0.24,0.36 -0.1,0.46 0.28,0.07 -0.28,0.48 -1,0.07 -3.19,0.01 -4,-0.3 -0.98,-0.37 -1.73,-0.03 -3.52,-1 -0.52,-0.28 -0.98,-0.56 -1.35,-0.87 -0.25,-0.21 -0.29,-0.31 -0.48,-0.56 -0.78,-1.07 -1.6,-1.62 -1.82,-3.89 0.4,0.13 0.54,0.37 0.92,0.61 1.24,0.79 4.73,2.03 5.94,2.05 0.95,0.02 2.08,0.11 3.12,0.15zm17.74 -1.4l-0.62 -4.09c1.68,-1.04 2.53,-2.57 3.52,-3.47l0.45 1c0.16,0.72 -0.32,3.02 -0.63,3.61 -0.35,0.66 -1.59,1.97 -2.27,2.61 -0.35,0.34 -0.11,0.19 -0.46,0.34zm2.41 -11.24c-0.89,4.34 -5.67,7.85 -9.49,9.17 -2.85,0.99 -7.43,1.97 -10.55,1.87 -1.63,-0.06 -4.04,-0.37 -5.46,-0.78 -3.27,-0.95 -5.88,-3.01 -5.86,-6.78 0.01,-2.59 3.24,-5.67 5.5,-7 0.3,-0.18 0.6,-0.39 0.93,-0.58 2.08,-1.2 5.82,-2.4 8.12,-2.81 5.33,-0.94 10.79,-0.68 15.19,2.41 1.39,0.98 1.97,2.79 1.62,4.5zm-12.9 -9.59c-6.77,0.54 -13.1,2.5 -17.54,6.96 -1.35,1.36 -2.61,3.34 -3.01,5.24 -0.55,2.56 0.22,4.73 0.7,7.11 1.04,5.15 3.43,6.91 7.9,8.44 2.24,0.77 4.77,0.97 7.37,0.86 5.1,-0.22 9.02,-1.33 12.86,-3.49 3.58,-2.01 6.71,-4.53 7.6,-8.75 0.55,-2.63 0,-4.77 -0.58,-7.19 -0.61,-2.56 -1.03,-4.18 -2.6,-5.64 -2.6,-2.41 -7.98,-3.93 -12.7,-3.55z"/>
   <path class="fil1" d="M193.15 142.47c0.67,0.4 1.89,1.01 2.43,1.63 0.33,0.39 0.89,2.4 0.9,3.12 -0.73,-0.03 -1.16,0.1 -1.6,-0.33 -0.36,-0.36 -0.62,-0.69 -1.02,-1.07 -0.47,-0.45 -1.54,-1.67 -2.44,-1.69 -0.23,1.41 1.22,2.55 1.95,3.33 0.44,0.47 0.79,0.9 1.12,1.54 0.48,0.94 0.49,1.5 2.14,1.84 0.54,0.11 0.57,0.18 0.93,0.43 0.51,0.37 1.07,0.72 1.65,1.03l2.56 1.5c0.36,0.22 0.6,0.27 0.64,0.72 -0.71,0.32 -1.34,-0.25 -1.88,-0.54 -0.6,-0.32 -1.15,-0.54 -1.82,-0.84 -0.67,-0.31 -1.06,-0.6 -1.81,-0.86 -0.9,-0.31 -1.54,-0.72 -2.06,-0.82 -1.36,2.54 -4.77,0.08 -5.75,0.38 -0.23,0.16 -0.14,0.11 -0.33,0.28 -0.34,0.31 -0.78,0.73 -1.31,0.56 -1.24,-0.41 -0.59,-1.48 -0.56,-1.62 -0.4,-0.38 -0.62,-0.52 -0.99,-0.95 0.34,-1.58 0.85,-0.46 -0.61,-1.85 -0.29,-0.28 -0.49,-0.57 -0.79,-0.94 -1.13,-1.4 -5.21,-3.91 -5.45,-5.19 0.7,-0.51 1.24,-0.2 1.67,0.27l3.71 3.83 2.89 2.1c1.11,0.76 1.95,1.54 3.71,1.53 -0.31,-1.29 -3.4,-2.91 -4.69,-5.3 -0.79,-1.46 0.61,-2.41 1.73,-2.77 2.58,-0.84 3.01,0.17 4.15,0.08 0.03,-0.67 0,-1.42 0.78,-0.84 0.67,0.5 0.23,0.85 0.19,1.45zm-16.43 0.35c1.14,5.74 7.14,9.91 12.01,12.18 3.47,1.61 10.41,4.23 14.26,1.5 1.57,-1.11 1.79,-2.61 1.47,-4.47 -0.47,-2.74 -2.83,-5.52 -4.72,-7.45 -1.83,-1.87 -4.55,-3.81 -7.02,-5.05 -1.38,-0.69 -2.89,-1.21 -4.39,-1.65 -2.5,-0.74 -8.11,-1.64 -10.12,0.45 -1.18,1.23 -1.95,2.21 -1.5,4.49z"/>
   <path class="fil6" d="M154.02 130.85c-0.37,0.96 -0.11,2.19 -0.15,3.27 -0.05,1.08 -0.13,2.14 -0.21,3.25 -0.13,1.96 -0.51,3.96 -0.95,5.73 -0.61,2.42 -1.55,5.28 -2.54,7.54 -0.35,0.79 -0.96,1.74 -1.04,2.38 0.04,0.78 -0.11,1.75 -0.11,2.64 0.66,0.4 1.61,0.58 2.45,0.88 1.35,0.5 1.33,0.4 2.47,-0.16 1.59,-0.78 2.41,-2.02 3.49,-3.12 6.42,-6.5 6.37,-17.32 3.7,-25.74 -0.3,-0.96 -1.34,-4.01 -1.85,-4.59 -0.15,0.14 -0.89,1.84 -1.07,2.23 -0.35,0.75 -0.84,1.56 -1.21,2.14 -0.52,0.81 -1.51,2.13 -2.2,2.79 -0.21,0.21 -0.61,0.46 -0.76,0.75z"/>
   <path class="fil14" d="M126.13 160.54c1.31,0.42 3.12,0.62 4.57,0.86 1.56,0.26 3.13,0.48 4.69,0.77 1.59,0.29 8.14,1.85 9.19,1.69 0.92,-1.17 1.48,-7.51 1.45,-9.35 -0.57,-0.18 -0.98,-0.42 -1.7,-0.6 -0.67,-0.17 -1.39,-0.22 -2.07,-0.34 -2.71,-0.49 -1.42,-0.7 -2.24,-2.52 -0.41,-0.91 -1.44,-1.95 -2.8,-1.94 -1.39,0 -2.45,1.12 -3.11,1.74 -1.98,1.87 -3.36,0.39 -5.36,0.35 -0.96,-0.02 -1,0.42 -1.29,1.12 -0.57,1.4 -1.25,6.51 -1.34,8.23z"/>
   <path class="fil7" d="M75.4 75.99l0.84 -0.08c0.8,0.18 7.81,-0.84 9.05,-1.04 6.1,-1.01 10.34,-2.34 15.88,-4.51 5.29,-2.07 9.94,-5.27 14.19,-8.9l3.87 -3.79c1.8,-2.19 2.69,-3.07 4.45,-5.77 0.76,-1.16 3.41,-5.42 3.65,-6.66 -0.01,-0.18 -0.06,-0.21 -0.06,-0.24l-0.01 -0.44c0.37,-2.41 -0.6,-3.69 -0.64,-5.66 -0.33,0.31 -1.53,3.62 -1.69,4.04 -0.85,2.14 -2.92,5.33 -4.19,7.18 -1.47,2.12 -3.45,4.26 -5.25,6.12 -1.28,1.32 -1.91,1.78 -2.91,2.77 -0.42,0.42 -1.01,0.89 -1.57,1.33 -2.37,1.84 -5.99,4.26 -8.51,5.63 -0.57,0.31 -1.4,0.72 -1.93,0.97 -4.46,2.1 -5.35,2.41 -10.07,4.08 -5.23,1.85 -8.21,2.46 -13.51,3.51 -0.87,0.17 -1.56,0.36 -2.41,0.55 -0.38,0.08 -0.85,0.15 -1.15,0.23 -0.41,0.11 -0.62,0.27 -1.01,0.36 0.45,0.28 0.83,0.05 1.58,0.12 0.3,0.03 0.57,0.12 0.95,0.13 0.76,0.01 0.23,-0.05 0.78,-0.13l-0.32 0.2z"/>
   <path class="fil0" d="M157.23 189.76c0.77,-0.22 1.49,1.45 1.86,2.29l0.7 1.58c-0.45,0.43 -0.7,0.49 -1.38,0.29 -0.33,-0.1 -0.21,0.02 -0.35,-0.23 -0.11,-0.2 -0.17,-0.43 -0.25,-0.66 -0.38,-1.27 -0.52,-1.53 -0.71,-2.68 -0.06,-0.34 -0.16,-0.51 0.13,-0.59zm-12.72 -2.47c-0.69,1.33 -0.38,2.76 0.09,4.18 0.26,0.78 1.06,3.15 1.48,3.64 0.41,-0.21 -0.23,0.01 0.98,0.37 0.52,0.15 0.97,0.22 1.53,0.24 1.98,0.06 1.43,-0 2.56,-0.79 0.8,0.34 0.83,1.53 2.66,0.43 1.84,-1.11 1.98,-0.61 2.79,-0.58 3.99,0.15 4.68,-2.23 5.45,-2.27 0.54,-0.03 1.01,1.58 3.37,-0.09l0.44 -0.4c0.04,-0.78 -0.25,-0.96 -0.32,-1.28 -0.29,-1.44 -1.08,-3.14 -2.03,-4.24 -0.95,-1.11 -0.95,-1.18 -2.29,-1.8 -0.6,-0.28 -0.75,-0.42 -1.5,-0.48 -1.6,-0.14 -3.39,-0.08 -4.86,0.19 -2.12,0.38 -4.51,1.79 -5.97,2.21 -0.42,0.12 -1.23,0.25 -1.68,0.29 -0.6,0.06 -0.81,-0.34 -1.37,-0.48 -0.31,0.4 -0.29,0.25 -0.63,0.46 -0.66,0.41 -0.16,0.42 -0.7,0.42z"/>
   <path class="fil9" d="M149.12 153.02c0.08,-0.64 0.7,-1.59 1.04,-2.38 0.99,-2.26 1.93,-5.12 2.54,-7.54 0.44,-1.77 0.82,-3.77 0.95,-5.73 0.08,-1.11 0.16,-2.17 0.21,-3.25 0.05,-1.08 -0.22,-2.32 0.15,-3.27 -0.62,0.29 -2.41,2.03 -5.07,3.15 -1.65,0.69 -1.48,0.19 -2.31,1.76 -0.49,0.94 -0.81,1.67 -1.4,2.54 -1.78,2.65 -4.4,5.31 -6.94,7.22 -0.34,0.25 -0.79,0.68 -1.04,0.83 3.33,0.04 4.14,1.64 5.43,3.89 0.68,1.19 1.59,1.17 3.04,1.57 2.46,0.69 1.89,0.68 3.39,1.21z"/>
   <path class="fil4" d="M69.87 42.15c-2.08,0.11 -1.04,-0.03 -3.11,0.5 -6.4,1.64 -7.52,10.71 1.98,11.93 2.72,0.35 5.19,0.03 7.27,-1.28 0.87,-0.55 1.32,-0.83 1.7,-1.88 1.13,-3.12 0.12,-5.75 -2.54,-7.56 -1.33,-0.9 -3.89,-1.78 -5.3,-1.71z"/>
   <path class="fil4" d="M100.21 37.01c-1.32,0.28 -1.68,0.29 -2.6,1 -2.33,1.81 -3.52,3.29 -4.23,6.54 -0.51,2.34 -0.61,4.14 0.46,6.05 0.32,0.57 0.34,0.58 0.75,0.99 0.19,0.19 0.3,0.29 0.49,0.43l0.2 0.14c0.02,0.01 0.05,0.03 0.07,0.04 0.11,0.06 0.18,0.08 0.34,0.12 1.09,0.32 2.08,0.45 3.27,0.25 3.47,-0.58 6.05,-4.15 6.79,-7.61 0.62,-2.93 0.1,-6.36 -2.4,-7.59 -0.96,-0.47 -1.97,-0.63 -3.14,-0.38z"/>
   <path class="fil6" d="M10.9 95.53l1.58 5.22c0.28,0.94 0.58,1.63 0.89,2.5 0.26,0.74 0.54,1.68 0.9,2.38 0.22,-0.42 0.39,-0.85 0.66,-1.35 0.24,-0.43 0.49,-0.81 0.78,-1.2 3.11,-4.38 1.85,-2.53 5.96,-5.93 0.24,-1.02 -0.03,-1.8 -0.28,-2.62 -0.63,-2.14 -1.28,-5.85 -1.43,-7.96 -0.15,-2.07 -0.32,-3.84 -0.25,-6.03 0.07,-2.03 0.37,-3.8 0.58,-5.73 -0.28,-0.56 0.23,-2.5 0.35,-3.1l1.8 -6.32c0.16,-1.01 -0.44,-0.07 -0.79,-0.43 -0.26,-0.28 -0.11,-0.36 -0.3,-0.65 -0.68,1.2 -1.18,2.97 -1.71,4.23 -0.65,1.57 -2.22,7.16 -2.63,8.73 -1.02,3.95 -2.05,10.75 -2.29,14.71 -0.2,3.17 -0.69,5.85 -0.92,9.1 -0.04,0.56 0.07,0.88 -0.28,1.23 -0.06,-0.18 -0.09,-0.24 -0.17,-0.46 -0.09,-0.23 0.02,0.07 -0.09,-0.26l-0.91 -2.76c-0.23,-0.68 -1.11,-2.98 -1.44,-3.28z"/>
   <path class="fil7" d="M35.15 113.15l-1.98 -3.05c-0.17,0.19 0.18,0.27 -0.51,0.07 -0.91,-0.25 -3.35,-2.75 -6.25,-2.75 -2.1,-0 -3.54,0.79 -4.8,2.35 -0.51,0.64 -0.73,0.86 -0.4,1.62 0.8,-0 1.58,-0.84 2.54,-1.12 1.11,-0.33 2.12,-0.12 3.03,0.3 1.43,0.66 0.47,2.59 0.32,5.34 -0.26,5.02 0.65,7.82 4.07,9.87 1.42,0.85 3.81,1.46 5.9,0.85 1.65,-0.48 3.72,-2.29 1.63,-3.63 -0.68,-0.44 -1.52,-0.85 -2.11,-1.48 -3.12,-3.28 -1.1,-5.43 -1.7,-8.36l0.26 -0.03z"/>
   <path class="fil10" d="M147.61 162.97c0.96,0.13 7.45,2.21 8.04,2.6l-1.15 6.46c0.16,0.15 0.21,0.1 0.11,0.76 -0.16,1.01 -0.57,4.01 -0.51,4.88 2.53,-0.27 4.73,-0.05 7.13,0.3 0.53,-1.33 0.63,-2.31 0.89,-3.88 0.22,-1.37 0.5,-2.57 0.78,-3.86 0.48,-2.18 1.56,-4.71 0.3,-5.6 -2.14,-1.5 -5.55,-2.87 -8,-3.73 -1.17,-0.41 -2.36,-0.71 -3.57,-1.17 -0.51,-0.19 -1.12,-0.41 -1.72,-0.61 -1.74,-0.58 -1.09,-0.16 -1.44,-0.81 -0.33,0.14 -0.63,-0.01 -0.95,-0.26 -0.56,-0.44 0.02,0.41 -0.12,-0.12 -0.01,-0.04 -0.04,-0.04 -0.05,-0.06l0.02 0.35c-0.01,0.01 -0.03,0.04 -0.03,0.05l-0.08 0.07c-0,0 -0.03,0.02 -0.03,0.02l-0.1 0.36c-0.01,0.03 -0.02,0.06 -0.02,0.09l-0.13 0.77c-0.23,1.44 -0.73,0.82 0.17,1.75 0.05,-0.21 0.05,-0.26 0.09,-0.45 0.16,-0.69 0.19,-0.41 0.59,-0.71 -0.09,1.18 -0.26,1.66 0.26,2.61l-0.48 0.19z"/>
   <path class="fil7" d="M149.1 129.91c0.99,-0.14 2.35,-1.35 3.04,-1.98 2.27,-2.05 4.33,-6.82 5.3,-9.9 0.69,-2.17 1.02,-6.89 0.58,-9.13 -0.3,-1.49 -0.1,-2.92 -0.63,-4.46 -0.35,-1.03 -1.22,-2.18 -1.84,-3.11 -1.07,-0.05 -2.53,0.92 -2.89,1.48 -0.95,1.49 -0.89,5.78 -1.12,7.69 -0.63,5.11 -0.92,10.85 -1.76,15.89l-0.68 3.52z"/>
   <path class="fil7" d="M44.57 128.82c0.47,0.34 1.76,2.52 2.16,3.11l2.31 3.03 5.24 5.44c4.73,4.25 7.25,5.66 12.59,8.64 4.39,2.45 6.91,3.01 11.63,4.39 1.34,0.39 2.87,0.61 4.19,1.02 6.01,1.89 12.63,2.04 19.17,1.91 0.52,-0.02 1.12,-0.08 1.53,-0.29 -0.34,-0.29 -0.09,0.06 -0.17,-0.38l0.07 -1.27c-0.28,-0.07 -3.96,0.07 -4.67,0.07 -1.85,0.02 -5.48,-0.36 -7.54,-0.56 -0.66,-0.06 -1.51,-0.26 -2.25,-0.37 -4.78,-0.74 -10.48,-1.88 -14.92,-3.79l-5.44 -2.57c-1.15,-0.61 -4.65,-2.63 -5.9,-3.5 -4.44,-3.1 -9.34,-7.16 -12.86,-11.16l-3.03 -3.57c-0.43,-0.51 -0.76,-0.98 -1.17,-1.43 -0.24,0.38 -0.6,0.99 -0.93,1.28z"/>
   <path class="fil2" d="M66.2 114.96c0.21,0.23 0.13,0.19 0.48,0.33 2.56,1.12 3.36,1.38 6.39,0.93 1.95,-0.35 3.85,-1.59 5.11,-2.52 1.13,-0.84 2.6,-2.73 3.15,-4.54 -0.24,-0.25 -0.16,-1.08 -0.17,-1.49 -0.02,-1.02 0.1,-2.3 -0.22,-3.1 -0.01,-0.02 -0.02,-0.05 -0.03,-0.06 -0.01,-0.01 -0.02,-0.04 -0.03,-0.06 -0.39,-0.91 -0.41,-0.66 -1.06,-1.44l-0.74 -0.74c-2.72,-1.39 -1.52,1.05 -2.11,2.75 -0.62,1.78 -2.35,4.2 -4.32,4.87 -2.99,1.01 -3.49,0.06 -5.69,-1.33 -0.4,-0.25 -1.94,-1.85 -3.24,-0.85 -1,0.77 -0.21,1.43 -0.45,2.21 -0.26,0.84 -0.01,1.33 0.29,1.96 0.6,1.29 0.33,0.27 0.87,1.09 0.15,0.22 0.05,0.01 0.09,0.24 0.08,0.42 0.05,-0.11 0.52,0.41 0.11,0.13 0.03,0.05 0.15,0.21 0.37,0.49 0.75,0.68 1.29,0.98l-0.28 0.16z"/>
   <path class="fil2" d="M85.77 125.03c-2.7,-0.66 -5.37,2.27 -4.23,3.41 0.56,0.56 1.47,-0 2.18,0.02 3.39,4.12 10.29,7.91 15.46,8.55 4.47,0.55 12.87,-1.23 15.78,-5.1 0.52,-0.69 0.76,-1.38 0.12,-2.08 -1.14,-0.24 -2.98,0.92 -3.82,1.4 -4.12,2.38 -8.11,2.85 -12.94,2.11 -3.97,-0.61 -7.66,-2.74 -10.63,-5.03 -1.84,-1.42 -1.64,-2.26 -1.93,-3.28z"/>
   <path class="fil11" d="M144.58 81.23c-0.01,-0.93 -0.5,-1.02 -0.86,-1.51 -1.74,-2.34 -0.6,-1.32 -3.11,-3.85 -0.51,-0.52 -1.88,-1.51 -2.72,-1.92 -3.57,-1.77 -8.06,-1.57 -11.68,-0.16 -1.96,0.77 -2.84,1.42 -4.38,2.57 -0.34,0.25 -0.3,0.29 -0.59,0.57 -0.34,0.33 -0.31,0.26 -0.56,0.6 -2.27,2.98 -2.24,4.98 1.64,3.04 1.94,-0.97 4.71,-1.83 7.1,-2.21 8.94,-1.41 12.84,3.06 15.17,2.87z"/>
   <path class="fil8" d="M192.1 113.23c-0.04,-2.27 5.06,0.24 4.85,-2.52 -1.42,-0.73 -2.15,-0.16 -3.17,-0.53 -0.93,-0.33 -1.33,-1.93 -3.46,0.35 -0.95,1.02 0.48,0.66 -1.76,1.95 -0.58,0.34 -0.83,0.08 -1.25,0.48 -0.7,0.68 -0.56,1.92 -0.08,2.73 0.59,1 1.03,1.18 2.44,1.2 1.21,0.02 2.22,-0.12 3.4,-0.28 3.08,-0.43 4.14,0.86 1.78,1.7 -0.62,0.22 -1.24,0.24 -2.01,0.32 -4.08,0.44 -4.77,0.18 -8.44,-0.45 -0.85,-0.14 -2.17,0.18 -2.89,0.48 -0.41,0.17 -0.53,0.23 -0.59,0.48 0.4,0.12 1.32,0.05 1.8,0.08 0.66,0.04 0.94,0.23 1.53,0.33 0.67,0.12 0.81,0.21 1.59,0.26 0.61,0.04 1.06,0.11 1.74,0.12 3.16,0.05 0.29,0.56 3.25,0.61 2.45,0.03 2.19,0.08 2.5,1.19 0.65,0.17 1.41,0.19 1.86,-0.19 0.12,-1.03 -0.18,-0.79 -0.32,-1.47 0.94,-0.64 2.2,-0.87 3.16,-1.5 0.41,-0.27 0.89,-0.73 1.1,-1.21 0.13,-0.28 0.17,-0.6 0.12,-0.99 -0.18,-1.55 -0.12,-0.47 3.97,-1.44 0.94,-0.22 2.74,-0.69 2.75,-1.65 -0.57,-0.1 -2.56,0.49 -3.21,0.65 -1.13,0.27 -2.43,0.25 -3.7,0.26 -1.43,0.01 -2.17,-0.29 -3.44,-0.51 -1.13,-0.2 -2.57,-0.2 -3.51,-0.45z"/>
   <path class="fil8" d="M193.15 142.47c0.04,-0.6 0.49,-0.95 -0.19,-1.45 -0.78,-0.58 -0.75,0.17 -0.78,0.84 -1.14,0.1 -1.57,-0.92 -4.15,-0.08 -1.11,0.36 -2.51,1.32 -1.73,2.77 1.29,2.39 4.38,4.01 4.69,5.3 -1.76,0 -2.6,-0.77 -3.71,-1.53l-2.89 -2.1 -3.71 -3.83c-0.42,-0.47 -0.97,-0.78 -1.67,-0.27 0.24,1.28 4.32,3.79 5.45,5.19 0.3,0.37 0.5,0.66 0.79,0.94 1.46,1.39 0.96,0.27 0.61,1.85 0.37,0.42 0.6,0.56 0.99,0.95 -0.02,0.14 -0.68,1.21 0.56,1.62 0.52,0.17 0.97,-0.25 1.31,-0.56 0.19,-0.17 0.1,-0.12 0.33,-0.28 0.98,-0.3 4.39,2.17 5.75,-0.38 0.52,0.1 1.17,0.51 2.06,0.82 0.75,0.26 1.14,0.55 1.81,0.86 0.67,0.31 1.22,0.52 1.82,0.84 0.55,0.29 1.17,0.86 1.88,0.54 -0.03,-0.45 -0.28,-0.5 -0.64,-0.72l-2.56 -1.5c-0.58,-0.31 -1.13,-0.66 -1.65,-1.03 -0.36,-0.26 -0.39,-0.32 -0.93,-0.43 -1.65,-0.34 -1.66,-0.9 -2.14,-1.84 -0.33,-0.64 -0.68,-1.07 -1.12,-1.54 -0.73,-0.79 -2.18,-1.92 -1.95,-3.33 0.9,0.02 1.97,1.24 2.44,1.69 0.4,0.38 0.66,0.71 1.02,1.07 0.44,0.43 0.87,0.3 1.6,0.33 -0.01,-0.72 -0.57,-2.73 -0.9,-3.12 -0.53,-0.62 -1.75,-1.23 -2.43,-1.63z"/>
   <path class="fil4" d="M113.8 37.35c-1.03,0.29 -1.06,0.36 -1.74,0.95 -0.63,0.54 -0.83,0.82 -1.36,1.43 -0.65,0.75 -1.44,2.74 -1.61,3.82 -0.9,5.5 4,8.68 7.89,3.51 1.58,-2.1 2.4,-6.2 0.8,-8.34 -0.68,-0.91 -2.29,-1.84 -3.98,-1.37z"/>
   <path class="fil7" d="M152.52 77.03c0.24,1.38 0.56,2.49 0.73,3.96 0.16,1.44 0.25,2.92 0.28,4.4 0.05,3.28 -0.09,5.87 -0.41,9.01 0.03,-0.03 0.07,-0.08 0.09,-0.1l0.19 0.07c0.33,-0.31 0.03,-0.18 0.23,-0.59 0.24,-0.48 0.24,0.01 0.7,-1.4 1.31,-3.98 2.66,-12.17 3.04,-16.41 0.49,-5.51 -0.42,-9.86 -2,-14.76 -0.24,-0.73 -0.51,-1.42 -0.75,-2.03 -0.18,-0.43 -0.26,-0.59 -0.4,-0.99 -0.13,-0.37 -0.15,-0.71 -0.56,-0.7 -0.02,0.72 1.23,4.62 0.79,10.3 -0.15,1.95 -0.84,5.27 -1.24,7.35 -0.17,0.88 -0.43,1.05 -0.46,1.21 -0.11,0.54 0.26,0.48 -0.22,0.66z"/>
   <path class="fil2" d="M130.53 114.74l0.48 -0.54c0.17,-0.24 0.29,-0.43 0.46,-0.7 0.31,-0.49 0.59,-0.85 0.89,-1.44 0.42,-0.86 1.05,-2.36 1.29,-3.39 -0.28,-0.02 -0.16,0.17 -0.31,-0.72 -0.14,-0.81 -0.12,-1.01 0.03,-1.75l0.02 -0.11c0,-0.01 0.01,-0.05 0.01,-0.06 0,-0.03 0.01,-0.11 0.02,-0.14l0.1 -0.35c0.2,0.25 0.24,0.3 0.27,0.68l0.26 -1.4c-0.3,0.48 0.04,-0.14 -0.09,0.47 0,0 -0.08,0.27 -0.08,0.27 -0.13,0.31 0.04,0.05 -0.17,0.28 -0.01,-0.46 -0.05,-0.23 -0.04,-0.6 0,-0.14 0.04,-0.34 0.03,-0.54 -0.26,0.08 0.03,-0.02 -0.21,0.13 -0.34,0.21 -0.99,0.3 -1.75,0.7 -0.73,0.38 -1.63,1.11 -2.11,1.71 -0.87,1.07 -2.55,7.1 -7.8,4.66 -0.59,-0.27 -1.59,-0.94 -2.03,-1.42 -0.61,-0.66 -1.01,-1.22 -2.28,-1.14 -0.81,1.26 -0.43,2.28 0.35,3.77 0.65,1.25 2.15,2.55 3.42,3.32 1.28,0.78 3.64,0.67 4.97,0.23 1.14,-0.38 3.18,-2.2 3.39,-2.54l0.2 0.34c0.16,0.24 0.15,0.12 0.32,0.17 0.29,0.07 0.05,-0.07 0.35,0.11z"/>
   <path class="fil4" d="M144.52 187.29c0.54,0 0.05,-0.02 0.7,-0.42 0.33,-0.21 0.31,-0.06 0.63,-0.46 0.56,0.13 0.76,0.53 1.37,0.48 0.45,-0.04 1.25,-0.17 1.68,-0.29 1.47,-0.41 3.86,-1.83 5.97,-2.21 1.48,-0.26 3.27,-0.33 4.86,-0.19 0.75,0.07 0.89,0.2 1.5,0.48 1.34,0.62 1.33,0.69 2.29,1.8 0.95,1.1 1.73,2.8 2.03,4.24 0.07,0.33 0.36,0.51 0.32,1.28l-0.44 0.4c1.15,-0.31 2,-1.04 2.63,-2.06 0.32,-0.52 0.04,-0.53 0.09,-1.02l0.04 -0.15c0,-0.02 0.02,-0.05 0.03,-0.07 -1.28,-3.16 -3.45,-6.39 -6.82,-7.57 -3.42,-1.2 -8.62,-0.35 -11.38,1.81 -2.45,1.91 -2.32,1.53 -4.28,2.9 -1.13,0.79 -0.79,0.7 -1.21,1.05z"/>
   <path class="fil15" d="M143.31 180.1c1.05,0.23 3.13,0.85 3.89,0.06 0.43,-0.44 0.59,-1.23 0.02,-1.63 -0.38,-0.27 -1.22,-0.38 -1.83,-0.49l-11.64 -2.28c-2.46,-0.47 -14.09,-3.16 -15.74,-2.54 -0.73,1.85 0.75,1.93 2.11,2.25 1.25,0.29 2.54,0.59 3.8,0.83l15.57 3.02c1.26,0.26 2.61,0.51 3.84,0.78z"/>
   <path class="fil5" d="M133.65 108.68c-0.24,1.02 -0.87,2.53 -1.29,3.39 -0.29,0.6 -0.58,0.95 -0.89,1.44 -0.17,0.27 -0.29,0.46 -0.46,0.7l-0.48 0.54c-0.27,0.6 -1.77,1.74 -2.34,2.1 -0.91,0.58 -1.86,0.93 -3.13,1.17 -0.29,0.16 -0.3,0.14 -0.71,0.14 -0.19,0 -0.6,-0.06 -0.81,0.08 1.88,0.51 5.95,0.19 7.63,-0.74 0.99,-0.55 3.38,-1.43 3.6,-1.73 0.23,-0.77 1.32,-1.57 1.83,-2.09 0.67,-0.69 1.11,-1.43 1.53,-2.31l1.13 -2.7c0.27,-0.7 0.59,-2.75 0.31,-3.3 -0.09,-0.09 -0.28,0.03 -0.5,-0.01l-0.22 -0.07c-1.37,-0.36 -1.62,0.22 -2.71,-0.36 -0.48,-0.25 -0.89,-0.55 -1.59,-0.17 -0.12,1.13 -0.47,3.05 -0.9,3.95z"/>
   <path class="fil4" d="M144.34 40.52c-1.26,0.17 -1.89,0.47 -2.66,1.78 -0.68,1.16 -0.58,2.32 -0.07,3.57 0.44,1.07 1.14,1.83 1.92,2.49 0.91,0.77 1.6,1.4 3.31,1.19 1.33,-0.16 2.89,-1.94 2.85,-3.7 -0.03,-1.55 -1.37,-3.38 -2.37,-4.3 -0.88,-0.82 -1.92,-1.17 -2.99,-1.02z"/>
   <path class="fil6" d="M194.55 107.63c3,-0.21 7.95,0 10.34,1.16 1.3,0.63 2.59,1.59 3.2,2.75 1.12,2.16 -0.6,5.47 -2.65,7.15 -0.26,0.21 -0.46,0.46 -0.74,0.66 -2.78,2.06 -8.98,4.37 -12.73,4.81 -3.86,0.45 -7.11,0.14 -10.13,-1.35 -1.66,-0.82 -2.46,-1.23 -3.26,-2.66 -1.14,-2.06 0.16,-5.05 1.52,-6.49 2.68,-2.82 5.98,-3.97 9.5,-5.16 2.79,-0.94 2.18,-0.67 4.95,-0.87zm14.45 6.31c0.35,-1.71 -0.23,-3.52 -1.62,-4.5 -4.4,-3.09 -9.86,-3.35 -15.19,-2.41 -2.31,0.41 -6.05,1.61 -8.12,2.81 -0.33,0.19 -0.63,0.4 -0.93,0.58 -2.26,1.33 -5.49,4.4 -5.5,7 -0.02,3.77 2.59,5.83 5.86,6.78 1.42,0.41 3.83,0.73 5.46,0.78 3.12,0.11 7.7,-0.88 10.55,-1.87 3.83,-1.32 8.61,-4.83 9.49,-9.17z"/>
   <path class="fil15" d="M135.13 192.83c1.42,-0.4 3.3,-0.95 4.73,-1.12 0.3,-0.45 0.16,-0.12 0.61,-0.4 -0.27,-0.08 -2.02,-0.36 -2.28,-0.48 -0.76,-0.04 -4.36,-0.91 -5.62,-1.13 -2.2,-0.38 -15.9,-3.27 -16.96,-2.72 -0.97,0.51 -0.5,1.55 0.36,1.92 0.61,0.26 1.88,0.47 2.62,0.62l15.18 3.05c0.27,0.05 0.45,0.07 0.7,0.1l0.66 0.17z"/>
   <path class="fil1" d="M33.9 103.42c0.27,0.29 0.1,0.23 0.17,0.76 0.13,0.98 1.73,4.24 2.11,4.9 0.67,1.15 1.5,2.58 2.47,3.57 0.23,0.24 0.27,0.32 0.48,0.56 0.33,0.38 0.12,0.29 0.59,0.42 0.19,-0.46 0.17,-0.06 0.29,-0.77 0.25,-1.46 0.21,-4.43 0.19,-5.99 -0.02,-1.74 0.27,-6.4 0.17,-7.24 -1.01,0.3 -6.05,3.22 -6.47,3.8z"/>
   <path class="fil6" d="M176.72 142.82c-0.45,-2.28 0.32,-3.26 1.5,-4.49 2,-2.1 7.62,-1.2 10.12,-0.45 1.5,0.45 3,0.96 4.39,1.65 2.47,1.24 5.19,3.18 7.02,5.05 1.89,1.93 4.25,4.71 4.72,7.45 0.32,1.86 0.1,3.36 -1.47,4.47 -3.85,2.73 -10.79,0.11 -14.26,-1.5 -4.88,-2.27 -10.88,-6.44 -12.01,-12.18zm27.37 13.76c2.25,-1.97 1.3,-4.44 0.33,-6.79 -0.16,-0.38 -0.31,-0.64 -0.44,-0.98 -1.28,-2.26 -3.43,-4.92 -5.26,-6.24 -4.92,-3.55 -10.04,-6.52 -16.72,-6.38 -3.49,0.07 -5.94,2.12 -5.96,5.7 -0.01,2.84 2.06,5.67 3.9,7.63 0.88,0.94 1.98,1.98 3.05,2.76 3.11,2.27 3.75,2.77 7.42,4.18 1.44,0.56 2.77,1.09 4.3,1.51 1.28,0.35 3.91,0.59 5.29,0.31 1.37,-0.28 3.28,-0.82 4.08,-1.7z"/>
   <path class="fil5" d="M82.68 100.22c-0.08,0.62 0,1.82 -0.03,2.56 -0.03,0.77 -0.1,1.57 -0.19,2.34 -0.14,1.13 -0.56,3.27 -1.13,4.04 -0.55,1.81 -2.01,3.7 -3.15,4.54 -1.25,0.93 -3.15,2.17 -5.11,2.52l0.57 0.14c0.21,0.01 0.6,-0.01 0.82,-0.02 0.42,-0.02 0.88,-0.09 1.32,-0.18 2.53,-0.48 4.08,-1.62 5.99,-3.04 1.58,-1.18 2.97,-3.43 3.68,-5.34 0.6,-1.61 0.33,-1.46 0.57,-2.52 0.03,-0.66 0.13,-1.6 0.07,-2.23 -0.15,-1.49 -2.88,-2.37 -3.26,-3.28 -0.13,0.15 -0.15,-0.08 -0.17,0.47z"/>
   <path class="fil11" d="M54.91 166.49l0.74 0.29 -0.01 0.31c0.29,-0.37 0.15,-0.54 0.34,-0.86 0.28,-0.45 0.57,-0.52 0.82,-0.59 0.74,-0.9 2.59,-2.15 2.84,-2.52 -3,-0.28 -9.35,-5.18 -11.53,-7.28 -0.54,-0.52 -2.81,-3.07 -3.05,-3.14 1.17,2.94 2.43,5.05 4.32,7.44 1.47,1.86 2.43,3.24 4.06,4.88 0.29,0.29 0.51,0.54 0.74,0.77 0.25,0.25 0.46,0.38 0.75,0.7z"/>
   <path class="fil5" d="M56.89 99.32c-0.37,0.91 -0.6,1.79 -0.73,2.88 0.05,4.43 1.31,5.92 3.38,8.58 1.61,2.06 4.08,3.81 6.56,4.57 0.57,0.18 0.52,0.03 0.59,-0.06 -0.35,-0.14 -0.27,-0.1 -0.48,-0.33 -0.89,-0.19 -2.64,-2.15 -3.23,-2.87 -0.71,-0.86 -1.73,-2.62 -2.18,-3.85 -1.17,-3.18 -1.63,-7.05 -1.02,-10.67 -0.44,0.08 -0.2,0.02 -0.52,0.34 -0.48,0.5 -0.58,0.41 -1.1,1.21 -0.24,0.37 -0.44,0.63 -0.66,0.97 -0.39,0.6 -0.22,0.48 -0.46,1.06 -0.14,-0.13 -0.37,-0.08 -0.17,-0.79 0.04,-0.13 0.16,-0.45 0.17,-0.51 0.09,-0.59 0.13,-0.4 -0.15,-0.54z"/>
   <path class="fil7" d="M165.11 47.68c-0.04,-0.42 -0.34,-0.6 -0.56,-0.96 -0.26,-0.42 -0.38,-0.79 -0.62,-1.13l-4.85 -6.6c-0.3,-0.53 0.17,0.11 -0.12,-0.19l-0.74 -0.69c-0.56,-0.42 -0.06,-0.32 -0.6,-0.7 -0.02,-0.02 -0.1,-0.06 -0.12,-0.08 -0.3,-0.22 -0.65,-0.56 -0.91,-0.85 -0.32,-0.35 -0.53,-0.56 -0.89,-0.84 -0.84,-0.63 0.06,-0.21 -0.95,-0.9 -0.54,-0.37 -1.17,-1.03 -1.63,-1.5 -1.28,-0.56 -2.19,-1.67 -2.52,-1.75l-1.82 -1.01c-0.92,-0.5 -0.67,-0.92 -0.06,-2.62 0.16,-0.45 0.37,-0.84 0.55,-1.29l1.34 -2.48c0.28,-0.42 0.48,-0.76 0.78,-1.2 1.2,-1.73 2.18,-2.54 3.75,-3.91 1.56,-1.37 5.78,-3.31 7.63,-3.74 2.26,-0.52 4.53,-0.57 7.07,-0.36 1.39,0.12 1.97,0.36 3.06,0.75 0.66,0.24 2.2,0.62 2.72,1.14 0.44,0.43 -0.18,-0.18 1.1,0.5 1.87,0.99 4.1,2.5 5.33,4.22 0.51,0.71 0.84,0.94 1.65,2.17 0.27,0.41 0.46,0.7 0.72,1.13 0.52,0.85 0.83,1.76 1.15,2.69 0.96,2.71 1.23,4.9 1.14,7.82 -0.02,0.57 -0.29,2.28 -0.54,2.76 -0.37,0.71 -0.17,-0.29 -0.11,0.33 0.01,0.07 0.03,0.31 0.02,0.35 -0.05,0.42 -0.36,1.04 -0.5,1.34 -0.23,0.5 0.16,-0.72 -0.15,0.69 -0.09,0.4 -0.12,0.42 -0.23,0.73 -0.07,0.18 -0.07,0.21 -0.13,0.35l-1.51 2.67c-0.56,0.92 -2,2.81 -2.86,3.43 -0.7,0.51 -1.29,1.8 -2.59,2.04 -0.4,0.07 0.22,-0.3 -0.19,0.15 -0.01,0.01 -0.04,0.04 -0.05,0.06 -0.02,0.02 -0.04,0.04 -0.06,0.06l-2.15 1.26c-0.25,0.08 -0.85,0.07 -1.36,0.36 -0.24,0.14 -0.21,0.2 -0.53,0.38 -0.25,0.14 -0.38,0.18 -0.66,0.27 -0.42,0.13 -1.16,0.4 -1.55,0.46 -0.57,0.09 -1.33,0.09 -1.61,0.12 -2.17,0.21 -1.47,0.49 -3.17,-2.69 -0.36,-0.67 -1.23,-2.29 -1.67,-2.71zm-6.6 -31.26c-1.15,0.91 -3.61,1.47 -6.73,5.34 -1.26,1.56 -3.81,5.66 -4.05,8.26l-0.28 0.03c0.44,0.38 2.1,1.04 3.44,2 1.2,0.86 2.11,1.55 3.14,2.43 0.56,0.48 0.92,0.83 1.44,1.34 0.27,0.26 0.46,0.4 0.74,0.66l2.01 2.17c0.47,0.45 0.82,1.02 1.27,1.52l1.23 1.55c0.44,0.56 0.77,0.97 1.19,1.59 0.42,0.61 0.7,1.04 1.14,1.65 1.73,2.43 2.83,4.28 4.16,6.97 0.29,0.58 0.52,1.39 0.89,1.91 0.03,-0.33 0.5,-0.2 0.91,-0.2 3.53,-0.01 5.83,-1.65 6.85,-1.71 0.19,-0.24 2.4,-1.45 3.09,-1.96 7.5,-5.57 10.35,-15.9 6.19,-24.53 -3.4,-7.04 -10.79,-11.29 -18.67,-10.99 -4.63,0.18 -5.47,1.33 -7.95,1.97z"/>
   <path class="fil0" d="M81.34 173.32c1.19,1.01 4.27,2.57 5.97,3.29 2.23,0.93 4.38,1.82 7.07,2.22l0.56 0.07c-0.21,-1.17 0.27,-2.44 -0.03,-3.63 -3.45,-0.5 -3.85,-0.29 -7.46,-1.49 -0.78,-0.26 -4.92,-1.54 -5.75,-1.46 -0.46,0.04 -0.03,0.06 -0.31,0.02 -0.01,-0 -0.04,-0.01 -0.06,-0.01l-0.65 0.07c0.14,0.24 0.23,0.4 0.92,0.4 -0.92,0.05 -0.16,-0.06 -0.51,0.18 0.12,0.23 0.06,0.18 0.24,0.34z"/>
   <path class="fil6" d="M190.05 130.4l-0.05 -3.88 -1.14 0.06c-1.04,-0.03 -2.17,-0.13 -3.12,-0.15 -1.21,-0.02 -4.7,-1.26 -5.94,-2.05 -0.38,-0.24 -0.52,-0.49 -0.92,-0.61 0.23,2.27 1.04,2.83 1.82,3.89 0.19,0.25 0.22,0.35 0.48,0.56 0.37,0.31 0.83,0.59 1.35,0.87 1.79,0.96 2.54,0.62 3.52,1 0.81,0.31 3,0.38 4,0.3z"/>
   <path class="fil16" d="M133.79 97.47c-0.02,0.41 0.54,2.52 0.65,3.25 0.2,1.31 0.18,2.68 0.11,4.01 0.7,-0.38 1.12,-0.08 1.59,0.17 1.09,0.58 1.34,0.01 2.71,0.36l0.22 0.07c0.22,0.04 0.4,-0.08 0.5,0.01 0.28,0.55 -0.04,2.6 -0.31,3.3l-1.13 2.7c-0.42,0.88 -0.85,1.62 -1.53,2.31 -0.5,0.52 -1.59,1.32 -1.83,2.09 0.47,-0.24 1.59,-1.51 2.04,-2 0.83,-0.91 1.06,-1.22 1.61,-2.44 0.69,-1.51 1.87,-4.54 1.53,-6.42 0.06,-1.43 -0.28,-3.01 -0.62,-4.3 -0.28,0.24 -0.24,0.48 -0.26,0.52 -0.06,-0.31 -0.01,-0.19 -0.18,-0.43l-0.68 -0.84c-0.96,-0.95 -2.79,-2.68 -4.13,-2.87 -0.19,0.39 0.34,0.1 -0.09,0.31 -0.22,0.11 0.08,0.06 -0.15,-0.05l-0.06 0.24z"/>
   <path class="fil6" d="M191.12 159.02c-0.79,0.08 -0.47,0.3 -0.86,0.76 -0.02,0.02 0.01,0.04 -0.16,0.12l-0.79 0.11c-0.08,0.18 0.07,0.5 -0.29,0.36 -0.33,-0.13 -0.18,0.14 -0.14,-0.33 0.01,-0.09 0.1,-0.28 0.13,-0.35 0.1,-0.22 0.65,-1.29 0.65,-1.3 -0.34,-0.18 -2.35,-1 -2.67,-1.05 -0.23,0.21 -1.84,2.69 -1.84,3.23 0.36,0.21 1.05,0.35 1.5,0.55 0.47,0.22 0.82,0.47 1.32,0.65 1.95,0.69 0.17,0.52 2.95,0.98 0.57,0.09 1.18,0.21 1.83,0.28 1.13,0.12 2.27,-2.19 2.7,-3.04 -1.14,-0.45 -1.8,-0.17 -2.93,-0.58l-1.4 -0.41z"/>
   <path class="fil6" d="M177.99 155.7c0.48,0.86 2.45,1.9 3.27,2.71 0.39,0.39 0.31,0.25 0.85,0.43 0.59,0.2 1.08,0.62 1.64,0.81 0.59,-0.47 1.9,-2.39 2,-3.41 -2.15,-1.35 -2.35,-1.31 -4.58,-2.96 -0.46,-0.34 -0.86,-0.83 -1.39,-1.1 -0.51,0.08 -0.83,1.04 -1.12,1.55 -0.19,0.33 -0.32,0.63 -0.47,0.92 -0.21,0.41 -0.33,0.55 -0.19,1.04z"/>
   <path class="fil9" d="M32.22 100c-0.04,0.57 1.04,3.48 1.47,3.93 -0.01,-0.49 -0.09,-0.28 0.2,-0.5 0.42,-0.58 5.46,-3.5 6.47,-3.8l0.35 -0.18 0.01 1c0.12,-0.31 0.18,-0.73 0.13,-1.16 0.29,-0.98 0.32,-2.1 0.35,-3.13 -0.55,0.13 -1.56,0.78 -2.11,1.1 -0.69,0.4 -1.37,0.64 -2.2,0.92 -1.51,0.52 -3.18,0.9 -4.74,1.37l0.07 0.44z"/>
   <path class="fil6" d="M176.77 154.53c0.42,0.12 0.11,0.25 0.64,-0.65 0.17,-0.29 0.35,-0.53 0.54,-0.86 0.38,-0.64 0.89,-1.22 0.93,-1.86 -0.31,-0.64 -2.84,-3.26 -3.67,-5.25 -0.3,-0.71 -0.47,-1.73 -0.74,-2.26 -0.53,0.46 -0.9,1.92 -1.16,2.76 -0.38,1.24 -0.15,2.25 0.26,3.33 0.33,0.86 0.53,0.78 0.77,1.21 0.23,0.42 0.08,0.4 0.66,1.32 0.52,0.83 1.14,1.66 1.78,2.27z"/>
   <path class="fil7" d="M109.39 116.78c-1.82,-0.16 -4.18,-0.17 -6.03,-0.11 -1.34,0.04 -1.57,0.37 -0.92,1.43 0.85,1.39 3.99,4.01 5.84,2.84 1.13,-0.72 2.23,-2.71 1.11,-4.16z"/>
   <path class="fil8" d="M137.86 25.17c0.89,0.35 2.61,0.92 3.4,0.57 0.76,-0.34 1.01,-1.17 0.89,-1.98 -0.17,-1.15 -0.93,-1.29 -1.62,-1.46 -1.12,-0.27 -1.97,-0.8 -3.55,-0.97 -1.36,-0.15 -2.55,0.72 -2.18,2.3 0.21,0.89 0.88,1.1 1.93,1.18 -0.05,-0.16 0.1,-0.28 -0.02,0.2l1.14 0.16z"/>
   <path class="fil8" d="M188.78 10.52c-0.66,0.18 -0.49,0.11 -1.02,0.47l-2.54 2.23c-0.49,0.44 -1.14,1.24 -0.76,2.32 0.27,0.76 1.24,1.14 2.11,0.95 0.7,-0.15 1.97,-1.42 2.67,-2.03 0.98,-0.86 2.84,-2.56 0.93,-3.8 -0.57,-0.37 -1.15,-0.2 -1.19,-0.19 -0.03,0.01 -0.07,0.02 -0.1,0.03 -0.03,0.01 -0.07,0.02 -0.1,0.03z"/>
   <path class="fil8" d="M189.37 47.81c0.15,1.48 1.87,2.5 3.13,2.96 0.63,0.22 3.47,2.05 3.69,-0.88 0.08,-1.14 -0.45,-1.42 -1.16,-1.89 -0.59,-0.39 -1.2,-0.78 -1.91,-1.1 -0.38,-0.17 -0.71,-0.26 -1.08,-0.45 -2.08,-1.11 -2.69,1.19 -2.67,1.35z"/>
   <path class="fil8" d="M170.15 0.8c-0.82,0.4 -0.9,0.88 -1.12,1.83 -0.3,1.31 -1.06,3.84 -0.56,4.77 0.34,0.62 1.31,0.97 2.06,0.78 1.23,-0.32 1.45,-2.51 1.68,-4.03 0.12,-0.75 0.36,-1.87 -0.01,-2.58 -0.3,-0.58 -1.21,-1.18 -2.06,-0.77z"/>
   <path class="fil8" d="M198.55 28.62l-2.33 0.14c-1.08,0.01 -3.31,-0.06 -3.52,1.53 -0.16,1.15 0.29,1.7 1.2,1.91 0.5,0.11 4.67,-0.04 5.45,-0.34 0.59,-0.23 0.6,-0.53 0.79,-1.11 0.06,-0.17 0.02,0.08 0.09,-0.26 0.09,-0.5 0.04,-0.32 -0.1,-0.65 -0.1,-0.23 -0.1,-0.2 -0.21,-0.47 -0.16,-0.37 -0.01,-0.38 -0.58,-0.62l-0.77 -0.13z"/>
   <path class="fil8" d="M149.37 6.11c-0.03,0.73 0.5,1.82 0.79,2.44 0.6,1.32 0.77,2.28 1.88,2.79 0.86,0.39 1.1,0.08 1.15,0.07l0.75 -0.42c0.16,-0.15 -0.05,0.04 0.14,-0.09 0.81,-0.53 0.16,-2.31 -0.17,-3.06l-1 -2.02c-0.38,-0.61 -0.97,-1.28 -1.97,-1.18 -0.4,0.04 -0.86,0.17 -1.11,0.45 -0.22,0.24 -0.45,0.97 -0.46,1.03z"/>
   <path class="fil15" d="M127.27 181.22c-0.48,-0.82 -4.46,-1.67 -5.29,-1.82 -1.23,-0.22 -5.19,-1.53 -5.4,0.11 -0.15,1.21 0.79,1.65 1.76,1.81 1.06,0.18 1.95,0.32 2.98,0.53 1.36,0.28 5.26,0.53 5.95,-0.63z"/>
   <path class="fil8" d="M182.35 62.89c0,-1.1 -0.65,-2.3 -1.13,-3.28 -0.18,-0.37 -0.23,-0.7 -0.43,-1.08 -0.96,-1.88 -3.41,-1 -3.26,0.76 0.03,0.31 0.06,0.84 0.16,1.07l0.34 0.9c0.22,0.63 0.74,1.33 1.01,2 0.84,2.08 3.29,1.18 3.29,-0.38z"/>
   <path class="fil6" d="M201.4 123.72c-0.26,0.26 -0.57,0.33 -0.58,0.88 -0.01,0.39 0.2,0.96 0.27,1.32 0.12,0.59 0.19,1.93 0.48,2.37 1.37,-0.34 3.24,-1.54 4.21,-2.29 0.13,-0.24 -0.35,-2.59 -0.44,-3.24l-0.24 -0.95c-1.09,0.47 -2.51,1.71 -3.69,1.9z"/>
   <path class="fil5" d="M72.12 93.59c-3.05,1.06 -1.79,5.73 1.5,4.87 0.71,-0.19 1.11,-0.51 1.39,-1.04 1.12,-2.12 -0.76,-4.57 -2.89,-3.83z"/>
   <path class="fil15" d="M116.72 195.34c1.53,-0.06 3.08,-0.21 4.6,-0.37l3.29 -0.39c0.16,-0.02 0.41,-0.04 0.55,-0.07 0.44,-0.08 0.18,0.05 0.43,-0.14l-8.16 -1.71c-1.15,-0.25 -3.57,-1.22 -3.32,0.84 0.15,1.23 2.69,1.7 3.28,1.63l-0.66 0.21z"/>
   <path class="fil16" d="M158.51 16.43c2.48,-0.64 3.32,-1.79 7.95,-1.97 7.87,-0.3 15.27,3.95 18.67,10.99 4.17,8.63 1.32,18.96 -6.19,24.53 -0.69,0.51 -2.89,1.73 -3.09,1.96 0.75,0.05 2.64,-1.31 3.29,-1.75 1.03,-0.71 1.78,-1.43 2.63,-2.37 1.64,-1.81 1.91,-2.3 3.16,-4.27 0.8,-1.26 1.71,-3.86 2.02,-5.54 0.53,-2.82 0.62,-6.12 -0.21,-8.95 -0.4,-1.36 -0.91,-3.32 -1.7,-4.47 -1.87,-2.74 -1.29,-2.39 -3.84,-4.97 -2.3,-2.34 -6.45,-4.45 -9.85,-5.13 -1.49,-0.3 -3.15,-0.31 -4.77,-0.31 -1.57,-0 -3.06,0.24 -4.46,0.62 -0.67,0.18 -1.28,0.43 -1.87,0.67l-1.36 0.52c-0.56,0.32 -0.21,-0.02 -0.37,0.45z"/>
   <path class="fil2" d="M70.3 71.2c0.06,0.4 -0.03,0.23 0.19,0.25l1.71 -1.2c0.24,-0.22 0.35,-0.41 0.63,-0.63l4.58 -4.25c0.09,-0.08 0.1,-0.09 0.19,-0.16l5.28 -5.84c0.11,-0.13 0.16,-0.21 0.25,-0.33 1.07,-1.33 1,-1.18 1.95,-2.69l2.12 -3.1c0.67,-0.89 1.04,-1.94 1.7,-2.83 0.18,-0.25 0.07,-0.17 0.32,-0.41 -0.06,0.42 -0.5,1.5 -0.68,1.91 -0.28,0.64 -0.59,1.2 -0.85,1.83l-0.56 1.28c-0.08,0.17 -0.16,0.36 -0.23,0.47l-2.87 5.02c-0.34,0.63 -0.64,1.03 -0.97,1.58 -0.1,0.18 -0.1,0.17 -0.22,0.36l-0.67 0.83c-0.24,0.2 0.11,-0.39 -0.07,0.07 -0.54,0.17 0.06,0.31 -0.85,1.24 -0.01,0.01 -0.04,0.04 -0.05,0.05 -0.01,0.01 -0.03,0.04 -0.04,0.05l-0.09 0.24c-0.19,0.47 -0.56,0.81 -0.82,1.21l-0.88 1.2c-0.29,0.33 -1.5,2.17 -1.82,2.02 -0.01,-0.01 -0.05,-0.04 -0.06,-0.05 -0.01,-0.01 -0.04,-0.04 -0.06,-0.05 0.08,0.69 -0.07,0.48 -0.46,0.9l-3.76 3.79c-0.49,0.53 -1.16,0.94 -1.57,1.47l0.25 0.05c0.37,-0.1 2.53,-2.24 2.86,-2.54 0.58,-0.52 0.8,-0.82 1.31,-1.36l1.91 -2.15c4.19,-4.9 7.14,-9.61 10,-15.53l1.53 -3.73c0.12,-0.63 0.3,-1.11 0.48,-1.67 0.08,-0.25 0.17,-0.52 0.26,-0.79l0.17 -0.6c-0.01,-0.25 0.01,-0.12 -0.06,-0.26 -0.33,1.03 -1.3,2.71 -1.85,3.64 -0.37,0.62 -0.63,1.17 -1.01,1.78 -1.94,3.08 -3.56,5.36 -5.78,8.14 -2.73,3.41 -7.93,8.31 -11.44,10.79z"/>
   <path class="fil6" d="M191.93 126.18c-0.22,0.13 -0.73,0.11 -1.1,0.13 0.05,1.45 0.76,2.46 0.94,3.88 0.57,0.29 3.01,-0.17 3.81,-0.22 0.21,-0.69 -0.16,-1.62 -0.29,-2.47l-0.21 -1.49 -3.15 0.18z"/>
   <path class="fil17" d="M133.79 97.47l0.06 -0.24c0.23,0.11 -0.07,0.16 0.15,0.05 0.43,-0.21 -0.1,0.08 0.09,-0.31 1.34,0.19 3.17,1.92 4.13,2.87l0.68 0.84c0.18,0.23 0.12,0.12 0.18,0.43 0.02,-0.04 -0.02,-0.28 0.26,-0.52 -1.03,-3.77 -3.43,-6.5 -7.8,-6.59l2.04 3.16c0.02,0.03 0.08,0.13 0.1,0.15 0.01,0.02 0.04,0.06 0.05,0.07 0.01,0.02 0.04,0.05 0.06,0.07z"/>
   <path class="fil6" d="M194.54 163.47c2.59,0.29 3.01,0.36 4.76,-0.79 0.96,-0.63 2.24,-1.98 2.73,-3 -0.79,0.12 -1.52,0.35 -2.5,0.4 -1,0.06 -2.05,-0.05 -3.02,0.03 -0.77,2.65 -1.78,2.69 -1.96,3.35z"/>
   <path class="fil6" d="M206.6 125.18c0.35,-0.15 0.1,-0 0.46,-0.34 0.67,-0.65 1.92,-1.95 2.27,-2.61 0.31,-0.59 0.79,-2.89 0.63,-3.61l-0.45 -1c-0.99,0.91 -1.84,2.43 -3.52,3.47l0.62 4.09z"/>
   <path class="fil17" d="M138.2 190.83c0.27,0.12 2.02,0.41 2.28,0.48 -0.45,0.28 -0.31,-0.05 -0.61,0.4l1.22 -0.03c-0.43,-2.12 -0.8,-3.81 -0.02,-5.93 0.92,-2.51 2.59,-2.72 3.38,-3.51 -0.79,-0.09 -1.84,0.53 -2.61,0.92 -2.76,1.37 -3.5,4.7 -3.02,7.77l-0.61 -0.1z"/>
   <path class="fil6" d="M196.82 126.93c0.48,0.55 0.4,2.2 1.07,2.41l2.63 -0.68c0.09,-0.49 0.05,-0.11 -0.07,-0.25 -0.38,0.09 -0.38,0.12 -0.89,0.11 0.17,-0.08 0.29,-0.13 0.51,-0.22 0.15,-0.06 0.2,-0.07 0.22,-0.08l0.19 -0.02c-0.21,-1.2 -0.29,-2.44 -0.51,-3.73 -0.33,0.04 -2.81,1.08 -3.27,1.27l0.12 1.18z"/>
   <path class="fil5" d="M127.72 96.73c-2.63,0.66 -1.61,4.54 0.76,3.94 2.06,-0.52 1.74,-4.57 -0.76,-3.94z"/>
   <path class="fil6" d="M103.38 140.5c-0.39,-1.04 -2.1,-1.1 -3.39,-1.16 -1.27,-0.06 -3.31,-0.17 -3.37,1.18 0.8,0.55 2.07,0.83 3.36,0.87 1.27,0.04 2.97,0.08 3.4,-0.89z"/>
   <path class="fil9" d="M203.97 148.82c0.13,0.34 0.29,0.6 0.44,0.98 0.97,2.35 1.92,4.82 -0.33,6.79 0.99,-0.14 1.27,-0.84 1.68,-1.57 0.26,-0.47 0.87,-1.86 1.3,-1.98 -0.09,-0.56 -0.08,-1.15 -0.21,-1.63 -0.13,-0.46 -0.22,-0.94 -0.41,-1.33 -0.28,-0.58 -0.21,-0.1 -0.43,-0.85 -0.01,-0.03 -0.02,-0.06 -0.03,-0.09 -0.27,-0.84 -0.27,-0.76 -0.67,-0.95 -0.13,-0.06 -0.07,0.06 -0.21,-0.15 -0.31,0.41 0.01,0.37 -0.47,0.51l-0.66 0.29z"/>
   <path class="fil6" d="M34.94 44.42l-0.37 0.54c-0.4,0.67 -1.1,1.72 -1.4,2.29 0.3,0.04 0.17,-0.24 0.33,0.36 0.08,0.32 -0.02,0.44 -0.1,0.72 0.37,-0.22 0.99,-1.16 1.33,-1.63 0.13,-0.18 0.1,-0.17 0.23,-0.34l1.78 -1.93c0.38,-0.47 0.72,-0.89 1.12,-1.32 0.24,-0.25 0.35,-0.36 0.56,-0.58l2.32 -2.45c0.52,-0.52 1.56,-1.3 1.82,-1.93 -0.9,0.08 -1.86,1.44 -2.49,1.93l-1.35 1.25c-0.3,0.31 -0.47,0.64 -0.81,0.88l-2.58 2.45c-0.33,-0.53 0.17,-0.09 -0.41,-0.24z"/>
   <path class="fil0" d="M40.36 99.62c0.11,0.84 -0.19,5.5 -0.17,7.24 0.02,1.56 0.06,4.52 -0.19,5.99 -0.12,0.71 -0.1,0.31 -0.29,0.77 -0.48,-0.13 -0.26,-0.04 -0.59,-0.42 -0.21,-0.24 -0.25,-0.32 -0.48,-0.56 -0.97,-0.99 -1.8,-2.42 -2.47,-3.57 -0.38,-0.65 -1.98,-3.92 -2.11,-4.9 -0.07,-0.53 0.1,-0.46 -0.17,-0.76 -0.29,0.22 -0.21,0.01 -0.2,0.5 0.11,2.01 4.63,9.76 6.56,10.87l0.09 -0.19c0.01,-0.03 0.02,-0.06 0.03,-0.1l0.06 -0.52c0.01,-0.26 0.02,-0.57 0.04,-0.85 0.13,-3.11 0.05,-6.06 0.15,-9.17 0.04,-1.05 0.18,-2.49 0.1,-3.51l-0.01 -1 -0.35 0.18z"/>
   <path class="fil17" d="M82.68 100.22c0.02,-0.56 0.04,-0.32 0.17,-0.47 0.38,0.91 3.11,1.79 3.26,3.28 0.06,0.63 -0.04,1.58 -0.07,2.23l0.17 -0.59c0.13,-1.49 -0.23,-1.01 0.37,-2.11 -0.59,-1.28 -2.17,-4.01 -3.23,-4.92 -0.41,-0.36 -0.92,-0.85 -1.44,-1.2 0.09,0.43 0.16,0.42 0.23,0.92 0.05,0.36 0.07,0.66 0.14,0.98 0.13,0.61 0.2,1.42 0.39,1.89z"/>
   <path class="fil7" d="M199.32 28.75c0.58,0.24 0.43,0.26 0.58,0.62 0.12,0.27 0.11,0.24 0.21,0.47 0.15,0.33 0.2,0.14 0.1,0.65 -0.06,0.34 -0.03,0.09 -0.09,0.26 -0.19,0.58 -0.2,0.88 -0.79,1.11 -0.78,0.31 -4.95,0.46 -5.45,0.34 -0.91,-0.21 -1.35,-0.76 -1.2,-1.91 0.22,-1.59 2.45,-1.52 3.52,-1.53l2.33 -0.14 0.77 0.13zm1.3 2.24c0.37,-0.99 -0.09,-1.93 -0.66,-2.42 -0.69,-0.6 -1.77,-0.41 -2.78,-0.33 -2.05,0.15 -4.17,-0.14 -4.73,1.72 -0.3,1.01 0.04,1.91 0.65,2.34 0.82,0.59 1.7,0.39 2.7,0.31 1.98,-0.15 4.13,0.2 4.82,-1.62z"/>
   <path class="fil7" d="M149.37 6.11c0,-0.06 0.23,-0.79 0.46,-1.03 0.25,-0.28 0.71,-0.41 1.11,-0.45 1,-0.1 1.6,0.57 1.97,1.18l1 2.02c0.33,0.75 0.98,2.53 0.17,3.06 -0.19,0.13 0.02,-0.06 -0.14,0.09l-0.75 0.42c-0.05,0.02 -0.29,0.32 -1.15,-0.07 -1.11,-0.5 -1.28,-1.47 -1.88,-2.79 -0.28,-0.62 -0.81,-1.71 -0.79,-2.44zm-0.3 0.76c0.25,0.94 1.75,4.14 2.26,4.58 1.54,1.35 4.08,0.01 3.61,-2.1 -0.13,-0.57 -0.81,-1.88 -1.07,-2.41 -0.39,-0.8 -0.65,-1.63 -1.2,-2.17 -1.49,-1.48 -4.22,-0.22 -3.6,2.1z"/>
   <path class="fil7" d="M136.71 25.01c0.12,-0.48 -0.03,-0.36 0.02,-0.2 -1.05,-0.08 -1.72,-0.29 -1.93,-1.18 -0.37,-1.58 0.82,-2.45 2.18,-2.3 1.57,0.17 2.42,0.7 3.55,0.97 0.68,0.16 1.45,0.31 1.62,1.46 0.12,0.81 -0.13,1.64 -0.89,1.98 -0.79,0.35 -2.51,-0.22 -3.4,-0.57l-1.14 -0.16zm-0.97 -4c-1.75,0.71 -1.99,3.37 0.11,4.09 0.81,0.28 1.75,0.41 2.67,0.68 0.9,0.26 1.79,0.73 2.78,0.38 1.69,-0.6 1.77,-3.36 -0.15,-4.09 -1.08,-0.41 -4.37,-1.49 -5.42,-1.06z"/>
   <path class="fil7" d="M170.15 0.8c0.85,-0.41 1.76,0.2 2.06,0.77 0.37,0.71 0.12,1.83 0.01,2.58 -0.23,1.52 -0.45,3.71 -1.68,4.03 -0.75,0.19 -1.73,-0.15 -2.06,-0.78 -0.51,-0.94 0.25,-3.46 0.56,-4.77 0.22,-0.95 0.3,-1.43 1.12,-1.83zm2.59 2.59c0.54,-3.15 -2.16,-3.49 -3.11,-2.75 -1.04,0.81 -1.35,3.35 -1.66,4.97 -0.24,1.25 -0.13,1.86 0.6,2.51 0.63,0.56 1.69,0.81 2.53,0.26 1.11,-0.72 1.34,-3.27 1.64,-4.99z"/>
   <path class="fil7" d="M189.37 47.81c-0.02,-0.16 0.6,-2.46 2.67,-1.35 0.36,0.19 0.69,0.28 1.08,0.45 0.72,0.32 1.32,0.7 1.91,1.1 0.71,0.47 1.24,0.74 1.16,1.89 -0.21,2.93 -3.06,1.1 -3.69,0.88 -1.27,-0.45 -2.98,-1.48 -3.13,-2.96zm-0.27 0.81c0.35,1.13 2.8,2.23 4.05,2.9 0.83,0.45 1.71,0.84 2.69,0.15 0.63,-0.44 1.07,-1.44 0.79,-2.5 -0.32,-1.23 -2.95,-2.32 -4.05,-2.89 -0.83,-0.43 -1.6,-0.88 -2.57,-0.21 -0.58,0.4 -1.27,1.38 -0.9,2.55z"/>
   <path class="fil16" d="M191.21 12.67c-0.39,1.15 -2.4,2.7 -3.5,3.62 -1.9,1.58 -4.34,-0.1 -3.63,-2.12 0.33,-0.93 2.67,-2.83 3.57,-3.5 2.05,-1.53 4.21,0.09 3.56,2.01zm-2.56 -2.89c-1.23,0.44 -3.55,2.51 -4.42,3.5 -1.58,1.79 0.23,4.5 2.57,3.93 0.84,-0.2 1.71,-1.19 2.95,-2.02 0.02,-0.01 0.05,-0.03 0.07,-0.05l0.79 -0.72c0.89,-0.81 1.54,-2.68 0.7,-3.63 -0.54,-0.61 -1.51,-1.42 -2.66,-1.01z"/>
   <path class="fil16" d="M177.16 59.88c-0.47,-2.16 1.91,-3.52 3.33,-2.32 0.64,0.54 1.88,3.56 2.11,4.51 0.6,2.41 -1.96,3.54 -3.34,2.28 -0.38,-0.34 -1.94,-3.73 -2.1,-4.48zm1.41 -2.98c-0.58,0.15 -0.31,-0.12 -0.83,0.34l-0.38 0.32c-1.59,1.57 0.17,3.86 0.97,6.03 0.12,0.32 0.11,0.39 0.27,0.64 0.01,0.02 0.03,0.05 0.05,0.06 0.01,0.02 0.04,0.05 0.05,0.06 0.55,0.72 1.95,1.15 2.78,0.77l0.85 -0.62c1.27,-1.39 0.58,-2.76 0.03,-4.2l-1.22 -2.47c-0.63,-1.06 -1.53,-1.2 -2.57,-0.93z"/>
   <path class="fil7" d="M188.78 10.52c0.03,-0.01 0.07,-0.03 0.1,-0.03 0.03,-0.01 0.07,-0.02 0.1,-0.03 0.04,-0.01 0.61,-0.18 1.19,0.19 1.91,1.24 0.04,2.94 -0.93,3.8 -0.7,0.61 -1.97,1.88 -2.67,2.03 -0.87,0.19 -1.84,-0.18 -2.11,-0.95 -0.38,-1.09 0.27,-1.88 0.76,-2.32l2.54 -2.23c0.53,-0.36 0.36,-0.29 1.02,-0.47zm2.43 2.15c0.65,-1.92 -1.51,-3.54 -3.56,-2.01 -0.9,0.68 -3.24,2.57 -3.57,3.5 -0.71,2.02 1.72,3.71 3.63,2.12 1.1,-0.91 3.12,-2.47 3.5,-3.62z"/>
   <path class="fil16" d="M200.62 30.99c-0.69,1.82 -2.84,1.47 -4.82,1.62 -0.99,0.08 -1.87,0.27 -2.7,-0.31 -0.61,-0.43 -0.95,-1.33 -0.65,-2.34 0.55,-1.85 2.68,-1.57 4.73,-1.72 1.01,-0.08 2.09,-0.27 2.78,0.33 0.57,0.49 1.03,1.43 0.66,2.42zm-0.52 -3.02c-1.61,-0.03 -5.5,-0.15 -6.58,0.38 -1.84,0.9 -2.04,3.79 -0.08,4.45 0.98,0.33 5.56,0.05 6.32,-0.39 1.69,-0.97 1.69,-2.9 1.2,-3.55l-0.1 -0.13c-0.7,-0.88 -0.47,-0.06 -0.76,-0.76z"/>
   <path class="fil7" d="M182.35 62.89c-0,1.55 -2.45,2.46 -3.29,0.38 -0.27,-0.67 -0.79,-1.37 -1.01,-2l-0.34 -0.9c-0.1,-0.23 -0.14,-0.76 -0.16,-1.07 -0.16,-1.76 2.3,-2.64 3.26,-0.76 0.2,0.39 0.25,0.71 0.43,1.08 0.48,0.98 1.13,2.18 1.13,3.28zm-5.19 -3.02c0.16,0.75 1.72,4.14 2.1,4.48 1.39,1.26 3.94,0.13 3.34,-2.28 -0.24,-0.95 -1.48,-3.97 -2.11,-4.51 -1.42,-1.21 -3.81,0.15 -3.33,2.32z"/>
   <path class="fil6" d="M126.62 38.91c0.04,1.97 1.01,3.25 0.64,5.66l0.01 0.44c0.01,0.03 0.05,0.07 0.06,0.24 0.53,-0.51 0.79,-1.77 1.27,-2.18 0.01,-0.95 -1.05,-5.05 -1.71,-5.42l-0.28 1.26z"/>
   <path class="fil16" d="M189.1 48.63c-0.37,-1.17 0.32,-2.16 0.9,-2.55 0.98,-0.67 1.74,-0.22 2.57,0.21 1.1,0.57 3.73,1.67 4.05,2.89 0.28,1.06 -0.16,2.07 -0.79,2.5 -0.98,0.68 -1.86,0.29 -2.69,-0.15 -1.24,-0.67 -3.69,-1.77 -4.05,-2.9zm0.8 -3.25c0.34,0.45 0.01,0.22 -0.26,0.45 -0.17,0.14 -0.34,0.28 -0.49,0.44 -0.54,0.56 -0.73,2.1 -0.09,2.97 0.24,0.33 0.58,0.73 0.97,0.98l2.59 1.38c2.04,1.11 2.76,1.03 4.01,-0.27 0.34,-0.35 0.39,-0.97 0.37,-1.65 -0.03,-1.24 -0.89,-1.77 -1.74,-2.27 -0.61,-0.36 -3.21,-1.8 -3.92,-1.93 -1.23,-0.23 -1.01,0.42 -1.45,-0.09z"/>
   <path class="fil17" d="M56.89 99.32c0.28,0.14 0.24,-0.06 0.15,0.54 -0.01,0.06 -0.14,0.38 -0.17,0.51 -0.2,0.71 0.03,0.66 0.17,0.79 0.24,-0.58 0.07,-0.46 0.46,-1.06 0.22,-0.34 0.42,-0.6 0.66,-0.97 0.52,-0.8 0.63,-0.71 1.1,-1.21 0.31,-0.33 0.08,-0.26 0.52,-0.34l1.17 -3.02c-1.39,0.58 -3.47,3.1 -4.05,4.77z"/>
   <path class="fil16" d="M172.74 3.39c-0.3,1.72 -0.53,4.27 -1.64,4.99 -0.84,0.55 -1.9,0.3 -2.53,-0.26 -0.73,-0.65 -0.84,-1.26 -0.6,-2.51 0.31,-1.62 0.62,-4.16 1.66,-4.97 0.95,-0.74 3.65,-0.39 3.11,2.75zm-2.58 -3.3c-1.79,0.49 -1.94,2.96 -2.34,4.91 -0.24,1.15 -0.42,2.11 0.22,2.96 0.52,0.68 1.34,1.17 2.59,0.97 1.84,-0.29 1.84,-2.59 2.01,-3.29 0.11,-0.45 0.25,-1 0.33,-1.49 0.21,-1.23 0.29,-2.25 -0.31,-3.12 -0.48,-0.7 -1.42,-1.23 -2.5,-0.93z"/>
   <path class="fil16" d="M149.07 6.87c-0.62,-2.32 2.11,-3.58 3.6,-2.1 0.54,0.54 0.8,1.37 1.2,2.17 0.26,0.53 0.95,1.84 1.07,2.41 0.47,2.11 -2.07,3.45 -3.61,2.1 -0.51,-0.44 -2.01,-3.63 -2.26,-4.58zm1.48 -2.96c-2.67,0.72 -1.86,3.17 -1.03,4.84 0.65,1.32 1.63,4.21 3.88,3.5 2.59,-0.82 1.86,-3.1 1.06,-4.86 -0.73,-1.6 -1.61,-4.1 -3.91,-3.48z"/>
   <path class="fil16" d="M135.74 21.01c1.05,-0.43 4.34,0.65 5.42,1.06 1.91,0.73 1.84,3.49 0.15,4.09 -0.99,0.35 -1.88,-0.12 -2.78,-0.38 -0.92,-0.27 -1.86,-0.4 -2.67,-0.68 -2.1,-0.72 -1.86,-3.38 -0.11,-4.09zm0.23 -0.36c-1.83,0.4 -2.14,2.38 -1.74,3.48 0.27,0.76 -0,0.59 0.65,0.97 0.89,0.51 1.81,0.47 2.98,0.75 1.06,0.25 1.89,0.74 3.08,0.65 2.15,-0.16 2.49,-3.48 0.82,-4.46 -0.73,-0.43 -4.7,-1.63 -5.79,-1.39z"/>
   <path class="fil7" d="M159.79 193.63l-0.7 -1.58c-0.37,-0.84 -1.09,-2.51 -1.86,-2.29 -0.29,0.08 -0.18,0.25 -0.13,0.59 0.19,1.15 0.32,1.41 0.71,2.68 0.07,0.24 0.13,0.47 0.25,0.66 0.14,0.25 0.02,0.13 0.35,0.23 0.68,0.2 0.93,0.14 1.38,-0.29z"/>
   <path class="fil9" d="M195.29 127.49c0.12,0.86 0.49,1.78 0.29,2.47 0.74,-0.17 1.8,-0.23 2.31,-0.63 -0.67,-0.22 -0.59,-1.86 -1.07,-2.41 0.03,0.5 -0.01,0.5 -0.18,0.84l-0.39 -0.25c-0.16,-0.15 -0.13,-0.09 -0.22,-0.35 -0.22,0.25 -0.33,0.25 -0.73,0.32z"/>
   <path class="fil9" d="M188.85 126.58l1.14 -0.06 0.05 3.88c0.56,-0.41 0.18,-0.02 0.28,-0.48 0.04,-0.17 -0.03,-0.28 0.24,-0.36 0.35,-0.1 0.38,0.18 0.82,-0.41 0.04,0.35 0.15,0.78 0.38,1.03 -0.18,-1.42 -0.89,-2.42 -0.94,-3.88 0.37,-0.01 0.88,-0 1.1,-0.13 -0.64,-0.05 -1.02,0.05 -1.55,0.17 -0.45,0.1 -1.18,0.03 -1.53,0.23z"/>
   <path class="fil9" d="M199.96 124.48c0.23,1.28 0.31,2.53 0.51,3.73l-0.19 0.02c-0.02,0 -0.08,0.02 -0.22,0.08 -0.22,0.09 -0.34,0.14 -0.51,0.22 0.51,0.01 0.51,-0.02 0.89,-0.11 0.12,0.14 0.16,-0.24 0.07,0.25 0.18,-0.08 0.88,-0.26 1.05,-0.37 -0.28,-0.43 -0.36,-1.77 -0.48,-2.37 -0.07,-0.36 -0.28,-0.94 -0.27,-1.32 0.01,-0.55 0.32,-0.62 0.58,-0.88 -0.17,0.06 -0.34,0.12 -0.49,0.18l-0.24 0.12c-0.02,0.01 -0.05,0.03 -0.07,0.04 -0.69,0.38 -0.5,0.05 -0.64,0.41z"/>
   <path class="fil9" d="M176.77 154.53l1.22 1.17c-0.14,-0.49 -0.02,-0.63 0.19,-1.04 0.15,-0.3 0.29,-0.59 0.47,-0.92 0.29,-0.52 0.61,-1.48 1.12,-1.55 -0.21,-0.23 -0.3,-0.27 -0.52,-0.46 -0.16,-0.13 -0.11,-0.07 -0.22,-0.24 -0.08,-0.12 -0.02,-0.04 -0.08,-0.16 -0.01,-0.02 -0.03,-0.07 -0.04,-0.08 -0.01,-0.02 -0.02,-0.06 -0.04,-0.09 -0.04,0.65 -0.55,1.22 -0.93,1.86 -0.19,0.33 -0.37,0.57 -0.54,0.86 -0.53,0.9 -0.22,0.77 -0.64,0.65z"/>
   <path class="fil13" d="M31.77 49.13c0.49,-0.1 0.12,-0.06 0.26,0.07 -0.14,0.33 -0.08,0.2 -0.07,0.62 0.01,0.42 -0.04,0.34 -0.03,0.86l1.48 -2.35c0.08,-0.28 0.18,-0.4 0.1,-0.72 -0.16,-0.6 -0.03,-0.32 -0.33,-0.36 -0.43,0.61 -0.96,1.23 -1.41,1.88z"/>
   <path class="fil9" d="M191.12 159.02l-0.29 -0.1c-1.35,-0.39 -0.44,-0.32 -1.17,-0.53 -0,0.01 -0.55,1.08 -0.65,1.3 -0.03,0.07 -0.12,0.26 -0.13,0.35 -0.05,0.47 -0.2,0.2 0.14,0.33 0.36,0.14 0.22,-0.18 0.29,-0.36l0.79 -0.11c0.17,-0.08 0.14,-0.1 0.16,-0.12 0.39,-0.46 0.07,-0.68 0.86,-0.76z"/>
   <path class="fil13" d="M114.92 128.81c1.87,1.08 1.52,1.97 2.59,2.19 -0.16,-0.77 -0.61,-1.31 -1.13,-1.67 -0.46,-0.32 -1.26,-0.79 -1.91,-0.8l0.45 0.28z"/>
   <path class="fil9" d="M11.78 108.4c0.55,0.12 0.57,0.47 1.09,1.24 0.15,-0.25 0.06,-0.32 -0.06,-0.73 -0.08,-0.27 -0.12,-0.49 -0.19,-0.74 0.09,0.34 -0.05,0 0.25,0.16 -0.1,-0.68 -0.31,-1.04 -0.54,-1.54 -0.12,0.24 -0.13,0.52 -0.23,0.79 -0.12,0.32 -0.24,0.44 -0.33,0.81z"/>
   <path class="fil2" d="M51.89 91.69l0.63 -0.35c-0.13,-0.09 0.06,-0.01 -0.22,-0.12 -0.05,-0.02 -0.21,-0.07 -0.32,-0.11 0.5,-0.61 -0.54,0.51 0.21,-0.17 0.31,-0.28 -0.09,-0.22 0.45,-0.55 -0.08,-0.07 -0.01,-0.28 -0.38,-0.12 0.58,0 0.02,0.04 0.28,-0.23 -0.81,0.08 -0.69,0.14 -1.36,-0.22 0.07,0.36 0.25,0.47 0.47,1.35l0.24 0.52z"/>
   <path class="fil18" d="M147.96 97.57c0.57,-0.16 0.53,-0.08 0.75,-0.35 0.02,0.03 0.04,0.03 0.05,0.07l0.17 0.23c0.01,0.02 0.04,0.05 0.07,0.08 0.03,-0.36 0.04,-0.78 0.09,-1.17 0,-0.03 0.08,-0.59 0.08,-0.6 -0.02,-0.74 0.16,-0.32 -0.22,-0.43 0.05,0.33 -0.75,1.69 -0.99,2.17z"/>
  </g>
 </g>
</svg>
