<?xml version="1.0" encoding="UTF-8"?>
<!DOCTYPE svg PUBLIC "-//W3C//DTD SVG 1.1//EN" "http://www.w3.org/Graphics/SVG/1.1/DTD/svg11.dtd">
<!-- Creator: CorelDRAW 2021 (64 Bit) -->
<svg xmlns="http://www.w3.org/2000/svg" xml:space="preserve" width="349.449mm" height="397.661mm" version="1.1" style="shape-rendering:geometricPrecision; text-rendering:geometricPrecision; image-rendering:optimizeQuality; fill-rule:evenodd; clip-rule:evenodd"
viewBox="0 0 3117.58 3547.71"
 xmlns:xlink="http://www.w3.org/1999/xlink"
 xmlns:xodm="http://www.corel.com/coreldraw/odm/2003">
 <defs>
  <style type="text/css">
   <![CDATA[
    .fil0 {fill:white}
   ]]>
  </style>
 </defs>
 <g id="Camada_x0020_1">
  <metadata id="CorelCorpID_0Corel-Layer"/>
  <path class="fil0" d="M1262.23 859.66c0.73,-52.64 124.23,-572.28 129.86,-647.16 8.25,-107.66 -86.61,-208.27 -177.42,-212.14 -73.41,-3.07 -110.79,14.39 -163.49,32.33 -47.85,16.39 -102.38,34.19 -151.99,49.74l-295.16 95.71c-106.29,47.17 -117.28,128.71 -144.25,251.11 -92.7,420.75 -199.16,848.77 -295.78,1270.49 -23.84,104.13 -49.5,207.75 -72.44,315.98 -40.01,189.09 -142.77,481.24 -60.54,661.11 99.69,218 316.22,258.11 535.69,196.77 65.79,-18.38 223.29,-76.19 286.8,-110.28l-102.14 517.14c-13.49,72.04 -12.91,111.36 22.47,170.36 23.55,38.98 69.59,74.82 118.3,88.59 73.01,20.66 110.96,-1.37 167.36,-20.83l466.38 -162.63c130.65,-44.21 138.78,-124.16 164,-249.7l142.6 -694.9c0.35,-1.7 3.53,-17.08 4.72,-19.58 10.3,-24.81 82.06,-46.32 121.6,-67.6 -0.57,26.29 -9.96,60.38 -15.36,87.86 -6.38,33.57 -10.42,58.44 -17.75,91.44l-70.85 354.11c-10.64,55.59 -32.66,120.13 -25.03,185.79 11.61,102.71 123.02,196.43 251.23,165.24l514.12 -133.66c145.73,-40.23 150.17,-148.97 172.76,-253.28l292.83 -1418.49c11.89,-59.06 22.76,-119.04 36.02,-176.52 28.91,-124.79 33.57,-252.42 -24.36,-355.42 -128.71,-228.75 -427.28,-178.22 -678.81,-176.74l-857.54 5.69c-162.57,18.1 -200.02,73.52 -273.76,159.44l-0.07 0.04zm1107.63 453.8l-517.19 3.24c-15.03,49.06 -19.35,109.36 -29.59,153.47 -6.82,28.91 -4.61,21.17 -32.6,34.19l-518.8 239.68c18.1,-155.24 66.74,-347.63 97.19,-505.6 51.67,-267.11 40.8,-336.41 264.77,-337.5 198.43,-1.02 397.53,1.37 596.58,0.17 105.1,-0.62 528.93,-16.27 594.35,12.69 78.3,34.54 103.16,103.97 85.87,208.32 -35,209.46 -110.51,534.78 -155.29,754.95 -33.86,166.9 -67.95,331.98 -102.49,498.14l-109.2 499.22c-14.68,11.32 -460.52,127.3 -511.05,135.77l205.71 -1037.12c-127.63,46.83 -392.52,185.28 -545.37,252.02 -47.29,20.77 -31.41,15.65 -54.63,127.41 -16.95,81.6 -156.72,786.07 -167.47,801.43 -6.89,7.33 -1.54,3.29 -11.5,9.16 -6.82,4.1 -9.11,4.84 -17.19,7.85l-99.52 34.71c-92.36,32.89 -328.78,120.35 -395.03,136.85l176.85 -913.3 -405.21 171.57c-104.81,47.69 -346.26,154.16 -456.94,56.85 -112.33,-99.12 -37.16,-322.82 -4.21,-464.16l328.91 -1413.43c19.18,-80.29 37.39,-156.88 55.15,-236.5 42,-187.84 23.95,-174.02 96.05,-195.87 75.17,-22.82 147.32,-48.77 221.47,-71.75 71.42,-22.2 153.81,-54.8 227.1,-71.7 -8.03,71.59 -184.02,894.41 -203.2,985.69l-154.78 731.33c-77.33,339.48 -56.34,253.1 410.95,43.54l812.93 -376.98c68.22,-32.89 137.36,-61.34 204.68,-94.57 27.99,-13.82 80.46,-25.49 91.5,-55.08 5.41,-14.52 22.07,-109.88 21.23,-124.68l0 0 -0.03 0.03z"/>
 </g>
</svg>
